<svg width="330" height="140" viewBox="0 0 330 140" fill="none" xmlns="http://www.w3.org/2000/svg">
<path d="M251.803 13.0129V11.469L255.674 5.37026H257.005V7.5073H256.218L253.777 11.3694V11.4418H259.278V13.0129H251.803ZM256.254 14.6428V12.542L256.29 11.8583V5.37026H258.128V14.6428H256.254ZM264.739 10.6223V14.6428H262.81V7.6884H264.649V8.91539H264.73C264.884 8.51092 265.142 8.19097 265.504 7.95553C265.867 7.71708 266.306 7.59785 266.822 7.59785C267.305 7.59785 267.726 7.70349 268.085 7.91478C268.444 8.12607 268.723 8.42791 268.923 8.8203C269.122 9.20968 269.221 9.67452 269.221 10.2148V14.6428H267.293V10.5589C267.296 10.1333 267.187 9.80129 266.967 9.56283C266.746 9.32136 266.443 9.20063 266.057 9.20063C265.797 9.20063 265.568 9.25647 265.368 9.36815C265.172 9.47983 265.018 9.64282 264.907 9.85713C264.798 10.0684 264.742 10.3235 264.739 10.6223ZM273.539 14.7787C272.824 14.7787 272.208 14.6338 271.692 14.344C271.179 14.0512 270.784 13.6377 270.506 13.1034C270.228 12.5662 270.089 11.9308 270.089 11.1973C270.089 10.4819 270.228 9.85411 270.506 9.31382C270.784 8.77352 271.174 8.35245 271.679 8.05061C272.186 7.74877 272.78 7.59785 273.462 7.59785C273.921 7.59785 274.348 7.6718 274.744 7.8197C275.142 7.96459 275.489 8.18342 275.785 8.47621C276.084 8.76899 276.316 9.13724 276.482 9.58094C276.648 10.0216 276.731 10.5378 276.731 11.1294V11.6591H270.859V10.4638H274.916C274.916 10.1861 274.855 9.94014 274.735 9.72583C274.614 9.51152 274.446 9.344 274.232 9.22326C274.021 9.09951 273.775 9.03763 273.494 9.03763C273.201 9.03763 272.942 9.10554 272.715 9.24137C272.492 9.37418 272.317 9.55378 272.19 9.78016C272.063 10.0035 271.998 10.2525 271.995 10.5272V11.6636C271.995 12.0077 272.059 12.3051 272.186 12.5556C272.315 12.8061 272.498 12.9993 272.733 13.1351C272.969 13.271 273.248 13.3389 273.571 13.3389C273.785 13.3389 273.982 13.3087 274.16 13.2483C274.338 13.1879 274.49 13.0974 274.617 12.9767C274.744 12.8559 274.84 12.708 274.907 12.533L276.691 12.6507C276.6 13.0793 276.414 13.4536 276.134 13.7735C275.856 14.0905 275.497 14.338 275.056 14.516C274.618 14.6911 274.113 14.7787 273.539 14.7787ZM278.941 14.6428L277.048 7.6884H278.999L280.077 12.3609H280.14L281.263 7.6884H283.178L284.319 12.3337H284.378L285.438 7.6884H287.385L285.497 14.6428H283.455L282.259 10.2691H282.173L280.978 14.6428H278.941ZM290.621 17.2507V7.6884H292.523V8.85653H292.609C292.693 8.66938 292.816 8.47922 292.976 8.28605C293.139 8.08985 293.35 7.92686 293.609 7.79706C293.872 7.66425 294.198 7.59785 294.587 7.59785C295.094 7.59785 295.562 7.73066 295.991 7.99628C296.42 8.25888 296.762 8.6558 297.019 9.18704C297.275 9.71526 297.404 10.3778 297.404 11.1747C297.404 11.9504 297.278 12.6054 297.028 13.1397C296.78 13.6709 296.442 14.0739 296.014 14.3485C295.588 14.6202 295.111 14.756 294.583 14.756C294.209 14.756 293.89 14.6941 293.628 14.5704C293.368 14.4466 293.155 14.2912 292.989 14.104C292.823 13.9139 292.696 13.7222 292.609 13.529H292.55V17.2507H290.621ZM292.509 11.1656C292.509 11.5791 292.567 11.9398 292.681 12.2477C292.796 12.5556 292.962 12.7956 293.179 12.9676C293.397 13.1366 293.661 13.2212 293.972 13.2212C294.286 13.2212 294.551 13.1351 294.768 12.9631C294.986 12.788 295.15 12.5465 295.262 12.2387C295.377 11.9278 295.434 11.5701 295.434 11.1656C295.434 10.7642 295.378 10.411 295.267 10.1061C295.155 9.80129 294.99 9.56283 294.773 9.39078C294.556 9.21874 294.289 9.13271 293.972 9.13271C293.658 9.13271 293.392 9.21572 293.175 9.38173C292.96 9.54774 292.796 9.78318 292.681 10.088C292.567 10.3929 292.509 10.7521 292.509 11.1656ZM300.247 5.37026V14.6428H298.318V5.37026H300.247ZM303.403 14.7741C302.959 14.7741 302.564 14.6972 302.217 14.5432C301.87 14.3863 301.595 14.1553 301.393 13.8505C301.194 13.5426 301.094 13.1593 301.094 12.7005C301.094 12.3141 301.165 11.9896 301.307 11.727C301.449 11.4644 301.642 11.2531 301.886 11.0932C302.131 10.9332 302.409 10.8125 302.72 10.731C303.033 10.6495 303.362 10.5921 303.707 10.5589C304.111 10.5167 304.437 10.4774 304.685 10.4412C304.932 10.402 305.112 10.3446 305.223 10.2691C305.335 10.1937 305.391 10.082 305.391 9.9341V9.90693C305.391 9.62018 305.3 9.39833 305.119 9.24137C304.941 9.08442 304.688 9.00594 304.359 9.00594C304.011 9.00594 303.735 9.08291 303.53 9.23685C303.325 9.38777 303.189 9.57793 303.122 9.80733L301.339 9.66244C301.429 9.23986 301.607 8.87464 301.873 8.56676C302.138 8.25586 302.481 8.01741 302.901 7.85139C303.323 7.68236 303.812 7.59785 304.368 7.59785C304.754 7.59785 305.124 7.64312 305.477 7.73368C305.833 7.82423 306.148 7.96459 306.423 8.15474C306.701 8.34491 306.92 8.5894 307.08 8.88822C307.24 9.18402 307.32 9.53869 307.32 9.95221V14.6428H305.49V13.6784H305.436C305.324 13.8958 305.175 14.0874 304.988 14.2534C304.801 14.4164 304.576 14.5447 304.313 14.6383C304.051 14.7288 303.747 14.7741 303.403 14.7741ZM303.956 13.443C304.239 13.443 304.49 13.3872 304.707 13.2755C304.924 13.1608 305.095 13.0068 305.219 12.8137C305.343 12.6205 305.404 12.4017 305.404 12.1572V11.4192C305.344 11.4584 305.261 11.4946 305.155 11.5278C305.053 11.558 304.937 11.5867 304.807 11.6138C304.677 11.638 304.547 11.6606 304.417 11.6818C304.288 11.6999 304.17 11.7165 304.064 11.7316C303.838 11.7648 303.64 11.8176 303.471 11.89C303.302 11.9625 303.171 12.0606 303.077 12.1843C302.984 12.3051 302.937 12.456 302.937 12.6371C302.937 12.8997 303.032 13.1004 303.222 13.2393C303.415 13.3751 303.66 13.443 303.956 13.443ZM311.587 14.7787C310.874 14.7787 310.261 14.6277 309.748 14.3259C309.238 14.021 308.846 13.5985 308.571 13.0582C308.3 12.5179 308.164 11.8961 308.164 11.1928C308.164 10.4804 308.301 9.85562 308.576 9.31834C308.853 8.77805 309.247 8.35698 309.757 8.05514C310.268 7.75028 310.874 7.59785 311.578 7.59785C312.184 7.59785 312.715 7.70802 313.171 7.92836C313.627 8.14871 313.988 8.4581 314.253 8.85653C314.519 9.25496 314.665 9.72281 314.693 10.2601H312.872C312.821 9.91297 312.685 9.63377 312.465 9.42248C312.248 9.20817 311.962 9.10102 311.609 9.10102C311.31 9.10102 311.049 9.18251 310.826 9.34551C310.606 9.50548 310.434 9.73941 310.31 10.0473C310.186 10.3552 310.124 10.7279 310.124 11.1656C310.124 11.6093 310.185 11.9866 310.305 12.2975C310.429 12.6084 310.603 12.8454 310.826 13.0084C311.049 13.1713 311.31 13.2528 311.609 13.2528C311.83 13.2528 312.027 13.2076 312.202 13.117C312.38 13.0265 312.527 12.8952 312.642 12.7231C312.759 12.548 312.836 12.3383 312.872 12.0938H314.693C314.662 12.625 314.517 13.0929 314.258 13.4973C314.001 13.8988 313.647 14.2127 313.194 14.4391C312.741 14.6655 312.205 14.7787 311.587 14.7787ZM318.725 14.7787C318.01 14.7787 317.394 14.6338 316.878 14.344C316.365 14.0512 315.969 13.6377 315.692 13.1034C315.414 12.5662 315.275 11.9308 315.275 11.1973C315.275 10.4819 315.414 9.85411 315.692 9.31382C315.969 8.77352 316.36 8.35245 316.864 8.05061C317.371 7.74877 317.966 7.59785 318.648 7.59785C319.107 7.59785 319.534 7.6718 319.93 7.8197C320.328 7.96459 320.675 8.18342 320.971 8.47621C321.27 8.76899 321.502 9.13724 321.668 9.58094C321.834 10.0216 321.917 10.5378 321.917 11.1294V11.6591H316.045V10.4638H320.102C320.102 10.1861 320.041 9.94014 319.92 9.72583C319.8 9.51152 319.632 9.344 319.418 9.22326C319.207 9.09951 318.961 9.03763 318.68 9.03763C318.387 9.03763 318.128 9.10554 317.901 9.24137C317.678 9.37418 317.503 9.55378 317.376 9.78016C317.249 10.0035 317.184 10.2525 317.181 10.5272V11.6636C317.181 12.0077 317.245 12.3051 317.371 12.5556C317.501 12.8061 317.684 12.9993 317.919 13.1351C318.155 13.271 318.434 13.3389 318.757 13.3389C318.971 13.3389 319.167 13.3087 319.345 13.2483C319.524 13.1879 319.676 13.0974 319.803 12.9767C319.93 12.8559 320.026 12.708 320.093 12.533L321.876 12.6507C321.786 13.0793 321.6 13.4536 321.32 13.7735C321.042 14.0905 320.683 14.338 320.242 14.516C319.804 14.6911 319.299 14.7787 318.725 14.7787ZM328.591 9.6715L326.825 9.78016C326.795 9.62924 326.73 9.49341 326.63 9.37267C326.531 9.24892 326.399 9.15082 326.236 9.07838C326.076 9.00292 325.885 8.96519 325.661 8.96519C325.362 8.96519 325.11 9.02858 324.905 9.15535C324.7 9.2791 324.597 9.44512 324.597 9.65339C324.597 9.8194 324.664 9.95976 324.796 10.0745C324.929 10.1892 325.157 10.2812 325.48 10.3506L326.739 10.6042C327.415 10.743 327.919 10.9664 328.251 11.2743C328.583 11.5822 328.749 11.9866 328.749 12.4877C328.749 12.9435 328.615 13.3434 328.346 13.6875C328.08 14.0316 327.715 14.3002 327.25 14.4934C326.789 14.6836 326.256 14.7787 325.652 14.7787C324.732 14.7787 323.998 14.587 323.452 14.2036C322.908 13.8173 322.59 13.2921 322.496 12.628L324.393 12.5284C324.451 12.8091 324.59 13.0234 324.81 13.1713C325.03 13.3162 325.313 13.3887 325.657 13.3887C325.995 13.3887 326.266 13.3238 326.472 13.194C326.68 13.0612 326.786 12.8906 326.789 12.6824C326.786 12.5073 326.712 12.3639 326.567 12.2522C326.422 12.1375 326.198 12.05 325.897 11.9896L324.692 11.7497C324.013 11.6138 323.508 11.3784 323.176 11.0434C322.847 10.7083 322.682 10.2812 322.682 9.76205C322.682 9.31532 322.803 8.93048 323.044 8.60751C323.289 8.28454 323.631 8.03552 324.072 7.86045C324.516 7.68538 325.035 7.59785 325.63 7.59785C326.508 7.59785 327.199 7.78348 327.703 8.15474C328.21 8.52601 328.506 9.03159 328.591 9.6715ZM254.796 26.7877C254.216 26.7877 253.705 26.6413 253.261 26.3485C252.817 26.0527 252.47 25.6362 252.22 25.0989C251.969 24.5586 251.844 23.9202 251.844 23.1837C251.844 22.4533 251.969 21.8194 252.22 21.2821C252.47 20.7448 252.819 20.3298 253.266 20.037C253.712 19.7442 254.228 19.5978 254.814 19.5978C255.267 19.5978 255.625 19.6733 255.887 19.8242C256.153 19.9721 256.355 20.1412 256.494 20.3313C256.636 20.5185 256.746 20.6724 256.824 20.7931H256.915V17.3703H257.983V26.6428H256.951V25.5743H256.824C256.746 25.7011 256.634 25.8611 256.489 26.0542C256.344 26.2444 256.138 26.4149 255.869 26.5659C255.6 26.7138 255.243 26.7877 254.796 26.7877ZM254.941 25.8279C255.369 25.8279 255.732 25.7162 256.027 25.4928C256.323 25.2664 256.548 24.954 256.702 24.5556C256.856 24.1541 256.933 23.6908 256.933 23.1656C256.933 22.6464 256.858 22.1922 256.707 21.8028C256.556 21.4104 256.332 21.1055 256.037 20.8882C255.741 20.6679 255.375 20.5577 254.941 20.5577C254.488 20.5577 254.111 20.6739 253.809 20.9063C253.51 21.1357 253.285 21.4481 253.134 21.8435C252.986 22.2359 252.912 22.6766 252.912 23.1656C252.912 23.6606 252.988 24.1104 253.139 24.5148C253.293 24.9163 253.519 25.2362 253.818 25.4747C254.12 25.7101 254.494 25.8279 254.941 25.8279ZM259.717 26.6428V19.6884H260.786V26.6428H259.717ZM260.26 18.5293C260.052 18.5293 259.873 18.4584 259.722 18.3165C259.574 18.1747 259.5 18.0041 259.5 17.8049C259.5 17.6057 259.574 17.4352 259.722 17.2933C259.873 17.1514 260.052 17.0805 260.26 17.0805C260.469 17.0805 260.647 17.1514 260.795 17.2933C260.946 17.4352 261.021 17.6057 261.021 17.8049C261.021 18.0041 260.946 18.1747 260.795 18.3165C260.647 18.4584 260.469 18.5293 260.26 18.5293ZM267.297 21.2459L266.337 21.5176C266.277 21.3576 266.188 21.2021 266.07 21.0512C265.956 20.8973 265.799 20.7705 265.599 20.6709C265.4 20.5713 265.145 20.5215 264.834 20.5215C264.409 20.5215 264.054 20.6196 263.77 20.8158C263.49 21.009 263.349 21.255 263.349 21.5538C263.349 21.8194 263.446 22.0292 263.639 22.1831C263.832 22.3371 264.134 22.4653 264.544 22.568L265.577 22.8215C266.199 22.9724 266.662 23.2033 266.967 23.5142C267.272 23.8221 267.424 24.219 267.424 24.705C267.424 25.1034 267.309 25.4596 267.08 25.7735C266.854 26.0874 266.537 26.3349 266.129 26.516C265.722 26.6972 265.248 26.7877 264.707 26.7877C263.998 26.7877 263.411 26.6338 262.946 26.3259C262.481 26.018 262.187 25.5683 262.063 24.9767L263.078 24.7231C263.174 25.0974 263.357 25.3781 263.625 25.5652C263.897 25.7524 264.252 25.846 264.689 25.846C265.187 25.846 265.583 25.7403 265.876 25.529C266.171 25.3147 266.319 25.0582 266.319 24.7593C266.319 24.5179 266.235 24.3156 266.066 24.1526C265.897 23.9866 265.637 23.8629 265.287 23.7814L264.128 23.5097C263.491 23.3588 263.023 23.1249 262.724 22.8079C262.429 22.488 262.281 22.088 262.281 21.6081C262.281 21.2157 262.391 20.8686 262.611 20.5668C262.835 20.2649 263.138 20.028 263.521 19.8559C263.908 19.6839 264.345 19.5978 264.834 19.5978C265.522 19.5978 266.063 19.7488 266.455 20.0506C266.851 20.3525 267.131 20.7509 267.297 21.2459ZM271.486 26.7877C270.834 26.7877 270.273 26.6338 269.802 26.3259C269.331 26.018 268.969 25.5939 268.715 25.0536C268.462 24.5133 268.335 23.8961 268.335 23.2018C268.335 22.4955 268.465 21.8722 268.724 21.3319C268.987 20.7886 269.352 20.3645 269.82 20.0597C270.291 19.7518 270.84 19.5978 271.468 19.5978C271.957 19.5978 272.398 19.6884 272.79 19.8695C273.182 20.0506 273.504 20.3042 273.754 20.6301C274.005 20.9561 274.16 21.3365 274.221 21.7711H273.152C273.071 21.4542 272.89 21.1735 272.609 20.929C272.331 20.6815 271.957 20.5577 271.486 20.5577C271.07 20.5577 270.704 20.6664 270.39 20.8837C270.08 21.098 269.837 21.4013 269.661 21.7937C269.489 22.1831 269.403 22.6404 269.403 23.1656C269.403 23.7029 269.488 24.1707 269.657 24.5692C269.829 24.9676 270.07 25.277 270.381 25.4973C270.695 25.7177 271.064 25.8279 271.486 25.8279C271.764 25.8279 272.016 25.7796 272.242 25.683C272.469 25.5864 272.66 25.4475 272.817 25.2664C272.974 25.0853 273.086 24.868 273.152 24.6144H274.221C274.16 25.025 274.011 25.3947 273.773 25.7237C273.537 26.0497 273.225 26.3093 272.835 26.5025C272.449 26.6926 271.999 26.7877 271.486 26.7877ZM278.236 26.7877C277.609 26.7877 277.058 26.6383 276.584 26.3395C276.113 26.0406 275.745 25.6226 275.479 25.0853C275.217 24.548 275.085 23.9202 275.085 23.2018C275.085 22.4774 275.217 21.8451 275.479 21.3048C275.745 20.7645 276.113 20.3449 276.584 20.0461C277.058 19.7473 277.609 19.5978 278.236 19.5978C278.864 19.5978 279.414 19.7473 279.885 20.0461C280.358 20.3449 280.727 20.7645 280.989 21.3048C281.255 21.8451 281.388 22.4774 281.388 23.2018C281.388 23.9202 281.255 24.548 280.989 25.0853C280.727 25.6226 280.358 26.0406 279.885 26.3395C279.414 26.6383 278.864 26.7877 278.236 26.7877ZM278.236 25.8279C278.713 25.8279 279.106 25.7056 279.414 25.4611C279.722 25.2166 279.949 24.8952 280.097 24.4967C280.245 24.0983 280.319 23.6667 280.319 23.2018C280.319 22.737 280.245 22.3039 280.097 21.9024C279.949 21.501 279.722 21.1765 279.414 20.929C279.106 20.6815 278.713 20.5577 278.236 20.5577C277.76 20.5577 277.367 20.6815 277.059 20.929C276.751 21.1765 276.524 21.501 276.376 21.9024C276.228 22.3039 276.154 22.737 276.154 23.2018C276.154 23.6667 276.228 24.0983 276.376 24.4967C276.524 24.8952 276.751 25.2166 277.059 25.4611C277.367 25.7056 277.76 25.8279 278.236 25.8279ZM288.085 19.6884L285.513 26.6428H284.427L281.855 19.6884H283.014L284.934 25.2302H285.006L286.926 19.6884H288.085ZM291.79 26.7877C291.12 26.7877 290.542 26.6398 290.056 26.344C289.573 26.0452 289.201 25.6286 288.938 25.0944C288.678 24.5571 288.549 23.9323 288.549 23.2199C288.549 22.5076 288.678 21.8798 288.938 21.3365C289.201 20.7901 289.566 20.3645 290.034 20.0597C290.505 19.7518 291.054 19.5978 291.682 19.5978C292.044 19.5978 292.402 19.6582 292.755 19.779C293.108 19.8997 293.429 20.0959 293.719 20.3675C294.009 20.6362 294.24 20.9924 294.412 21.4361C294.584 21.8798 294.67 22.4261 294.67 23.0751V23.5278H289.309V22.6042H293.583C293.583 22.2118 293.505 21.8617 293.348 21.5538C293.194 21.2459 292.974 21.0029 292.687 20.8248C292.403 20.6467 292.068 20.5577 291.682 20.5577C291.256 20.5577 290.888 20.6633 290.577 20.8746C290.269 21.0829 290.032 21.3546 289.866 21.6896C289.7 22.0247 289.617 22.3838 289.617 22.7672V23.3829C289.617 23.9081 289.708 24.3534 289.889 24.7186C290.073 25.0808 290.328 25.357 290.654 25.5471C290.98 25.7343 291.359 25.8279 291.79 25.8279C292.071 25.8279 292.325 25.7886 292.551 25.7101C292.78 25.6286 292.978 25.5079 293.144 25.3479C293.31 25.1849 293.439 24.9827 293.529 24.7412L294.561 25.031C294.453 25.3811 294.27 25.689 294.014 25.9546C293.757 26.2172 293.44 26.4225 293.063 26.5704C292.685 26.7153 292.261 26.7877 291.79 26.7877ZM295.924 26.6428V19.6884H296.956V20.7388H297.029C297.155 20.3947 297.385 20.1155 297.717 19.9012C298.049 19.6869 298.423 19.5797 298.84 19.5797C298.918 19.5797 299.016 19.5812 299.134 19.5843C299.252 19.5873 299.341 19.5918 299.401 19.5978V20.6845C299.365 20.6754 299.282 20.6618 299.152 20.6437C299.025 20.6226 298.891 20.612 298.749 20.612C298.411 20.612 298.109 20.683 297.844 20.8248C297.581 20.9637 297.373 21.1569 297.219 21.4044C297.068 21.6489 296.992 21.9281 296.992 22.242V26.6428H295.924ZM303 26.7877C302.33 26.7877 301.752 26.6398 301.266 26.344C300.783 26.0452 300.41 25.6286 300.148 25.0944C299.888 24.5571 299.758 23.9323 299.758 23.2199C299.758 22.5076 299.888 21.8798 300.148 21.3365C300.41 20.7901 300.776 20.3645 301.244 20.0597C301.714 19.7518 302.264 19.5978 302.892 19.5978C303.254 19.5978 303.611 19.6582 303.965 19.779C304.318 19.8997 304.639 20.0959 304.929 20.3675C305.219 20.6362 305.45 20.9924 305.622 21.4361C305.794 21.8798 305.88 22.4261 305.88 23.0751V23.5278H300.519V22.6042H304.793C304.793 22.2118 304.715 21.8617 304.558 21.5538C304.404 21.2459 304.183 21.0029 303.897 20.8248C303.613 20.6467 303.278 20.5577 302.892 20.5577C302.466 20.5577 302.098 20.6633 301.787 20.8746C301.479 21.0829 301.242 21.3546 301.076 21.6896C300.91 22.0247 300.827 22.3838 300.827 22.7672V23.3829C300.827 23.9081 300.918 24.3534 301.099 24.7186C301.283 25.0808 301.538 25.357 301.864 25.5471C302.19 25.7343 302.569 25.8279 303 25.8279C303.281 25.8279 303.534 25.7886 303.761 25.7101C303.99 25.6286 304.188 25.5079 304.354 25.3479C304.52 25.1849 304.648 24.9827 304.739 24.7412L305.771 25.031C305.662 25.3811 305.48 25.689 305.223 25.9546C304.967 26.2172 304.65 26.4225 304.272 26.5704C303.895 26.7153 303.471 26.7877 303 26.7877ZM309.76 26.7877C309.18 26.7877 308.669 26.6413 308.225 26.3485C307.781 26.0527 307.434 25.6362 307.183 25.0989C306.933 24.5586 306.808 23.9202 306.808 23.1837C306.808 22.4533 306.933 21.8194 307.183 21.2821C307.434 20.7448 307.783 20.3298 308.229 20.037C308.676 19.7442 309.192 19.5978 309.778 19.5978C310.231 19.5978 310.588 19.6733 310.851 19.8242C311.116 19.9721 311.319 20.1412 311.458 20.3313C311.599 20.5185 311.71 20.6724 311.788 20.7931H311.879V17.3703H312.947V26.6428H311.915V25.5743H311.788C311.71 25.7011 311.598 25.8611 311.453 26.0542C311.308 26.2444 311.101 26.4149 310.833 26.5659C310.564 26.7138 310.206 26.7877 309.76 26.7877ZM309.905 25.8279C310.333 25.8279 310.695 25.7162 310.991 25.4928C311.287 25.2664 311.512 24.954 311.666 24.5556C311.82 24.1541 311.897 23.6908 311.897 23.1656C311.897 22.6464 311.821 22.1922 311.67 21.8028C311.519 21.4104 311.296 21.1055 311 20.8882C310.704 20.6679 310.339 20.5577 309.905 20.5577C309.452 20.5577 309.074 20.6739 308.773 20.9063C308.474 21.1357 308.249 21.4481 308.098 21.8435C307.95 22.2359 307.876 22.6766 307.876 23.1656C307.876 23.6606 307.952 24.1104 308.103 24.5148C308.257 24.9163 308.483 25.2362 308.782 25.4747C309.084 25.7101 309.458 25.8279 309.905 25.8279Z" fill="#6A3D9A"/>
<path d="M255.403 43.0012C254.705 43.0012 254.085 42.888 253.542 42.6617C253.002 42.4323 252.577 42.1198 252.27 41.7244C251.962 41.329 251.808 40.8808 251.808 40.3797C251.808 39.9934 251.895 39.6387 252.07 39.3157C252.248 38.9898 252.49 38.7196 252.795 38.5053C253.1 38.288 253.441 38.1491 253.818 38.0888V38.0254C253.323 37.9258 252.922 37.6858 252.614 37.3055C252.306 36.9221 252.152 36.4769 252.152 35.9698C252.152 35.4899 252.292 35.0628 252.573 34.6885C252.854 34.3112 253.238 34.0154 253.727 33.8011C254.219 33.5838 254.778 33.4751 255.403 33.4751C256.027 33.4751 256.584 33.5838 257.073 33.8011C257.565 34.0184 257.952 34.3157 258.232 34.693C258.513 35.0673 258.655 35.4929 258.658 35.9698C258.655 36.4799 258.498 36.9252 258.187 37.3055C257.876 37.6858 257.478 37.9258 256.992 38.0254V38.0888C257.363 38.1491 257.7 38.288 258.002 38.5053C258.306 38.7196 258.548 38.9898 258.726 39.3157C258.907 39.6387 258.999 39.9934 259.002 40.3797C258.999 40.8808 258.844 41.329 258.536 41.7244C258.228 42.1198 257.802 42.4323 257.259 42.6617C256.719 42.888 256.1 43.0012 255.403 43.0012ZM255.403 41.5614C255.714 41.5614 255.985 41.5056 256.218 41.3939C256.45 41.2792 256.631 41.1223 256.761 40.923C256.894 40.7208 256.96 40.4884 256.96 40.2258C256.96 39.9572 256.892 39.7202 256.756 39.515C256.621 39.3067 256.436 39.1437 256.204 39.026C255.972 38.9052 255.704 38.8449 255.403 38.8449C255.104 38.8449 254.837 38.9052 254.601 39.026C254.366 39.1437 254.18 39.3067 254.044 39.515C253.912 39.7202 253.845 39.9572 253.845 40.2258C253.845 40.4884 253.91 40.7208 254.04 40.923C254.17 41.1223 254.352 41.2792 254.588 41.3939C254.823 41.5056 255.095 41.5614 255.403 41.5614ZM255.403 37.4187C255.662 37.4187 255.893 37.3658 256.095 37.2602C256.298 37.1546 256.456 37.0082 256.571 36.821C256.685 36.6339 256.743 36.4181 256.743 36.1736C256.743 35.9321 256.685 35.7208 256.571 35.5397C256.456 35.3556 256.299 35.2122 256.1 35.1096C255.901 35.0039 255.668 34.9511 255.403 34.9511C255.14 34.9511 254.908 35.0039 254.705 35.1096C254.503 35.2122 254.345 35.3556 254.23 35.5397C254.118 35.7208 254.062 35.9321 254.062 36.1736C254.062 36.4181 254.12 36.6339 254.235 36.821C254.349 37.0082 254.508 37.1546 254.71 37.2602C254.912 37.3658 255.143 37.4187 255.403 37.4187ZM260.885 42.9922C260.586 42.9922 260.33 42.8865 260.116 42.6752C259.904 42.4609 259.799 42.2044 259.799 41.9055C259.799 41.6097 259.904 41.3562 260.116 41.1449C260.33 40.9336 260.586 40.828 260.885 40.828C261.175 40.828 261.429 40.9336 261.646 41.1449C261.863 41.3562 261.972 41.6097 261.972 41.9055C261.972 42.1048 261.921 42.2874 261.818 42.4534C261.718 42.6164 261.587 42.7477 261.424 42.8473C261.261 42.9439 261.081 42.9922 260.885 42.9922ZM266.346 33.4751C266.823 33.4751 267.282 33.5551 267.723 33.7151C268.167 33.8751 268.562 34.1301 268.909 34.4802C269.259 34.8304 269.535 35.2952 269.738 35.8748C269.943 36.4513 270.047 37.1591 270.05 37.9982C270.05 38.786 269.961 39.4893 269.783 40.1081C269.608 40.7238 269.356 41.2475 269.027 41.6792C268.698 42.1108 268.301 42.4398 267.836 42.6662C267.371 42.8895 266.852 43.0012 266.279 43.0012C265.66 43.0012 265.113 42.882 264.64 42.6435C264.166 42.4021 263.784 42.0746 263.494 41.661C263.207 41.2445 263.034 40.7767 262.973 40.2575H264.907C264.982 40.5955 265.141 40.8582 265.382 41.0453C265.624 41.2294 265.922 41.3215 266.279 41.3215C266.882 41.3215 267.341 41.0589 267.655 40.5337C267.969 40.0054 268.127 39.2825 268.13 38.3649H268.067C267.928 38.6366 267.741 38.8705 267.506 39.0667C267.27 39.2599 267 39.4093 266.695 39.515C266.393 39.6206 266.072 39.6734 265.731 39.6734C265.184 39.6734 264.697 39.5451 264.268 39.2886C263.84 39.032 263.502 38.6789 263.254 38.2291C263.007 37.7794 262.883 37.2662 262.883 36.6897C262.88 36.0679 263.023 35.5141 263.313 35.0281C263.603 34.5421 264.007 34.1618 264.526 33.8871C265.049 33.6094 265.655 33.4721 266.346 33.4751ZM266.36 35.0145C266.055 35.0145 265.784 35.0869 265.545 35.2318C265.31 35.3767 265.122 35.5714 264.984 35.8159C264.848 36.0604 264.781 36.3336 264.784 36.6354C264.784 36.9403 264.851 37.2149 264.984 37.4594C265.119 37.7009 265.304 37.8941 265.536 38.039C265.771 38.1808 266.04 38.2518 266.342 38.2518C266.568 38.2518 266.778 38.2095 266.971 38.125C267.164 38.0405 267.332 37.9243 267.474 37.7764C267.619 37.6254 267.732 37.4519 267.813 37.2557C267.895 37.0595 267.936 36.8512 267.936 36.6309C267.933 36.3381 267.863 36.0694 267.727 35.8249C267.592 35.5805 267.404 35.3843 267.166 35.2364C266.927 35.0885 266.659 35.0145 266.36 35.0145ZM275.382 40.8732L275.386 38.5596H275.667L277.895 35.92H280.109L277.116 39.4154H276.659L275.382 40.8732ZM273.634 42.8745V33.6019H275.563V42.8745H273.634ZM277.981 42.8745L275.934 39.8455L277.22 38.4827L280.24 42.8745H277.981ZM280.683 42.8745V35.92H282.522V37.147H282.603C282.748 36.7395 282.989 36.4181 283.328 36.1826C283.666 35.9472 284.07 35.8295 284.541 35.8295C285.018 35.8295 285.424 35.9487 285.759 36.1872C286.094 36.4226 286.317 36.7425 286.429 37.147H286.501C286.643 36.7486 286.9 36.4301 287.271 36.1917C287.645 35.9502 288.088 35.8295 288.598 35.8295C289.247 35.8295 289.773 36.0362 290.178 36.4498C290.585 36.8603 290.789 37.4428 290.789 38.1974V42.8745H288.865V38.5777C288.865 38.1914 288.762 37.9016 288.557 37.7084C288.352 37.5153 288.095 37.4187 287.787 37.4187C287.437 37.4187 287.164 37.5304 286.968 37.7537C286.772 37.9741 286.673 38.2653 286.673 38.6275V42.8745H284.804V38.537C284.804 38.1959 284.705 37.9243 284.509 37.722C284.316 37.5198 284.061 37.4187 283.744 37.4187C283.53 37.4187 283.337 37.473 283.165 37.5817C282.995 37.6873 282.861 37.8367 282.762 38.0299C282.662 38.2201 282.612 38.4434 282.612 38.7V42.8745H280.683ZM255.194 47.92V48.8256H251.59V47.92H255.194ZM252.641 46.2539H253.709V52.8823C253.709 53.1841 253.753 53.4105 253.841 53.5614C253.931 53.7093 254.046 53.809 254.185 53.8603C254.327 53.9086 254.476 53.9327 254.633 53.9327C254.751 53.9327 254.847 53.9267 254.923 53.9146C254.998 53.8995 255.059 53.8874 255.104 53.8784L255.321 54.8382C255.249 54.8654 255.148 54.8926 255.018 54.9197C254.888 54.9499 254.724 54.965 254.524 54.965C254.222 54.965 253.927 54.9001 253.637 54.7703C253.35 54.6405 253.112 54.4428 252.922 54.1772C252.734 53.9116 252.641 53.5765 252.641 53.1721V46.2539ZM256.43 54.8745V47.92H257.462V48.9704H257.535C257.662 48.6263 257.891 48.3471 258.223 48.1328C258.555 47.9185 258.929 47.8114 259.346 47.8114C259.424 47.8114 259.522 47.8129 259.64 47.8159C259.758 47.8189 259.847 47.8234 259.907 47.8295V48.9161C259.871 48.907 259.788 48.8935 259.658 48.8754C259.532 48.8542 259.397 48.8437 259.255 48.8437C258.917 48.8437 258.615 48.9146 258.35 49.0565C258.087 49.1953 257.879 49.3885 257.725 49.636C257.574 49.8805 257.499 50.1597 257.499 50.4736V54.8745H256.43ZM262.849 55.0374C262.408 55.0374 262.008 54.9544 261.649 54.7884C261.29 54.6194 261.005 54.3764 260.793 54.0595C260.582 53.7395 260.476 53.3532 260.476 52.9004C260.476 52.502 260.555 52.179 260.712 51.9315C260.869 51.681 261.079 51.4848 261.341 51.3429C261.604 51.201 261.894 51.0954 262.21 51.026C262.53 50.9535 262.852 50.8962 263.175 50.8539C263.597 50.7996 263.94 50.7588 264.203 50.7317C264.468 50.7015 264.661 50.6517 264.782 50.5823C264.906 50.5128 264.968 50.3921 264.968 50.2201V50.1838C264.968 49.7371 264.846 49.39 264.601 49.1425C264.36 48.895 263.993 48.7712 263.501 48.7712C262.991 48.7712 262.591 48.8829 262.301 49.1063C262.011 49.3296 261.808 49.5681 261.69 49.8216L260.676 49.4594C260.857 49.0368 261.098 48.7078 261.4 48.4724C261.705 48.2339 262.037 48.0679 262.396 47.9744C262.758 47.8778 263.114 47.8295 263.465 47.8295C263.688 47.8295 263.945 47.8566 264.234 47.911C264.527 47.9623 264.809 48.0694 265.081 48.2324C265.356 48.3954 265.584 48.6414 265.765 48.9704C265.946 49.2994 266.036 49.7401 266.036 50.2925V54.8745H264.968V53.9327H264.913C264.841 54.0836 264.72 54.2451 264.551 54.4172C264.382 54.5892 264.157 54.7356 263.877 54.8563C263.596 54.9771 263.253 55.0374 262.849 55.0374ZM263.012 54.0776C263.434 54.0776 263.791 53.9946 264.08 53.8286C264.373 53.6626 264.593 53.4483 264.741 53.1856C264.892 52.923 264.968 52.6469 264.968 52.3571V51.3791C264.923 51.4335 264.823 51.4833 264.669 51.5285C264.518 51.5708 264.343 51.6085 264.144 51.6417C263.948 51.6719 263.756 51.6991 263.569 51.7232C263.385 51.7444 263.235 51.7625 263.121 51.7776C262.843 51.8138 262.583 51.8726 262.342 51.9541C262.103 52.0326 261.91 52.1518 261.762 52.3118C261.617 52.4688 261.545 52.6831 261.545 52.9547C261.545 53.326 261.682 53.6067 261.957 53.7969C262.235 53.984 262.586 54.0776 263.012 54.0776ZM273.053 47.92L270.481 54.8745H269.394L266.823 47.92H267.982L269.901 53.4618H269.974L271.894 47.92H273.053ZM276.758 55.0193C276.088 55.0193 275.51 54.8714 275.024 54.5756C274.541 54.2768 274.168 53.8603 273.906 53.326C273.646 52.7887 273.516 52.1639 273.516 51.4516C273.516 50.7392 273.646 50.1114 273.906 49.5681C274.168 49.0217 274.534 48.5962 275.002 48.2913C275.472 47.9834 276.022 47.8295 276.65 47.8295C277.012 47.8295 277.369 47.8898 277.723 48.0106C278.076 48.1313 278.397 48.3275 278.687 48.5992C278.977 48.8678 279.208 49.224 279.38 49.6677C279.552 50.1114 279.638 50.6577 279.638 51.3067V51.7594H274.277V50.8358H278.551C278.551 50.4434 278.473 50.0933 278.316 49.7854C278.162 49.4775 277.941 49.2345 277.655 49.0565C277.371 48.8784 277.036 48.7893 276.65 48.7893C276.224 48.7893 275.856 48.895 275.545 49.1063C275.237 49.3145 275 49.5862 274.834 49.9212C274.668 50.2563 274.585 50.6155 274.585 50.9988V51.6146C274.585 52.1398 274.676 52.585 274.857 52.9502C275.041 53.3124 275.296 53.5886 275.622 53.7788C275.948 53.9659 276.327 54.0595 276.758 54.0595C277.039 54.0595 277.292 54.0202 277.519 53.9418C277.748 53.8603 277.946 53.7395 278.112 53.5796C278.278 53.4166 278.406 53.2143 278.497 52.9729L279.529 53.2626C279.42 53.6128 279.238 53.9206 278.981 54.1863C278.725 54.4489 278.408 54.6541 278.03 54.802C277.653 54.9469 277.229 55.0193 276.758 55.0193ZM281.96 45.6019V54.8745H280.892V45.6019H281.96ZM284.614 45.6019V54.8745H283.546V45.6019H284.614ZM289.115 55.0193C288.445 55.0193 287.867 54.8714 287.381 54.5756C286.898 54.2768 286.526 53.8603 286.263 53.326C286.003 52.7887 285.874 52.1639 285.874 51.4516C285.874 50.7392 286.003 50.1114 286.263 49.5681C286.526 49.0217 286.891 48.5962 287.359 48.2913C287.83 47.9834 288.379 47.8295 289.007 47.8295C289.369 47.8295 289.727 47.8898 290.08 48.0106C290.433 48.1313 290.754 48.3275 291.044 48.5992C291.334 48.8678 291.565 49.224 291.737 49.6677C291.909 50.1114 291.995 50.6577 291.995 51.3067V51.7594H286.634V50.8358H290.908C290.908 50.4434 290.83 50.0933 290.673 49.7854C290.519 49.4775 290.299 49.2345 290.012 49.0565C289.728 48.8784 289.393 48.7893 289.007 48.7893C288.581 48.7893 288.213 48.895 287.902 49.1063C287.594 49.3145 287.357 49.5862 287.191 49.9212C287.025 50.2563 286.942 50.6155 286.942 50.9988V51.6146C286.942 52.1398 287.033 52.585 287.214 52.9502C287.398 53.3124 287.653 53.5886 287.979 53.7788C288.305 53.9659 288.684 54.0595 289.115 54.0595C289.396 54.0595 289.65 54.0202 289.876 53.9418C290.106 53.8603 290.303 53.7395 290.469 53.5796C290.635 53.4166 290.764 53.2143 290.854 52.9729L291.886 53.2626C291.778 53.6128 291.595 53.9206 291.339 54.1863C291.082 54.4489 290.765 54.6541 290.388 54.802C290.01 54.9469 289.586 55.0193 289.115 55.0193ZM295.875 55.0193C295.295 55.0193 294.784 54.8729 294.34 54.5802C293.896 54.2844 293.549 53.8678 293.299 53.3305C293.048 52.7902 292.923 52.1518 292.923 51.4154C292.923 50.6849 293.048 50.051 293.299 49.5138C293.549 48.9765 293.898 48.5614 294.345 48.2687C294.791 47.9759 295.307 47.8295 295.893 47.8295C296.346 47.8295 296.703 47.9049 296.966 48.0559C297.232 48.2038 297.434 48.3728 297.573 48.563C297.715 48.7501 297.825 48.904 297.903 49.0248H297.994V45.6019H299.062V54.8745H298.03V53.8059H297.903C297.825 53.9327 297.713 54.0927 297.568 54.2859C297.423 54.476 297.217 54.6466 296.948 54.7975C296.679 54.9454 296.322 55.0193 295.875 55.0193ZM296.02 54.0595C296.448 54.0595 296.811 53.9478 297.106 53.7244C297.402 53.4981 297.627 53.1856 297.781 52.7872C297.935 52.3858 298.012 51.9224 298.012 51.3972C298.012 50.8781 297.936 50.4238 297.786 50.0344C297.635 49.642 297.411 49.3372 297.115 49.1198C296.82 48.8995 296.454 48.7893 296.02 48.7893C295.567 48.7893 295.19 48.9055 294.888 49.138C294.589 49.3674 294.364 49.6798 294.213 50.0752C294.065 50.4676 293.991 50.9083 293.991 51.3972C293.991 51.8923 294.067 52.342 294.218 52.7465C294.372 53.1479 294.598 53.4679 294.897 53.7063C295.199 53.9418 295.573 54.0595 296.02 54.0595Z" fill="#FF9800"/>
<path d="M222.839 137.45C222.694 137.45 222.563 137.438 222.444 137.414C222.326 137.393 222.237 137.369 222.179 137.343L222.412 136.551C222.589 136.598 222.746 136.619 222.884 136.612C223.022 136.606 223.144 136.554 223.249 136.457C223.357 136.36 223.452 136.201 223.534 135.982L223.654 135.652L221.836 130.62H222.871L224.129 134.475H224.181L225.439 130.62H226.477L224.43 136.25C224.335 136.509 224.214 136.728 224.068 136.907C223.921 137.088 223.746 137.223 223.544 137.314C223.341 137.405 223.106 137.45 222.839 137.45ZM228.986 135.687C228.497 135.687 228.075 135.583 227.722 135.374C227.37 135.162 227.098 134.866 226.907 134.484C226.717 134.1 226.622 133.651 226.622 133.136C226.622 132.627 226.717 132.178 226.907 131.79C227.098 131.402 227.366 131.099 227.709 130.882C228.054 130.664 228.457 130.555 228.918 130.555C229.198 130.555 229.47 130.601 229.733 130.694C229.996 130.787 230.232 130.932 230.441 131.131C230.651 131.329 230.815 131.587 230.936 131.903C231.057 132.218 231.117 132.601 231.117 133.052V133.394H227.169V132.67H230.17C230.17 132.416 230.118 132.19 230.014 131.994C229.911 131.796 229.765 131.639 229.578 131.525C229.392 131.411 229.175 131.354 228.925 131.354C228.653 131.354 228.416 131.421 228.213 131.554C228.013 131.686 227.857 131.858 227.747 132.072C227.64 132.283 227.586 132.513 227.586 132.761V133.326C227.586 133.658 227.644 133.941 227.76 134.174C227.879 134.407 228.044 134.584 228.255 134.707C228.466 134.828 228.713 134.888 228.996 134.888C229.179 134.888 229.346 134.863 229.497 134.811C229.648 134.757 229.778 134.677 229.888 134.572C229.998 134.466 230.082 134.335 230.141 134.18L231.056 134.345C230.983 134.615 230.851 134.851 230.661 135.053C230.474 135.254 230.238 135.41 229.953 135.522C229.671 135.632 229.348 135.687 228.986 135.687ZM235.541 131.832L234.665 131.988C234.628 131.875 234.57 131.769 234.49 131.667C234.412 131.566 234.307 131.483 234.173 131.418C234.039 131.354 233.872 131.321 233.672 131.321C233.398 131.321 233.169 131.383 232.986 131.506C232.803 131.626 232.711 131.783 232.711 131.975C232.711 132.141 232.773 132.274 232.896 132.376C233.018 132.477 233.217 132.56 233.491 132.625L234.28 132.806C234.737 132.911 235.077 133.074 235.302 133.294C235.526 133.514 235.638 133.8 235.638 134.151C235.638 134.449 235.552 134.714 235.379 134.947C235.209 135.177 234.971 135.358 234.665 135.49C234.361 135.622 234.008 135.687 233.607 135.687C233.051 135.687 232.597 135.569 232.246 135.332C231.894 135.092 231.678 134.753 231.599 134.313L232.533 134.171C232.592 134.414 232.711 134.599 232.892 134.724C233.073 134.846 233.309 134.908 233.601 134.908C233.917 134.908 234.171 134.842 234.361 134.711C234.55 134.577 234.645 134.414 234.645 134.222C234.645 134.067 234.587 133.937 234.471 133.831C234.356 133.725 234.181 133.646 233.943 133.592L233.103 133.407C232.639 133.302 232.296 133.133 232.074 132.903C231.854 132.672 231.744 132.38 231.744 132.026C231.744 131.733 231.826 131.477 231.99 131.257C232.154 131.037 232.38 130.865 232.669 130.742C232.958 130.617 233.289 130.555 233.662 130.555C234.199 130.555 234.621 130.671 234.93 130.904C235.238 131.135 235.442 131.444 235.541 131.832ZM238.648 130.62V131.396H235.935V130.62H238.648ZM236.663 129.429H237.63V134.128C237.63 134.316 237.658 134.457 237.714 134.552C237.77 134.645 237.842 134.708 237.93 134.743C238.021 134.775 238.119 134.791 238.225 134.791C238.302 134.791 238.37 134.786 238.428 134.775C238.487 134.765 238.532 134.756 238.564 134.749L238.739 135.548C238.683 135.57 238.603 135.591 238.5 135.613C238.396 135.637 238.267 135.65 238.112 135.652C237.857 135.656 237.62 135.611 237.4 135.516C237.18 135.421 237.002 135.274 236.866 135.076C236.731 134.878 236.663 134.629 236.663 134.329V129.429ZM241.434 135.687C240.945 135.687 240.523 135.583 240.17 135.374C239.818 135.162 239.546 134.866 239.355 134.484C239.165 134.1 239.07 133.651 239.07 133.136C239.07 132.627 239.165 132.178 239.355 131.79C239.546 131.402 239.814 131.099 240.157 130.882C240.502 130.664 240.905 130.555 241.366 130.555C241.646 130.555 241.918 130.601 242.181 130.694C242.444 130.787 242.68 130.932 242.889 131.131C243.098 131.329 243.263 131.587 243.384 131.903C243.505 132.218 243.565 132.601 243.565 133.052V133.394H239.617V132.67H242.618C242.618 132.416 242.566 132.19 242.462 131.994C242.359 131.796 242.213 131.639 242.026 131.525C241.84 131.411 241.623 131.354 241.373 131.354C241.101 131.354 240.864 131.421 240.661 131.554C240.461 131.686 240.305 131.858 240.195 132.072C240.088 132.283 240.034 132.513 240.034 132.761V133.326C240.034 133.658 240.092 133.941 240.208 134.174C240.327 134.407 240.492 134.584 240.703 134.707C240.914 134.828 241.161 134.888 241.444 134.888C241.627 134.888 241.794 134.863 241.945 134.811C242.096 134.757 242.226 134.677 242.336 134.572C242.446 134.466 242.53 134.335 242.589 134.18L243.504 134.345C243.43 134.615 243.299 134.851 243.109 135.053C242.922 135.254 242.686 135.41 242.401 135.522C242.119 135.632 241.796 135.687 241.434 135.687ZM244.267 135.587V130.62H245.201V131.409H245.253C245.343 131.141 245.503 130.931 245.732 130.778C245.962 130.623 246.223 130.545 246.514 130.545C246.575 130.545 246.646 130.547 246.728 130.552C246.812 130.556 246.877 130.561 246.925 130.568V131.493C246.886 131.482 246.817 131.47 246.718 131.457C246.619 131.442 246.52 131.435 246.42 131.435C246.192 131.435 245.988 131.483 245.809 131.58C245.632 131.675 245.492 131.808 245.389 131.978C245.285 132.146 245.234 132.338 245.234 132.554V135.587H244.267ZM249.072 135.684C248.671 135.684 248.313 135.582 247.998 135.377C247.686 135.17 247.44 134.876 247.261 134.494C247.084 134.11 246.996 133.65 246.996 133.113C246.996 132.576 247.085 132.117 247.264 131.735C247.445 131.354 247.693 131.062 248.008 130.859C248.323 130.656 248.679 130.555 249.078 130.555C249.387 130.555 249.635 130.607 249.822 130.71C250.012 130.811 250.158 130.93 250.262 131.066C250.368 131.202 250.45 131.321 250.508 131.425H250.566V128.964H251.533V135.587H250.589V134.814H250.508C250.45 134.92 250.365 135.04 250.255 135.176C250.148 135.312 249.999 135.431 249.809 135.532C249.619 135.633 249.374 135.684 249.072 135.684ZM249.285 134.859C249.563 134.859 249.798 134.786 249.99 134.639C250.184 134.491 250.331 134.285 250.43 134.022C250.531 133.759 250.582 133.453 250.582 133.103C250.582 132.758 250.533 132.457 250.433 132.198C250.334 131.939 250.189 131.737 249.997 131.593C249.805 131.449 249.568 131.376 249.285 131.376C248.994 131.376 248.752 131.452 248.558 131.603C248.364 131.754 248.217 131.96 248.118 132.22C248.021 132.481 247.972 132.776 247.972 133.103C247.972 133.435 248.022 133.734 248.121 133.999C248.22 134.264 248.367 134.475 248.561 134.63C248.757 134.783 248.999 134.859 249.285 134.859ZM253.987 135.697C253.672 135.697 253.388 135.639 253.133 135.522C252.879 135.404 252.677 135.232 252.529 135.008C252.382 134.784 252.309 134.509 252.309 134.183C252.309 133.903 252.363 133.673 252.47 133.491C252.578 133.31 252.724 133.167 252.907 133.061C253.09 132.956 253.295 132.876 253.521 132.822C253.748 132.768 253.978 132.727 254.213 132.699C254.511 132.665 254.752 132.637 254.938 132.615C255.123 132.591 255.258 132.554 255.342 132.502C255.426 132.45 255.468 132.366 255.468 132.25V132.227C255.468 131.944 255.388 131.726 255.229 131.57C255.072 131.415 254.837 131.338 254.524 131.338C254.198 131.338 253.942 131.41 253.754 131.554C253.569 131.697 253.441 131.855 253.369 132.03L252.461 131.823C252.568 131.521 252.726 131.277 252.933 131.092C253.142 130.904 253.382 130.768 253.654 130.684C253.926 130.598 254.211 130.555 254.511 130.555C254.709 130.555 254.92 130.579 255.142 130.626C255.366 130.671 255.575 130.755 255.769 130.878C255.965 131.001 256.126 131.177 256.251 131.405C256.376 131.632 256.438 131.926 256.438 132.288V135.587H255.494V134.908H255.455C255.393 135.033 255.299 135.156 255.174 135.277C255.049 135.397 254.888 135.498 254.692 135.577C254.496 135.657 254.261 135.697 253.987 135.697ZM254.197 134.921C254.465 134.921 254.693 134.868 254.883 134.762C255.075 134.657 255.22 134.519 255.319 134.348C255.421 134.176 255.471 133.992 255.471 133.795V133.155C255.437 133.19 255.37 133.222 255.271 133.252C255.174 133.28 255.063 133.305 254.938 133.326C254.813 133.346 254.691 133.364 254.572 133.381C254.454 133.397 254.355 133.409 254.275 133.42C254.087 133.444 253.916 133.484 253.761 133.54C253.608 133.596 253.485 133.677 253.392 133.782C253.301 133.886 253.256 134.024 253.256 134.196C253.256 134.436 253.345 134.617 253.521 134.74C253.698 134.86 253.923 134.921 254.197 134.921ZM257.788 137.45C257.644 137.45 257.512 137.438 257.394 137.414C257.275 137.393 257.187 137.369 257.128 137.343L257.361 136.551C257.538 136.598 257.695 136.619 257.833 136.612C257.971 136.606 258.093 136.554 258.199 136.457C258.307 136.36 258.402 136.201 258.484 135.982L258.603 135.652L256.786 130.62H257.821L259.079 134.475H259.13L260.388 130.62H261.426L259.379 136.25C259.284 136.509 259.164 136.728 259.017 136.907C258.871 137.088 258.696 137.223 258.493 137.314C258.291 137.405 258.056 137.45 257.788 137.45Z" fill="#3C3C43" fill-opacity="0.6"/>
<path d="M158.603 130.62V131.396H155.889V130.62H158.603ZM156.617 129.429H157.584V134.128C157.584 134.316 157.612 134.457 157.668 134.552C157.724 134.645 157.796 134.708 157.885 134.743C157.975 134.775 158.073 134.791 158.179 134.791C158.257 134.791 158.325 134.786 158.383 134.775C158.441 134.765 158.486 134.756 158.519 134.749L158.693 135.548C158.637 135.57 158.558 135.591 158.454 135.613C158.351 135.637 158.221 135.65 158.066 135.652C157.812 135.656 157.574 135.611 157.354 135.516C157.135 135.421 156.957 135.274 156.821 135.076C156.685 134.878 156.617 134.629 156.617 134.329V129.429ZM160.375 132.638V135.587H159.408V128.964H160.362V131.428H160.423C160.54 131.161 160.717 130.948 160.957 130.791C161.196 130.634 161.509 130.555 161.895 130.555C162.235 130.555 162.533 130.625 162.787 130.765C163.044 130.905 163.242 131.114 163.382 131.393C163.524 131.668 163.596 132.013 163.596 132.427V135.587H162.629V132.544C162.629 132.179 162.535 131.897 162.347 131.697C162.16 131.494 161.899 131.393 161.565 131.393C161.336 131.393 161.131 131.441 160.95 131.538C160.771 131.635 160.63 131.777 160.527 131.965C160.425 132.15 160.375 132.375 160.375 132.638ZM167.661 133.527V130.62H168.631V135.587H167.681V134.727H167.629C167.515 134.992 167.331 135.213 167.079 135.39C166.829 135.564 166.517 135.652 166.144 135.652C165.825 135.652 165.543 135.582 165.297 135.442C165.053 135.299 164.862 135.089 164.721 134.811C164.583 134.533 164.514 134.189 164.514 133.779V130.62H165.481V133.663C165.481 134.001 165.575 134.271 165.763 134.471C165.95 134.672 166.194 134.772 166.494 134.772C166.675 134.772 166.855 134.727 167.034 134.636C167.215 134.546 167.365 134.409 167.483 134.226C167.604 134.042 167.663 133.809 167.661 133.527ZM170.196 135.648C170.019 135.648 169.867 135.586 169.74 135.461C169.613 135.334 169.549 135.181 169.549 135.002C169.549 134.825 169.613 134.674 169.74 134.549C169.867 134.422 170.019 134.358 170.196 134.358C170.373 134.358 170.525 134.422 170.652 134.549C170.779 134.674 170.843 134.825 170.843 135.002C170.843 135.12 170.813 135.229 170.752 135.328C170.694 135.425 170.617 135.503 170.52 135.561C170.423 135.619 170.315 135.648 170.196 135.648Z" fill="#3C3C43" fill-opacity="0.6"/>
<path d="M198.851 130.62V131.396H196.044V130.62H198.851ZM196.814 135.587V130.044C196.814 129.733 196.882 129.476 197.018 129.271C197.153 129.064 197.333 128.91 197.558 128.809C197.782 128.705 198.026 128.653 198.289 128.653C198.483 128.653 198.649 128.669 198.787 128.702C198.925 128.732 199.027 128.76 199.094 128.786L198.867 129.569C198.822 129.556 198.764 129.541 198.693 129.523C198.622 129.504 198.535 129.494 198.434 129.494C198.199 129.494 198.031 129.552 197.93 129.669C197.83 129.785 197.781 129.953 197.781 130.173V135.587H196.814ZM199.477 135.587V130.62H200.412V131.409H200.464C200.554 131.141 200.714 130.931 200.942 130.778C201.173 130.623 201.434 130.545 201.725 130.545C201.785 130.545 201.857 130.547 201.938 130.552C202.023 130.556 202.088 130.561 202.136 130.568V131.493C202.097 131.482 202.028 131.47 201.929 131.457C201.83 131.442 201.73 131.435 201.631 131.435C201.403 131.435 201.199 131.483 201.02 131.58C200.843 131.675 200.703 131.808 200.6 131.978C200.496 132.146 200.444 132.338 200.444 132.554V135.587H199.477ZM202.601 135.587V130.62H203.568V135.587H202.601ZM203.089 129.853C202.921 129.853 202.777 129.797 202.656 129.685C202.537 129.571 202.478 129.435 202.478 129.277C202.478 129.118 202.537 128.982 202.656 128.87C202.777 128.756 202.921 128.699 203.089 128.699C203.258 128.699 203.401 128.756 203.519 128.87C203.64 128.982 203.701 129.118 203.701 129.277C203.701 129.435 203.64 129.571 203.519 129.685C203.401 129.797 203.258 129.853 203.089 129.853ZM205.134 135.648C204.958 135.648 204.806 135.586 204.678 135.461C204.551 135.334 204.488 135.181 204.488 135.002C204.488 134.825 204.551 134.674 204.678 134.549C204.806 134.422 204.958 134.358 205.134 134.358C205.311 134.358 205.463 134.422 205.59 134.549C205.718 134.674 205.781 134.825 205.781 135.002C205.781 135.12 205.751 135.229 205.691 135.328C205.632 135.425 205.555 135.503 205.458 135.561C205.361 135.619 205.253 135.648 205.134 135.648Z" fill="#3C3C43" fill-opacity="0.6"/>
<path d="M81.3135 130.62V131.396H78.6002V130.62H81.3135ZM79.3278 129.429H80.2948V134.128C80.2948 134.316 80.3228 134.457 80.3789 134.552C80.4349 134.645 80.5072 134.708 80.5956 134.743C80.6861 134.775 80.7842 134.791 80.8898 134.791C80.9675 134.791 81.0354 134.786 81.0936 134.775C81.1518 134.765 81.1971 134.756 81.2294 134.749L81.4041 135.548C81.348 135.57 81.2682 135.591 81.1647 135.613C81.0613 135.637 80.9319 135.65 80.7767 135.652C80.5222 135.656 80.2851 135.611 80.0652 135.516C79.8453 135.421 79.6674 135.274 79.5316 135.076C79.3957 134.878 79.3278 134.629 79.3278 134.329V129.429ZM85.1583 133.527V130.62H86.1285V135.587H85.1777V134.727H85.1259C85.0117 134.992 84.8284 135.213 84.5762 135.39C84.3261 135.564 84.0145 135.652 83.6415 135.652C83.3224 135.652 83.04 135.582 82.7942 135.442C82.5506 135.299 82.3587 135.089 82.2186 134.811C82.0806 134.533 82.0116 134.189 82.0116 133.779V130.62H82.9786V133.663C82.9786 134.001 83.0723 134.271 83.2599 134.471C83.4475 134.672 83.6911 134.772 83.9908 134.772C84.1719 134.772 84.3519 134.727 84.5309 134.636C84.712 134.546 84.8618 134.409 84.9804 134.226C85.1011 134.042 85.1604 133.809 85.1583 133.527ZM89.1971 135.687C88.7077 135.687 88.2862 135.583 87.9326 135.374C87.5812 135.162 87.3095 134.866 87.1176 134.484C86.9279 134.1 86.833 133.651 86.833 133.136C86.833 132.627 86.9279 132.178 87.1176 131.79C87.3095 131.402 87.5769 131.099 87.9197 130.882C88.2646 130.664 88.6678 130.555 89.1292 130.555C89.4095 130.555 89.6811 130.601 89.9442 130.694C90.2072 130.787 90.4433 130.932 90.6524 131.131C90.8615 131.329 91.0265 131.587 91.1472 131.903C91.268 132.218 91.3283 132.601 91.3283 133.052V133.394H87.3796V132.67H90.3808C90.3808 132.416 90.329 132.19 90.2255 131.994C90.122 131.796 89.9765 131.639 89.7889 131.525C89.6035 131.411 89.3858 131.354 89.1357 131.354C88.864 131.354 88.6268 131.421 88.4242 131.554C88.2237 131.686 88.0684 131.858 87.9585 132.072C87.8507 132.283 87.7968 132.513 87.7968 132.761V133.326C87.7968 133.658 87.855 133.941 87.9714 134.174C88.09 134.407 88.2549 134.584 88.4662 134.707C88.6775 134.828 88.9244 134.888 89.2068 134.888C89.3901 134.888 89.5572 134.863 89.7081 134.811C89.859 134.757 89.9894 134.677 90.0994 134.572C90.2094 134.466 90.2934 134.335 90.3516 134.18L91.2669 134.345C91.1936 134.615 91.0621 134.851 90.8723 135.053C90.6848 135.254 90.4487 135.41 90.1641 135.522C89.8816 135.632 89.5593 135.687 89.1971 135.687ZM92.6667 135.648C92.4899 135.648 92.3379 135.586 92.2107 135.461C92.0835 135.334 92.0199 135.181 92.0199 135.002C92.0199 134.825 92.0835 134.674 92.2107 134.549C92.3379 134.422 92.4899 134.358 92.6667 134.358C92.8435 134.358 92.9955 134.422 93.1227 134.549C93.2499 134.674 93.3135 134.825 93.3135 135.002C93.3135 135.12 93.2834 135.229 93.223 135.328C93.1648 135.425 93.0872 135.503 92.9901 135.561C92.8931 135.619 92.7853 135.648 92.6667 135.648Z" fill="#3C3C43" fill-opacity="0.6"/>
<path d="M39.017 135.587V130.62H39.9452V131.428H40.0066C40.1101 131.154 40.2794 130.941 40.5144 130.788C40.7494 130.633 41.0308 130.555 41.3585 130.555C41.6905 130.555 41.9686 130.633 42.1928 130.788C42.4192 130.943 42.5863 131.156 42.6941 131.428H42.7459C42.8644 131.163 43.0531 130.952 43.3118 130.794C43.5705 130.635 43.8788 130.555 44.2367 130.555C44.6873 130.555 45.0549 130.696 45.3395 130.979C45.6263 131.261 45.7697 131.687 45.7697 132.256V135.587H44.8027V132.347C44.8027 132.01 44.7111 131.767 44.5278 131.616C44.3445 131.465 44.1257 131.389 43.8713 131.389C43.5565 131.389 43.3118 131.486 43.1372 131.68C42.9625 131.872 42.8752 132.119 42.8752 132.421V135.587H41.9115V132.285C41.9115 132.016 41.8274 131.799 41.6592 131.635C41.4911 131.471 41.2722 131.389 41.0027 131.389C40.8195 131.389 40.6502 131.438 40.495 131.535C40.3419 131.63 40.2179 131.762 40.1231 131.933C40.0304 132.103 39.984 132.3 39.984 132.524V135.587H39.017ZM48.7865 135.687C48.3208 135.687 47.9144 135.581 47.5673 135.367C47.2202 135.154 46.9507 134.855 46.7588 134.471C46.5669 134.088 46.471 133.639 46.471 133.126C46.471 132.611 46.5669 132.16 46.7588 131.774C46.9507 131.388 47.2202 131.089 47.5673 130.875C47.9144 130.662 48.3208 130.555 48.7865 130.555C49.2522 130.555 49.6586 130.662 50.0058 130.875C50.3529 131.089 50.6224 131.388 50.8143 131.774C51.0061 132.16 51.1021 132.611 51.1021 133.126C51.1021 133.639 51.0061 134.088 50.8143 134.471C50.6224 134.855 50.3529 135.154 50.0058 135.367C49.6586 135.581 49.2522 135.687 48.7865 135.687ZM48.7898 134.876C49.0916 134.876 49.3417 134.796 49.5401 134.636C49.7384 134.477 49.885 134.264 49.9799 133.999C50.0769 133.734 50.1254 133.442 50.1254 133.123C50.1254 132.806 50.0769 132.515 49.9799 132.25C49.885 131.982 49.7384 131.768 49.5401 131.606C49.3417 131.444 49.0916 131.363 48.7898 131.363C48.4858 131.363 48.2335 131.444 48.033 131.606C47.8347 131.768 47.687 131.982 47.5899 132.25C47.4951 132.515 47.4477 132.806 47.4477 133.123C47.4477 133.442 47.4951 133.734 47.5899 133.999C47.687 134.264 47.8347 134.477 48.033 134.636C48.2335 134.796 48.4858 134.876 48.7898 134.876ZM52.7768 132.638V135.587H51.8099V130.62H52.738V131.428H52.7995C52.9138 131.165 53.0927 130.954 53.3363 130.794C53.5821 130.635 53.8915 130.555 54.2645 130.555C54.603 130.555 54.8994 130.626 55.1538 130.768C55.4083 130.908 55.6055 131.118 55.7457 131.396C55.8858 131.674 55.9559 132.018 55.9559 132.427V135.587H54.9889V132.544C54.9889 132.184 54.8951 131.902 54.7076 131.7C54.52 131.495 54.2623 131.393 53.9346 131.393C53.7104 131.393 53.511 131.441 53.3363 131.538C53.1638 131.635 53.0269 131.777 52.9256 131.965C52.8264 132.15 52.7768 132.375 52.7768 132.638ZM57.5183 135.648C57.3415 135.648 57.1895 135.586 57.0623 135.461C56.9351 135.334 56.8715 135.181 56.8715 135.002C56.8715 134.825 56.9351 134.674 57.0623 134.549C57.1895 134.422 57.3415 134.358 57.5183 134.358C57.695 134.358 57.847 134.422 57.9743 134.549C58.1015 134.674 58.1651 134.825 58.1651 135.002C58.1651 135.12 58.1349 135.229 58.0745 135.328C58.0163 135.425 57.9387 135.503 57.8417 135.561C57.7446 135.619 57.6368 135.648 57.5183 135.648Z" fill="#3C3C43" fill-opacity="0.6"/>
<path d="M5.51939 131.832L4.64297 131.988C4.60632 131.875 4.54811 131.769 4.46834 131.667C4.39072 131.566 4.28508 131.483 4.1514 131.418C4.01773 131.354 3.85064 131.321 3.65013 131.321C3.37632 131.321 3.14778 131.383 2.96452 131.506C2.78126 131.626 2.68963 131.783 2.68963 131.975C2.68963 132.141 2.75108 132.274 2.87397 132.376C2.99686 132.477 3.19521 132.56 3.46903 132.625L4.25813 132.806C4.7152 132.911 5.05585 133.074 5.28007 133.294C5.5043 133.514 5.61641 133.8 5.61641 134.151C5.61641 134.449 5.53017 134.714 5.35769 134.947C5.18737 135.177 4.94913 135.358 4.64297 135.49C4.33898 135.622 3.98647 135.687 3.58545 135.687C3.0292 135.687 2.57536 135.569 2.22393 135.332C1.8725 135.092 1.6569 134.753 1.57713 134.313L2.51176 134.171C2.56997 134.414 2.68963 134.599 2.87073 134.724C3.05184 134.846 3.28792 134.908 3.57898 134.908C3.89592 134.908 4.14925 134.842 4.33898 134.711C4.5287 134.577 4.62357 134.414 4.62357 134.222C4.62357 134.067 4.56536 133.937 4.44893 133.831C4.33466 133.725 4.15895 133.646 3.92179 133.592L3.08095 133.407C2.6174 133.302 2.2746 133.133 2.05253 132.903C1.83262 132.672 1.72266 132.38 1.72266 132.026C1.72266 131.733 1.80459 131.477 1.96844 131.257C2.1323 131.037 2.35868 130.865 2.64759 130.742C2.93649 130.617 3.26744 130.555 3.64043 130.555C4.17728 130.555 4.59985 130.671 4.90816 130.904C5.21647 131.135 5.42021 131.444 5.51939 131.832ZM9.45472 133.527V130.62H10.4249V135.587H9.47413V134.727H9.42238C9.30811 134.992 9.12485 135.213 8.8726 135.39C8.6225 135.564 8.31096 135.652 7.93797 135.652C7.61888 135.652 7.33644 135.582 7.09066 135.442C6.84703 135.299 6.65515 135.089 6.51501 134.811C6.37702 134.533 6.30803 134.189 6.30803 133.779V130.62H7.275V133.663C7.275 134.001 7.36878 134.271 7.55636 134.471C7.74393 134.672 7.98756 134.772 8.28724 134.772C8.46835 134.772 8.64838 134.727 8.82732 134.636C9.00843 134.546 9.15827 134.409 9.27685 134.226C9.39759 134.042 9.45688 133.809 9.45472 133.527ZM12.3196 132.638V135.587H11.3526V130.62H12.2808V131.428H12.3422C12.4565 131.165 12.6355 130.954 12.8791 130.794C13.1249 130.635 13.4343 130.555 13.8072 130.555C14.1457 130.555 14.4422 130.626 14.6966 130.768C14.951 130.908 15.1483 131.118 15.2884 131.396C15.4286 131.674 15.4986 132.018 15.4986 132.427V135.587H14.5317V132.544C14.5317 132.184 14.4379 131.902 14.2503 131.7C14.0627 131.495 13.8051 131.393 13.4774 131.393C13.2531 131.393 13.0537 131.441 12.8791 131.538C12.7066 131.635 12.5697 131.777 12.4684 131.965C12.3692 132.15 12.3196 132.375 12.3196 132.638ZM17.061 135.648C16.8842 135.648 16.7322 135.586 16.605 135.461C16.4778 135.334 16.4142 135.181 16.4142 135.002C16.4142 134.825 16.4778 134.674 16.605 134.549C16.7322 134.422 16.8842 134.358 17.061 134.358C17.2378 134.358 17.3898 134.422 17.517 134.549C17.6442 134.674 17.7078 134.825 17.7078 135.002C17.7078 135.12 17.6776 135.229 17.6173 135.328C17.559 135.425 17.4814 135.503 17.3844 135.561C17.2874 135.619 17.1796 135.648 17.061 135.648Z" fill="#3C3C43" fill-opacity="0.6"/>
<path d="M117.288 135.587L115.826 130.62H116.825L117.799 134.268H117.847L118.824 130.62H119.823L120.794 134.251H120.842L121.809 130.62H122.808L121.35 135.587H120.363L119.354 132.001H119.28L118.271 135.587H117.288ZM125.344 135.687C124.855 135.687 124.433 135.583 124.08 135.374C123.728 135.162 123.457 134.866 123.265 134.484C123.075 134.1 122.98 133.651 122.98 133.136C122.98 132.627 123.075 132.178 123.265 131.79C123.457 131.402 123.724 131.099 124.067 130.882C124.412 130.664 124.815 130.555 125.276 130.555C125.557 130.555 125.828 130.601 126.091 130.694C126.354 130.787 126.59 130.932 126.799 131.131C127.009 131.329 127.174 131.587 127.294 131.903C127.415 132.218 127.475 132.601 127.475 133.052V133.394H123.527V132.67H126.528C126.528 132.416 126.476 132.19 126.373 131.994C126.269 131.796 126.124 131.639 125.936 131.525C125.751 131.411 125.533 131.354 125.283 131.354C125.011 131.354 124.774 131.421 124.571 131.554C124.371 131.686 124.216 131.858 124.106 132.072C123.998 132.283 123.944 132.513 123.944 132.761V133.326C123.944 133.658 124.002 133.941 124.118 134.174C124.237 134.407 124.402 134.584 124.613 134.707C124.825 134.828 125.071 134.888 125.354 134.888C125.537 134.888 125.704 134.863 125.855 134.811C126.006 134.757 126.137 134.677 126.246 134.572C126.356 134.466 126.441 134.335 126.499 134.18L127.414 134.345C127.341 134.615 127.209 134.851 127.019 135.053C126.832 135.254 126.596 135.41 126.311 135.522C126.029 135.632 125.706 135.687 125.344 135.687ZM130.036 135.684C129.635 135.684 129.277 135.582 128.963 135.377C128.65 135.17 128.404 134.876 128.225 134.494C128.048 134.11 127.96 133.65 127.96 133.113C127.96 132.576 128.05 132.117 128.228 131.735C128.41 131.354 128.657 131.062 128.972 130.859C129.287 130.656 129.644 130.555 130.043 130.555C130.351 130.555 130.599 130.607 130.787 130.71C130.976 130.811 131.123 130.93 131.226 131.066C131.332 131.202 131.414 131.321 131.472 131.425H131.53V128.964H132.497V135.587H131.553V134.814H131.472C131.414 134.92 131.33 135.04 131.22 135.176C131.112 135.312 130.963 135.431 130.774 135.532C130.584 135.633 130.338 135.684 130.036 135.684ZM130.25 134.859C130.528 134.859 130.763 134.786 130.955 134.639C131.149 134.491 131.295 134.285 131.395 134.022C131.496 133.759 131.547 133.453 131.547 133.103C131.547 132.758 131.497 132.457 131.398 132.198C131.299 131.939 131.153 131.737 130.961 131.593C130.769 131.449 130.532 131.376 130.25 131.376C129.959 131.376 129.716 131.452 129.522 131.603C129.328 131.754 129.181 131.96 129.082 132.22C128.985 132.481 128.937 132.776 128.937 133.103C128.937 133.435 128.986 133.734 129.085 133.999C129.185 134.264 129.331 134.475 129.525 134.63C129.721 134.783 129.963 134.859 130.25 134.859ZM134.143 135.648C133.966 135.648 133.814 135.586 133.687 135.461C133.56 135.334 133.496 135.181 133.496 135.002C133.496 134.825 133.56 134.674 133.687 134.549C133.814 134.422 133.966 134.358 134.143 134.358C134.32 134.358 134.472 134.422 134.599 134.549C134.726 134.674 134.79 134.825 134.79 135.002C134.79 135.12 134.76 135.229 134.699 135.328C134.641 135.425 134.563 135.503 134.466 135.561C134.369 135.619 134.262 135.648 134.143 135.648Z" fill="#3C3C43" fill-opacity="0.6"/>
<g clip-path="url(#clip0_27_478)">
<path d="M9.13224 -15.2387V139.094" stroke="#F0F0F0" stroke-width="0.648455"/>
<path d="M48.0396 -15.2387V139.094" stroke="#F0F0F0" stroke-width="0.648455"/>
<path d="M86.2984 -15.2387V139.094" stroke="#F0F0F0" stroke-width="0.648455"/>
<path d="M125.206 -15.2387V139.094" stroke="#F0F0F0" stroke-width="0.648455"/>
<path d="M164.113 -15.2387V139.094" stroke="#F0F0F0" stroke-width="0.648455"/>
<path d="M202.372 -15.2387V139.094" stroke="#F0F0F0" stroke-width="0.648455"/>
<path d="M241.928 -15.2387V139.094" stroke="#F0F0F0" stroke-width="0.648455"/>
<path d="M9.45647 108.292H241.603" stroke="#F0F0F0" stroke-width="0.648455"/>
<path d="M9.45647 77.8146H241.603" stroke="#F0F0F0" stroke-width="0.648455"/>
<path d="M9.45647 46.6888H241.603" stroke="#F0F0F0" stroke-width="0.648455"/>
<path d="M9.45647 16.2113H241.603" stroke="#F0F0F0" stroke-width="0.648455"/>
<path d="M9.13224 -15.2387V139.094" stroke="#F0F0F0" stroke-width="0.648455"/>
<path d="M9.45647 103.288L48.1476 45.2595L86.8388 58.8408L125.53 18.097L164.221 100.819L202.696 117.695L241.603 41.5556" stroke="#FF9800" stroke-width="3.24228"/>
<path d="M9.45647 88.4727L48.1476 116.87L86.8388 89.7074L125.53 35.6651L170.922 83.5341H202.912L241.603 16.8625" stroke="#6A3D9A" stroke-width="3.24228"/>
<path d="M9.45647 106.671C8.59671 106.671 7.77214 106.329 7.16412 105.722C6.5561 105.114 6.21441 104.289 6.2142 103.429C6.21398 102.57 6.55526 101.745 7.16298 101.137C7.77069 100.529 8.59509 100.187 9.45485 100.186C10.3146 100.186 11.1393 100.527 11.7477 101.135C12.356 101.742 12.6981 102.566 12.6987 103.426C12.6994 104.286 12.3585 105.111 11.7511 105.719C11.1437 106.328 10.3195 106.67 9.45971 106.671H9.45647Z" fill="#FF9800"/>
<path d="M47.7153 48.31C46.8555 48.31 46.031 47.9685 45.423 47.3606C44.8149 46.7528 44.4733 45.9283 44.473 45.0685C44.4728 44.2088 44.8141 43.3841 45.4218 42.7759C46.0295 42.1678 46.8539 41.8259 47.7137 41.8254C48.5735 41.825 49.3982 42.1661 50.0065 42.7736C50.6148 43.3812 50.9569 44.2055 50.9576 45.0653C50.9582 45.925 50.6174 46.7499 50.01 47.3583C49.4025 47.9668 48.5783 48.3091 47.7186 48.31H47.7153Z" fill="#FF9800"/>
<path d="M86.6226 61.9274C85.7629 61.9274 84.9383 61.5859 84.3303 60.9781C83.7223 60.3702 83.3806 59.5457 83.3804 58.686C83.3802 57.8262 83.7214 57.0015 84.3292 56.3934C84.9369 55.7852 85.7613 55.4433 86.621 55.4429C87.4808 55.4424 88.3055 55.7835 88.9139 56.3911C89.5222 56.9986 89.8643 57.8229 89.8649 58.6827C89.8656 59.5425 89.5247 60.3673 88.9173 60.9758C88.3099 61.5843 87.4857 61.9266 86.6259 61.9274H86.6226Z" fill="#FF9800"/>
<path d="M125.53 21.0748C124.67 21.0748 123.846 20.7333 123.238 20.1254C122.63 19.5175 122.288 18.6931 122.288 17.8333C122.287 16.9735 122.629 16.1489 123.236 15.5407C123.844 14.9325 124.669 14.5906 125.528 14.5902C126.388 14.5898 127.213 14.9309 127.821 15.5384C128.429 16.146 128.772 16.9703 128.772 17.8301C128.773 18.6898 128.432 19.5146 127.825 20.1231C127.217 20.7316 126.393 21.0739 125.533 21.0748L125.53 21.0748Z" fill="#FF9800"/>
<path d="M163.789 104.077C162.929 104.077 162.104 103.736 161.496 103.128C160.888 102.52 160.547 101.695 160.547 100.836C160.546 99.9758 160.888 99.1511 161.495 98.543C162.103 97.9348 162.927 97.5929 163.787 97.5925C164.647 97.592 165.472 97.9331 166.08 98.5407C166.688 99.1482 167.03 99.9725 167.031 100.832C167.032 101.692 166.691 102.517 166.083 103.125C165.476 103.734 164.652 104.076 163.792 104.077H163.789Z" fill="#FF9800"/>
<path d="M202.696 120.289C201.836 120.289 201.012 119.947 200.404 119.339C199.796 118.731 199.454 117.907 199.454 117.047C199.454 116.187 199.795 115.363 200.403 114.754C201.01 114.146 201.835 113.804 202.694 113.804C203.554 113.804 204.379 114.145 204.987 114.752C205.596 115.36 205.938 116.184 205.938 117.044C205.939 117.904 205.598 118.728 204.991 119.337C204.383 119.945 203.559 120.288 202.699 120.289H202.696Z" fill="#FF9800"/>
<path d="M241.603 45.0677C240.744 45.0677 239.919 44.7262 239.311 44.1183C238.703 43.5105 238.361 42.686 238.361 41.8262C238.361 40.9665 238.702 40.1418 239.31 39.5336C239.918 38.9255 240.742 38.5836 241.602 38.5831C242.462 38.5827 243.286 38.9238 243.895 39.5313C244.503 40.1389 244.845 40.9632 244.846 41.823C244.846 42.6827 244.505 43.5076 243.898 44.116C243.291 44.7245 242.466 45.0668 241.607 45.0677H241.603Z" fill="#FF9800"/>
<path d="M9.45647 91.7563C8.59671 91.7563 7.77214 91.4149 7.16412 90.807C6.5561 90.1991 6.21441 89.3746 6.2142 88.5149C6.21398 87.6551 6.55526 86.8305 7.16298 86.2223C7.77069 85.6141 8.59509 85.2722 9.45485 85.2718C10.3146 85.2714 11.1393 85.6124 11.7477 86.22C12.356 86.8276 12.6981 87.6519 12.6987 88.5116C12.6994 89.3714 12.3585 90.1962 11.7511 90.8047C11.1437 91.4132 10.3195 91.7555 9.45971 91.7563H9.45647Z" fill="#6A3D9A"/>
<path d="M47.7153 120.289C46.8555 120.289 46.031 119.947 45.423 119.339C44.8149 118.731 44.4733 117.907 44.473 117.047C44.4728 116.187 44.8141 115.363 45.4218 114.754C46.0295 114.146 46.8539 113.804 47.7137 113.804C48.5735 113.804 49.3982 114.145 50.0065 114.752C50.6148 115.36 50.9569 116.184 50.9576 117.044C50.9582 117.904 50.6174 118.728 50.01 119.337C49.4025 119.945 48.5783 120.288 47.7186 120.289H47.7153Z" fill="#6A3D9A"/>
<path d="M86.6226 93.0533C85.7629 93.0533 84.9383 92.7119 84.3303 92.104C83.7223 91.4961 83.3806 90.6716 83.3804 89.8119C83.3802 88.9521 83.7214 88.1275 84.3292 87.5193C84.9369 86.9111 85.7613 86.5692 86.621 86.5688C87.4808 86.5684 88.3055 86.9094 88.9139 87.517C89.5222 88.1246 89.8643 88.9489 89.8649 89.8086C89.8656 90.6684 89.5247 91.4932 88.9173 92.1017C88.3099 92.7102 87.4857 93.0525 86.6259 93.0533H86.6226Z" fill="#6A3D9A"/>
<path d="M125.53 38.5831C124.67 38.5831 123.846 38.2416 123.238 37.6338C122.63 37.0259 122.288 36.2014 122.288 35.3417C122.287 34.4819 122.629 33.6572 123.236 33.0491C123.844 32.4409 124.669 32.099 125.528 32.0986C126.388 32.0981 127.213 32.4392 127.821 33.0468C128.429 33.6543 128.772 34.4787 128.772 35.3384C128.773 36.1982 128.432 37.023 127.825 37.6315C127.217 38.24 126.393 38.5823 125.533 38.5831L125.53 38.5831Z" fill="#6A3D9A"/>
<path d="M170.922 86.5688C170.062 86.5688 169.237 86.2274 168.629 85.6195C168.021 85.0116 167.68 84.1871 167.68 83.3274C167.679 82.4676 168.021 81.643 168.628 81.0348C169.236 80.4266 170.06 80.0847 170.92 80.0843C171.78 80.0839 172.605 80.4249 173.213 81.0325C173.821 81.6401 174.163 82.4644 174.164 83.3241C174.165 84.1839 173.824 85.0087 173.216 85.6172C172.609 86.2257 171.785 86.568 170.925 86.5688H170.922Z" fill="#6A3D9A"/>
<path d="M202.696 86.5688C201.836 86.5688 201.012 86.2274 200.404 85.6195C199.796 85.0116 199.454 84.1871 199.454 83.3274C199.454 82.4676 199.795 81.643 200.403 81.0348C201.01 80.4266 201.835 80.0847 202.694 80.0843C203.554 80.0839 204.379 80.4249 204.987 81.0325C205.596 81.6401 205.938 82.4644 205.938 83.3241C205.939 84.1839 205.598 85.0087 204.991 85.6172C204.383 86.2257 203.559 86.568 202.699 86.5688H202.696Z" fill="#6A3D9A"/>
<path d="M241.603 20.4264C240.744 20.4264 239.919 20.0849 239.311 19.477C238.703 18.8692 238.361 18.0447 238.361 17.1849C238.361 16.3252 238.702 15.5005 239.31 14.8923C239.918 14.2842 240.742 13.9423 241.602 13.9418C242.462 13.9414 243.286 14.2825 243.895 14.89C244.503 15.4976 244.845 16.3219 244.846 17.1817C244.846 18.0414 244.505 18.8663 243.898 19.4747C243.291 20.0832 242.466 20.4255 241.607 20.4264L241.603 20.4264Z" fill="#6A3D9A"/>
</g>
<defs>
<clipPath id="clip0_27_478">
<rect width="238.632" height="123.855" fill="white" transform="translate(6.21419)"/>
</clipPath>
</defs>
</svg>
