<svg width="328" height="95" viewBox="0 0 328 95" fill="none" xmlns="http://www.w3.org/2000/svg">
<path d="M1.2642 15V0.454545H7.00284C8.10133 0.454545 9.03883 0.651041 9.81534 1.04403C10.5966 1.43229 11.1908 1.9839 11.598 2.69886C12.0099 3.40909 12.2159 4.24479 12.2159 5.20597C12.2159 6.17187 12.0076 7.00284 11.5909 7.69886C11.1742 8.39015 10.5705 8.92045 9.77983 9.28977C8.99384 9.65909 8.04214 9.84375 6.92472 9.84375H3.08239V7.37216H6.42756C7.01468 7.37216 7.50237 7.29167 7.89062 7.13068C8.27888 6.9697 8.56771 6.72822 8.7571 6.40625C8.95123 6.08428 9.0483 5.68419 9.0483 5.20597C9.0483 4.72301 8.95123 4.31581 8.7571 3.98438C8.56771 3.65294 8.27652 3.40199 7.88352 3.23153C7.49527 3.05634 7.00521 2.96875 6.41335 2.96875H4.33949V15H1.2642ZM9.11932 8.38068L12.7344 15H9.33949L5.80256 8.38068H9.11932ZM18.7566 15.2131C17.6345 15.2131 16.6686 14.9858 15.8589 14.5312C15.054 14.072 14.4337 13.4233 13.9981 12.5852C13.5625 11.7424 13.3447 10.7457 13.3447 9.59517C13.3447 8.47301 13.5625 7.48816 13.9981 6.64062C14.4337 5.79309 15.0469 5.13258 15.8376 4.65909C16.6331 4.18561 17.5658 3.94886 18.6359 3.94886C19.3556 3.94886 20.0256 4.06487 20.6458 4.29688C21.2708 4.52415 21.8153 4.86742 22.2794 5.3267C22.7481 5.78598 23.1127 6.36364 23.3731 7.05966C23.6335 7.75095 23.7637 8.56061 23.7637 9.48864V10.3196H14.5521V8.4446H20.9157C20.9157 8.009 20.821 7.62311 20.6316 7.28693C20.4422 6.95076 20.1795 6.68797 19.8433 6.49858C19.5118 6.30445 19.1259 6.20739 18.6856 6.20739C18.2263 6.20739 17.8191 6.31392 17.464 6.52699C17.1136 6.73532 16.839 7.01705 16.6402 7.37216C16.4413 7.72254 16.3395 8.11316 16.3348 8.54403V10.3267C16.3348 10.8665 16.4342 11.3329 16.6331 11.7259C16.8367 12.1188 17.1231 12.4219 17.4924 12.6349C17.8617 12.848 18.2997 12.9545 18.8063 12.9545C19.1425 12.9545 19.4503 12.9072 19.7296 12.8125C20.009 12.7178 20.2481 12.5758 20.447 12.3864C20.6458 12.197 20.7974 11.965 20.9015 11.6903L23.6998 11.875C23.5578 12.5473 23.2666 13.1345 22.8262 13.6364C22.3906 14.1335 21.8272 14.5218 21.1359 14.8011C20.4493 15.0758 19.6563 15.2131 18.7566 15.2131ZM30.2956 15.2131C29.1782 15.2131 28.217 14.9763 27.4121 14.5028C26.6119 14.0246 25.9963 13.3617 25.5655 12.5142C25.1393 11.6667 24.9263 10.6913 24.9263 9.58807C24.9263 8.47064 25.1417 7.49053 25.5726 6.64773C26.0082 5.80019 26.6261 5.13968 27.4263 4.66619C28.2264 4.18797 29.1782 3.94886 30.2814 3.94886C31.2331 3.94886 32.0664 4.12169 32.7814 4.46733C33.4963 4.81297 34.0621 5.2983 34.4788 5.9233C34.8955 6.5483 35.1251 7.2822 35.1677 8.125H32.3126C32.2321 7.58049 32.0191 7.14252 31.6734 6.81108C31.3325 6.47491 30.8851 6.30682 30.3311 6.30682C29.8623 6.30682 29.4528 6.43466 29.1024 6.69034C28.7568 6.94129 28.4869 7.30824 28.2927 7.79119C28.0986 8.27415 28.0015 8.8589 28.0015 9.54545C28.0015 10.2415 28.0962 10.8333 28.2856 11.321C28.4798 11.8087 28.752 12.1804 29.1024 12.4361C29.4528 12.6918 29.8623 12.8196 30.3311 12.8196C30.6767 12.8196 30.9869 12.7486 31.2615 12.6065C31.5408 12.4645 31.7705 12.2585 31.9504 11.9886C32.1351 11.714 32.2558 11.3849 32.3126 11.0014H35.1677C35.1204 11.8348 34.8931 12.5687 34.4859 13.2031C34.0835 13.8329 33.5271 14.3253 32.8169 14.6804C32.1067 15.0355 31.2662 15.2131 30.2956 15.2131ZM41.7049 15.2131C40.5828 15.2131 39.6168 14.9858 38.8072 14.5312C38.0023 14.072 37.382 13.4233 36.9464 12.5852C36.5108 11.7424 36.293 10.7457 36.293 9.59517C36.293 8.47301 36.5108 7.48816 36.9464 6.64062C37.382 5.79309 37.9952 5.13258 38.7859 4.65909C39.5813 4.18561 40.5141 3.94886 41.5842 3.94886C42.3039 3.94886 42.9738 4.06487 43.5941 4.29688C44.2191 4.52415 44.7636 4.86742 45.2276 5.3267C45.6964 5.78598 46.061 6.36364 46.3214 7.05966C46.5818 7.75095 46.712 8.56061 46.712 9.48864V10.3196H37.5004V8.4446H43.864C43.864 8.009 43.7693 7.62311 43.5799 7.28693C43.3905 6.95076 43.1277 6.68797 42.7916 6.49858C42.4601 6.30445 42.0742 6.20739 41.6339 6.20739C41.1746 6.20739 40.7674 6.31392 40.4123 6.52699C40.0619 6.73532 39.7873 7.01705 39.5884 7.37216C39.3896 7.72254 39.2878 8.11316 39.283 8.54403V10.3267C39.283 10.8665 39.3825 11.3329 39.5813 11.7259C39.7849 12.1188 40.0714 12.4219 40.4407 12.6349C40.81 12.848 41.248 12.9545 41.7546 12.9545C42.0908 12.9545 42.3986 12.9072 42.6779 12.8125C42.9573 12.7178 43.1964 12.5758 43.3953 12.3864C43.5941 12.197 43.7456 11.965 43.8498 11.6903L46.6481 11.875C46.506 12.5473 46.2149 13.1345 45.7745 13.6364C45.3389 14.1335 44.7755 14.5218 44.0842 14.8011C43.3976 15.0758 42.6045 15.2131 41.7049 15.2131ZM51.3404 8.69318V15H48.3149V4.09091H51.1984V6.01562H51.3262C51.5677 5.38116 51.9725 4.87926 52.5407 4.50994C53.1089 4.13589 53.7978 3.94886 54.6075 3.94886C55.3651 3.94886 56.0256 4.11458 56.589 4.44602C57.1525 4.77746 57.5904 5.25095 57.9029 5.86648C58.2154 6.47727 58.3717 7.20644 58.3717 8.05398V15H55.3461V8.59375C55.3509 7.92614 55.1804 7.4053 54.8348 7.03125C54.4891 6.65246 54.0133 6.46307 53.4072 6.46307C53 6.46307 52.6402 6.55066 52.3277 6.72585C52.0199 6.90104 51.7784 7.15672 51.6032 7.4929C51.4328 7.82434 51.3452 8.22443 51.3404 8.69318ZM66.1873 4.09091V6.36364H59.6177V4.09091H66.1873ZM61.1092 1.47727H64.1347V11.6477C64.1347 11.9271 64.1773 12.1449 64.2626 12.3011C64.3478 12.4527 64.4662 12.5592 64.6177 12.6207C64.7739 12.6823 64.9538 12.7131 65.1574 12.7131C65.2995 12.7131 65.4415 12.7012 65.5836 12.6776C65.7256 12.6491 65.8345 12.6278 65.9103 12.6136L66.3861 14.8651C66.2346 14.9124 66.0216 14.9669 65.7469 15.0284C65.4723 15.0947 65.1385 15.1349 64.7455 15.1491C64.0163 15.1776 63.3771 15.0805 62.8279 14.858C62.2834 14.6354 61.8596 14.2898 61.5566 13.821C61.2536 13.3523 61.1044 12.7604 61.1092 12.0455V1.47727ZM72.1008 15V0.454545H77.8394C78.9379 0.454545 79.8754 0.651041 80.6519 1.04403C81.4331 1.43229 82.0274 1.9839 82.4346 2.69886C82.8465 3.40909 83.0525 4.24479 83.0525 5.20597C83.0525 6.17187 82.8441 7.00284 82.4275 7.69886C82.0108 8.39015 81.4071 8.92045 80.6164 9.28977C79.8304 9.65909 78.8787 9.84375 77.7613 9.84375H73.9189V7.37216H77.2641C77.8512 7.37216 78.3389 7.29167 78.7272 7.13068C79.1154 6.9697 79.4043 6.72822 79.5937 6.40625C79.7878 6.08428 79.8848 5.68419 79.8848 5.20597C79.8848 4.72301 79.7878 4.31581 79.5937 3.98438C79.4043 3.65294 79.1131 3.40199 78.7201 3.23153C78.3318 3.05634 77.8418 2.96875 77.2499 2.96875H75.176V15H72.1008ZM79.9559 8.38068L83.5709 15H80.176L76.6391 8.38068H79.9559ZM91.7931 10.3551V4.09091H94.8187V15H91.9138V13.0185H91.8002C91.554 13.6577 91.1444 14.1714 90.5715 14.5597C90.0033 14.9479 89.3097 15.142 88.4905 15.142C87.7614 15.142 87.1198 14.9763 86.5658 14.6449C86.0119 14.3134 85.5786 13.8423 85.2661 13.2315C84.9584 12.6207 84.8021 11.8892 84.7974 11.0369V4.09091H87.8229V10.4972C87.8277 11.1411 88.0005 11.6501 88.3414 12.0241C88.6823 12.3982 89.1392 12.5852 89.7121 12.5852C90.0767 12.5852 90.4176 12.5024 90.7349 12.3366C91.0521 12.1662 91.3078 11.9152 91.5019 11.5838C91.7008 11.2524 91.7978 10.8428 91.7931 10.3551ZM99.8928 8.69318V15H96.8672V4.09091H99.7507V6.01562H99.8786C100.12 5.38116 100.525 4.87926 101.093 4.50994C101.661 4.13589 102.35 3.94886 103.16 3.94886C103.917 3.94886 104.578 4.11458 105.141 4.44602C105.705 4.77746 106.143 5.25095 106.455 5.86648C106.768 6.47727 106.924 7.20644 106.924 8.05398V15H103.898V8.59375C103.903 7.92614 103.733 7.4053 103.387 7.03125C103.041 6.65246 102.566 6.46307 101.96 6.46307C101.552 6.46307 101.192 6.55066 100.88 6.72585C100.572 6.90104 100.331 7.15672 100.156 7.4929C99.9851 7.82434 99.8975 8.22443 99.8928 8.69318ZM118.014 7.2017L115.244 7.37216C115.197 7.13542 115.095 6.92235 114.938 6.73295C114.782 6.53883 114.576 6.38494 114.321 6.27131C114.07 6.15294 113.769 6.09375 113.419 6.09375C112.95 6.09375 112.554 6.19318 112.233 6.39205C111.911 6.58617 111.75 6.84659 111.75 7.1733C111.75 7.43371 111.854 7.65388 112.062 7.83381C112.27 8.01373 112.628 8.15814 113.134 8.26705L115.109 8.66477C116.17 8.88258 116.96 9.23295 117.481 9.71591C118.002 10.1989 118.262 10.8333 118.262 11.6193C118.262 12.3343 118.052 12.9616 117.63 13.5014C117.214 14.0412 116.641 14.4626 115.911 14.7656C115.187 15.0639 114.351 15.2131 113.404 15.2131C111.96 15.2131 110.81 14.9124 109.953 14.3111C109.1 13.705 108.601 12.8812 108.454 11.8395L111.43 11.6832C111.52 12.1236 111.738 12.4598 112.083 12.6918C112.429 12.919 112.872 13.0327 113.411 13.0327C113.942 13.0327 114.368 12.9309 114.69 12.7273C115.017 12.5189 115.182 12.2514 115.187 11.9247C115.182 11.6501 115.066 11.4252 114.839 11.25C114.612 11.0701 114.261 10.9328 113.788 10.8381L111.899 10.4616C110.833 10.2486 110.04 9.87926 109.519 9.35369C109.003 8.82812 108.745 8.15814 108.745 7.34375C108.745 6.64299 108.935 6.0393 109.313 5.53267C109.697 5.02604 110.234 4.63542 110.926 4.3608C111.622 4.08617 112.436 3.94886 113.369 3.94886C114.747 3.94886 115.831 4.24006 116.622 4.82244C117.417 5.40483 117.881 6.19792 118.014 7.2017Z" fill="black"/>
<path d="M3.66477 31.7273H4.54545V36.9261C4.54545 37.3902 4.46023 37.7843 4.28977 38.1087C4.11932 38.433 3.87902 38.6792 3.56889 38.8473C3.25876 39.0154 2.89299 39.0994 2.47159 39.0994C2.07386 39.0994 1.71993 39.0272 1.4098 38.8828C1.09967 38.736 0.855824 38.5277 0.678267 38.2578C0.50071 37.9879 0.411932 37.6671 0.411932 37.2955H1.27841C1.27841 37.5014 1.32931 37.6813 1.43111 37.8352C1.53527 37.9867 1.67732 38.1051 1.85724 38.1903C2.03717 38.2756 2.24195 38.3182 2.47159 38.3182C2.72491 38.3182 2.94034 38.2649 3.1179 38.1584C3.29545 38.0518 3.4304 37.8956 3.52273 37.6896C3.61742 37.4813 3.66477 37.2268 3.66477 36.9261V31.7273ZM6.2371 39H5.3138L7.98426 31.7273H8.89335L11.5638 39H10.6405L8.46721 32.8778H8.4104L6.2371 39ZM6.57801 36.1591H10.2996V36.9403H6.57801V36.1591ZM18.0921 31.7273V39H17.2398L13.2768 33.2898H13.2057V39H12.3251V31.7273H13.1773L17.1546 37.4517H17.2256V31.7273H18.0921ZM21.7959 39V38.3608L24.1964 35.733C24.4782 35.4252 24.7102 35.1577 24.8925 34.9304C25.0748 34.7008 25.2097 34.4853 25.2973 34.2841C25.3873 34.0805 25.4322 33.8674 25.4322 33.6449C25.4322 33.3892 25.3707 33.1679 25.2476 32.9808C25.1268 32.7938 24.9611 32.6494 24.7504 32.5476C24.5397 32.4458 24.303 32.3949 24.0402 32.3949C23.7608 32.3949 23.517 32.4529 23.3087 32.5689C23.1027 32.6825 22.9429 32.8423 22.8293 33.0483C22.718 33.2543 22.6624 33.4957 22.6624 33.7727H21.8243C21.8243 33.3466 21.9225 32.9725 22.119 32.6506C22.3155 32.3286 22.583 32.0777 22.9216 31.8977C23.2625 31.7178 23.6448 31.6278 24.0686 31.6278C24.4947 31.6278 24.8723 31.7178 25.2014 31.8977C25.5305 32.0777 25.7885 32.3203 25.9756 32.6257C26.1626 32.9311 26.2561 33.2708 26.2561 33.6449C26.2561 33.9124 26.2076 34.174 26.1105 34.4297C26.0158 34.683 25.8501 34.9659 25.6133 35.2784C25.379 35.5885 25.0535 35.9673 24.6368 36.4148L23.0033 38.1619V38.2188H26.3839V39H21.7959ZM29.8512 39.0994C29.3161 39.0994 28.8604 38.9538 28.484 38.6626C28.1076 38.3691 27.8199 37.9441 27.621 37.3878C27.4222 36.8291 27.3228 36.1544 27.3228 35.3636C27.3228 34.5777 27.4222 33.9065 27.621 33.3501C27.8223 32.7914 28.1111 32.3653 28.4875 32.0717C28.8663 31.7758 29.3209 31.6278 29.8512 31.6278C30.3815 31.6278 30.8348 31.7758 31.2112 32.0717C31.59 32.3653 31.8789 32.7914 32.0777 33.3501C32.279 33.9065 32.3796 34.5777 32.3796 35.3636C32.3796 36.1544 32.2801 36.8291 32.0813 37.3878C31.8824 37.9441 31.5948 38.3691 31.2183 38.6626C30.8419 38.9538 30.3862 39.0994 29.8512 39.0994ZM29.8512 38.3182C30.3815 38.3182 30.7934 38.0625 31.087 37.5511C31.3805 37.0398 31.5273 36.3106 31.5273 35.3636C31.5273 34.7339 31.4598 34.1977 31.3249 33.755C31.1923 33.3123 31.0005 32.9749 30.7496 32.7429C30.501 32.5109 30.2015 32.3949 29.8512 32.3949C29.3256 32.3949 28.9148 32.6541 28.6189 33.1726C28.323 33.6887 28.175 34.419 28.175 35.3636C28.175 35.9934 28.2413 36.5284 28.3739 36.9688C28.5065 37.4091 28.697 37.7441 28.9456 37.9737C29.1966 38.2034 29.4984 38.3182 29.8512 38.3182Z" fill="#38383A"/>
<path d="M7.77273 47.2727C7.70455 46.697 7.42803 46.25 6.94318 45.9318C6.45833 45.6136 5.86364 45.4545 5.15909 45.4545C4.64394 45.4545 4.19318 45.5379 3.80682 45.7045C3.42424 45.8712 3.125 46.1004 2.90909 46.392C2.69697 46.6837 2.59091 47.0152 2.59091 47.3864C2.59091 47.697 2.66477 47.964 2.8125 48.1875C2.96402 48.4072 3.1572 48.5909 3.39205 48.7386C3.62689 48.8826 3.87311 49.0019 4.13068 49.0966C4.38826 49.1875 4.625 49.2614 4.84091 49.3182L6.02273 49.6364C6.32576 49.7159 6.66288 49.8258 7.03409 49.9659C7.40909 50.1061 7.76705 50.2973 8.10795 50.5398C8.45265 50.7784 8.73674 51.0852 8.96023 51.4602C9.18371 51.8352 9.29545 52.2955 9.29545 52.8409C9.29545 53.4697 9.13068 54.0379 8.80114 54.5455C8.47538 55.053 7.99811 55.4564 7.36932 55.7557C6.74432 56.0549 5.98485 56.2045 5.09091 56.2045C4.25758 56.2045 3.53598 56.0701 2.92614 55.8011C2.32008 55.5322 1.8428 55.1572 1.49432 54.6761C1.14962 54.1951 0.954545 53.6364 0.909091 53H2.36364C2.40152 53.4394 2.54924 53.803 2.80682 54.0909C3.06818 54.375 3.39773 54.5871 3.79545 54.7273C4.19697 54.8636 4.62879 54.9318 5.09091 54.9318C5.62879 54.9318 6.11174 54.8447 6.53977 54.6705C6.9678 54.4924 7.30682 54.2462 7.55682 53.9318C7.80682 53.6136 7.93182 53.2424 7.93182 52.8182C7.93182 52.4318 7.82386 52.1174 7.60795 51.875C7.39205 51.6326 7.10795 51.4356 6.75568 51.2841C6.40341 51.1326 6.02273 51 5.61364 50.8864L4.18182 50.4773C3.27273 50.2159 2.55303 49.8428 2.02273 49.358C1.49242 48.8731 1.22727 48.2386 1.22727 47.4545C1.22727 46.803 1.40341 46.2348 1.75568 45.75C2.11174 45.2614 2.58902 44.8826 3.1875 44.6136C3.78977 44.3409 4.46212 44.2045 5.20455 44.2045C5.95455 44.2045 6.62121 44.339 7.20455 44.608C7.78788 44.8731 8.25 45.2367 8.59091 45.6989C8.93561 46.161 9.11742 46.6856 9.13636 47.2727H7.77273ZM14.6043 56.1818C13.7861 56.1818 13.0816 55.9886 12.4907 55.6023C11.8997 55.2159 11.4452 54.6837 11.127 54.0057C10.8088 53.3277 10.6497 52.553 10.6497 51.6818C10.6497 50.7955 10.8126 50.0133 11.1384 49.3352C11.4679 48.6534 11.9263 48.1212 12.5134 47.7386C13.1043 47.3523 13.7937 47.1591 14.5816 47.1591C15.1952 47.1591 15.7482 47.2727 16.2407 47.5C16.7331 47.7273 17.1365 48.0455 17.4509 48.4545C17.7653 48.8636 17.9603 49.3409 18.0361 49.8864H16.6952C16.5929 49.4886 16.3657 49.1364 16.0134 48.8295C15.6649 48.5189 15.1952 48.3636 14.6043 48.3636C14.0816 48.3636 13.6232 48.5 13.2293 48.7727C12.8391 49.0417 12.5342 49.4223 12.3145 49.9148C12.0986 50.4034 11.9907 50.9773 11.9907 51.6364C11.9907 52.3106 12.0967 52.8977 12.3088 53.3977C12.5247 53.8977 12.8278 54.286 13.2179 54.5625C13.6119 54.839 14.074 54.9773 14.6043 54.9773C14.9528 54.9773 15.2691 54.9167 15.5532 54.7955C15.8372 54.6742 16.0778 54.5 16.2747 54.2727C16.4717 54.0455 16.6119 53.7727 16.6952 53.4545H18.0361C17.9603 53.9697 17.7728 54.4337 17.4736 54.8466C17.1782 55.2557 16.7861 55.5814 16.2975 55.8239C15.8126 56.0625 15.2482 56.1818 14.6043 56.1818ZM23.2839 56.1818C22.4429 56.1818 21.7176 55.9962 21.1077 55.625C20.5017 55.25 20.0339 54.7273 19.7043 54.0568C19.3786 53.3826 19.2157 52.5985 19.2157 51.7045C19.2157 50.8106 19.3786 50.0227 19.7043 49.3409C20.0339 48.6553 20.4922 48.1212 21.0793 47.7386C21.6702 47.3523 22.3596 47.1591 23.1475 47.1591C23.602 47.1591 24.0509 47.2348 24.4941 47.3864C24.9373 47.5379 25.3407 47.7841 25.7043 48.125C26.068 48.4621 26.3577 48.9091 26.5736 49.4659C26.7895 50.0227 26.8975 50.7083 26.8975 51.5227V52.0909H20.1702V50.9318H25.5339C25.5339 50.4394 25.4354 50 25.2384 49.6136C25.0452 49.2273 24.7687 48.9223 24.4089 48.6989C24.0528 48.4754 23.6323 48.3636 23.1475 48.3636C22.6134 48.3636 22.1513 48.4962 21.7611 48.7614C21.3748 49.0227 21.0774 49.3636 20.8691 49.7841C20.6608 50.2045 20.5566 50.6553 20.5566 51.1364V51.9091C20.5566 52.5682 20.6702 53.1269 20.8975 53.5852C21.1286 54.0398 21.4486 54.3864 21.8577 54.625C22.2668 54.8598 22.7422 54.9773 23.2839 54.9773C23.6361 54.9773 23.9543 54.928 24.2384 54.8295C24.5263 54.7273 24.7744 54.5758 24.9827 54.375C25.1911 54.1705 25.352 53.9167 25.4657 53.6136L26.7611 53.9773C26.6248 54.4167 26.3956 54.803 26.0736 55.1364C25.7517 55.4659 25.3539 55.7235 24.8804 55.9091C24.407 56.0909 23.8748 56.1818 23.2839 56.1818ZM29.9066 50.75V56H28.5657V47.2727H29.8612V48.6364H29.9748C30.1793 48.1932 30.4899 47.8371 30.9066 47.5682C31.3233 47.2955 31.8612 47.1591 32.5202 47.1591C33.1112 47.1591 33.6282 47.2803 34.0714 47.5227C34.5146 47.7614 34.8593 48.125 35.1055 48.6136C35.3517 49.0985 35.4748 49.7121 35.4748 50.4545V56H34.1339V50.5455C34.1339 49.8598 33.9559 49.3258 33.5998 48.9432C33.2437 48.5568 32.7551 48.3636 32.1339 48.3636C31.7059 48.3636 31.3233 48.4564 30.9862 48.642C30.6528 48.8277 30.3896 49.0985 30.1964 49.4545C30.0032 49.8106 29.9066 50.2424 29.9066 50.75ZM41.2126 56.1818C40.3717 56.1818 39.6463 55.9962 39.0365 55.625C38.4304 55.25 37.9626 54.7273 37.6331 54.0568C37.3073 53.3826 37.1444 52.5985 37.1444 51.7045C37.1444 50.8106 37.3073 50.0227 37.6331 49.3409C37.9626 48.6553 38.4209 48.1212 39.0081 47.7386C39.599 47.3523 40.2884 47.1591 41.0762 47.1591C41.5308 47.1591 41.9796 47.2348 42.4228 47.3864C42.866 47.5379 43.2694 47.7841 43.6331 48.125C43.9967 48.4621 44.2865 48.9091 44.5024 49.4659C44.7183 50.0227 44.8262 50.7083 44.8262 51.5227V52.0909H38.099V50.9318H43.4626C43.4626 50.4394 43.3641 50 43.1672 49.6136C42.974 49.2273 42.6975 48.9223 42.3376 48.6989C41.9815 48.4754 41.5611 48.3636 41.0762 48.3636C40.5421 48.3636 40.08 48.4962 39.6899 48.7614C39.3035 49.0227 39.0062 49.3636 38.7978 49.7841C38.5895 50.2045 38.4853 50.6553 38.4853 51.1364V51.9091C38.4853 52.5682 38.599 53.1269 38.8262 53.5852C39.0573 54.0398 39.3774 54.3864 39.7865 54.625C40.1956 54.8598 40.6709 54.9773 41.2126 54.9773C41.5649 54.9773 41.8831 54.928 42.1672 54.8295C42.455 54.7273 42.7031 54.5758 42.9115 54.375C43.1198 54.1705 43.2808 53.9167 43.3944 53.6136L44.6899 53.9773C44.5535 54.4167 44.3243 54.803 44.0024 55.1364C43.6804 55.4659 43.2827 55.7235 42.8092 55.9091C42.3357 56.0909 41.8035 56.1818 41.2126 56.1818ZM46.4945 56V47.2727H47.7899V48.5909H47.8808C48.0399 48.1591 48.3278 47.8087 48.7445 47.5398C49.1611 47.2708 49.6308 47.1364 50.1535 47.1364C50.252 47.1364 50.3751 47.1383 50.5229 47.142C50.6706 47.1458 50.7823 47.1515 50.8581 47.1591V48.5227C50.8126 48.5114 50.7085 48.4943 50.5456 48.4716C50.3865 48.4451 50.2179 48.4318 50.0399 48.4318C49.6157 48.4318 49.2369 48.5208 48.9035 48.6989C48.574 48.8731 48.3126 49.1155 48.1195 49.4261C47.9301 49.733 47.8354 50.0833 47.8354 50.4773V56H46.4945ZM53.2053 59.2727C52.978 59.2727 52.7753 59.2538 52.5973 59.2159C52.4193 59.1818 52.2962 59.1477 52.228 59.1136L52.5689 57.9318C52.8947 58.0152 53.1825 58.0455 53.4325 58.0227C53.6825 58 53.9041 57.8883 54.0973 57.6875C54.2943 57.4905 54.4742 57.1705 54.6371 56.7273L54.8871 56.0455L51.6598 47.2727H53.1144L55.5235 54.2273H55.6144L58.0235 47.2727H59.478L55.7735 57.2727C55.6068 57.7235 55.4003 58.0966 55.1541 58.392C54.9079 58.6913 54.6219 58.9129 54.2962 59.0568C53.9742 59.2008 53.6106 59.2727 53.2053 59.2727ZM65.1866 56V44.3636H69.1184C70.0275 44.3636 70.7737 44.5189 71.357 44.8295C71.9404 45.1364 72.3722 45.5587 72.6525 46.0966C72.9328 46.6345 73.0729 47.2462 73.0729 47.9318C73.0729 48.6174 72.9328 49.2254 72.6525 49.7557C72.3722 50.286 71.9423 50.7027 71.3627 51.0057C70.7832 51.3049 70.0426 51.4545 69.1411 51.4545H65.9593V50.1818H69.0957C69.7169 50.1818 70.2169 50.0909 70.5957 49.9091C70.9782 49.7273 71.2548 49.4697 71.4252 49.1364C71.5995 48.7992 71.6866 48.3977 71.6866 47.9318C71.6866 47.4659 71.5995 47.0587 71.4252 46.7102C71.251 46.3617 70.9726 46.0928 70.59 45.9034C70.2074 45.7102 69.7017 45.6136 69.0729 45.6136H66.5957V56H65.1866ZM70.6638 50.7727L73.5275 56H71.8911L69.0729 50.7727H70.6638ZM80.3676 52.4318V47.2727H81.7085V56H80.3676V54.5227H80.2767C80.0721 54.9659 79.7539 55.3428 79.3221 55.6534C78.8903 55.9602 78.3448 56.1136 77.6857 56.1136C77.1403 56.1136 76.6554 55.9943 76.2312 55.7557C75.807 55.5133 75.4736 55.1496 75.2312 54.6648C74.9888 54.1761 74.8676 53.5606 74.8676 52.8182V47.2727H76.2085V52.7273C76.2085 53.3636 76.3865 53.8712 76.7426 54.25C77.1024 54.6288 77.5607 54.8182 78.1176 54.8182C78.4509 54.8182 78.7899 54.733 79.1346 54.5625C79.4831 54.392 79.7748 54.1307 80.0096 53.7784C80.2482 53.4261 80.3676 52.9773 80.3676 52.4318ZM85.1338 50.75V56H83.7929V47.2727H85.0883V48.6364H85.202C85.4065 48.1932 85.7171 47.8371 86.1338 47.5682C86.5505 47.2955 87.0883 47.1591 87.7474 47.1591C88.3383 47.1591 88.8554 47.2803 89.2986 47.5227C89.7417 47.7614 90.0864 48.125 90.3327 48.6136C90.5789 49.0985 90.702 49.7121 90.702 50.4545V56H89.3611V50.5455C89.3611 49.8598 89.183 49.3258 88.827 48.9432C88.4709 48.5568 87.9823 48.3636 87.3611 48.3636C86.933 48.3636 86.5505 48.4564 86.2133 48.642C85.88 48.8277 85.6167 49.0985 85.4236 49.4545C85.2304 49.8106 85.1338 50.2424 85.1338 50.75Z" fill="black"/>
<path d="M255.082 46.5994C254.595 46.5994 254.164 46.513 253.79 46.3402C253.418 46.165 253.128 45.9247 252.92 45.6193C252.711 45.3116 252.608 44.9612 252.611 44.5682C252.608 44.2604 252.669 43.9763 252.792 43.7159C252.915 43.4531 253.083 43.2341 253.296 43.0589C253.512 42.8814 253.752 42.7689 254.017 42.7216V42.679C253.669 42.589 253.392 42.3937 253.186 42.093C252.98 41.79 252.878 41.4455 252.881 41.0597C252.878 40.6903 252.972 40.3601 253.161 40.0689C253.351 39.7777 253.611 39.5481 253.942 39.38C254.276 39.2119 254.656 39.1278 255.082 39.1278C255.504 39.1278 255.88 39.2119 256.212 39.38C256.543 39.5481 256.804 39.7777 256.993 40.0689C257.185 40.3601 257.282 40.6903 257.284 41.0597C257.282 41.4455 257.176 41.79 256.968 42.093C256.762 42.3937 256.489 42.589 256.148 42.679V42.7216C256.411 42.7689 256.647 42.8814 256.858 43.0589C257.069 43.2341 257.237 43.4531 257.362 43.7159C257.488 43.9763 257.552 44.2604 257.554 44.5682C257.552 44.9612 257.445 45.3116 257.234 45.6193C257.026 45.9247 256.736 46.165 256.364 46.3402C255.995 46.513 255.568 46.5994 255.082 46.5994ZM255.082 45.8182C255.411 45.8182 255.696 45.7649 255.935 45.6584C256.174 45.5518 256.358 45.4015 256.489 45.2074C256.619 45.0133 256.685 44.786 256.688 44.5256C256.685 44.2509 256.614 44.0083 256.474 43.7976C256.335 43.5869 256.144 43.4212 255.903 43.3004C255.664 43.1797 255.39 43.1193 255.082 43.1193C254.772 43.1193 254.495 43.1797 254.251 43.3004C254.01 43.4212 253.819 43.5869 253.68 43.7976C253.542 44.0083 253.475 44.2509 253.477 44.5256C253.475 44.786 253.538 45.0133 253.665 45.2074C253.796 45.4015 253.982 45.5518 254.223 45.6584C254.464 45.7649 254.751 45.8182 255.082 45.8182ZM255.082 42.3665C255.343 42.3665 255.574 42.3144 255.775 42.2102C255.978 42.1061 256.138 41.9605 256.254 41.7734C256.37 41.5864 256.429 41.3674 256.432 41.1165C256.429 40.8703 256.371 40.656 256.258 40.4737C256.144 40.2891 255.987 40.147 255.786 40.0476C255.584 39.9458 255.35 39.8949 255.082 39.8949C254.81 39.8949 254.572 39.9458 254.369 40.0476C254.165 40.147 254.008 40.2891 253.896 40.4737C253.785 40.656 253.731 40.8703 253.733 41.1165C253.731 41.3674 253.786 41.5864 253.9 41.7734C254.016 41.9605 254.176 42.1061 254.379 42.2102C254.583 42.3144 254.817 42.3665 255.082 42.3665ZM258.944 46.5568C258.769 46.5568 258.618 46.4941 258.493 46.3686C258.367 46.2431 258.305 46.0928 258.305 45.9176C258.305 45.7424 258.367 45.5921 258.493 45.4666C258.618 45.3411 258.769 45.2784 258.944 45.2784C259.119 45.2784 259.269 45.3411 259.395 45.4666C259.52 45.5921 259.583 45.7424 259.583 45.9176C259.583 46.0336 259.553 46.1402 259.494 46.2372C259.437 46.3343 259.36 46.4124 259.263 46.4716C259.169 46.5284 259.062 46.5568 258.944 46.5568ZM262.948 39.1278C263.246 39.1302 263.545 39.187 263.843 39.2983C264.141 39.4096 264.414 39.5942 264.66 39.8523C264.906 40.108 265.104 40.4571 265.253 40.8999C265.402 41.3426 265.477 41.8977 265.477 42.5653C265.477 43.2116 265.415 43.7857 265.292 44.2876C265.171 44.7872 264.996 45.2086 264.766 45.5518C264.539 45.8951 264.262 46.1555 263.935 46.3331C263.611 46.5107 263.244 46.5994 262.834 46.5994C262.427 46.5994 262.064 46.5189 261.744 46.358C261.427 46.1946 261.167 45.9685 260.963 45.6797C260.762 45.3885 260.633 45.0511 260.576 44.6676H261.442C261.521 45.0014 261.676 45.2772 261.908 45.495C262.142 45.7105 262.451 45.8182 262.834 45.8182C263.396 45.8182 263.838 45.5732 264.163 45.0831C264.489 44.593 264.653 43.9006 264.653 43.0057H264.596C264.463 43.2045 264.306 43.3762 264.124 43.5206C263.941 43.665 263.739 43.7763 263.516 43.8544C263.294 43.9325 263.057 43.9716 262.806 43.9716C262.389 43.9716 262.007 43.8686 261.659 43.6626C261.313 43.4543 261.036 43.169 260.828 42.8068C260.622 42.4422 260.519 42.0256 260.519 41.5568C260.519 41.1117 260.619 40.7045 260.817 40.3352C261.019 39.9635 261.3 39.6676 261.663 39.4474C262.027 39.2273 262.456 39.1207 262.948 39.1278ZM262.948 39.9091C262.65 39.9091 262.381 39.9837 262.142 40.1328C261.905 40.2796 261.717 40.4785 261.577 40.7294C261.44 40.978 261.371 41.2538 261.371 41.5568C261.371 41.8598 261.438 42.1357 261.57 42.3842C261.705 42.6304 261.889 42.8269 262.121 42.9737C262.355 43.1181 262.621 43.1903 262.92 43.1903C263.145 43.1903 263.354 43.1465 263.548 43.0589C263.742 42.969 263.912 42.8471 264.056 42.6932C264.203 42.5369 264.318 42.3606 264.401 42.1641C264.483 41.9652 264.525 41.758 264.525 41.5426C264.525 41.2585 264.456 40.9922 264.319 40.7436C264.184 40.495 263.997 40.2938 263.758 40.1399C263.521 39.986 263.251 39.9091 262.948 39.9091ZM269.738 44.5114L269.724 43.4744H269.894L272.28 41.0455H273.317L270.775 43.6165H270.704L269.738 44.5114ZM268.957 46.5V39.2273H269.795V46.5H268.957ZM272.422 46.5L270.292 43.8011L270.888 43.2188L273.488 46.5H272.422ZM274.024 46.5V41.0455H274.834V41.8977H274.905C275.019 41.6065 275.202 41.3804 275.456 41.2195C275.709 41.0561 276.013 40.9744 276.368 40.9744C276.728 40.9744 277.028 41.0561 277.267 41.2195C277.508 41.3804 277.696 41.6065 277.831 41.8977H277.888C278.028 41.616 278.237 41.3923 278.517 41.2266C278.796 41.0585 279.131 40.9744 279.522 40.9744C280.009 40.9744 280.408 41.1271 280.718 41.4325C281.028 41.7356 281.184 42.2079 281.184 42.8494V46.5H280.345V42.8494C280.345 42.447 280.235 42.1593 280.015 41.9865C279.795 41.8137 279.536 41.7273 279.238 41.7273C278.854 41.7273 278.557 41.8433 278.346 42.0753C278.135 42.3049 278.03 42.5961 278.03 42.9489V46.5H277.178V42.7642C277.178 42.4541 277.077 42.2043 276.876 42.0149C276.675 41.8232 276.416 41.7273 276.098 41.7273C275.881 41.7273 275.677 41.7853 275.488 41.9013C275.3 42.0173 275.149 42.1783 275.033 42.3842C274.919 42.5878 274.863 42.8234 274.863 43.0909V46.5H274.024ZM290.889 36.8835V48.8438H290.178V36.8835H290.889ZM302.29 46.5994C301.992 46.5947 301.694 46.5379 301.396 46.429C301.097 46.3201 300.825 46.1366 300.579 45.8786C300.333 45.6181 300.135 45.2666 299.986 44.8239C299.837 44.3788 299.762 43.8201 299.762 43.1477C299.762 42.5038 299.822 41.9332 299.943 41.4361C300.064 40.9366 300.239 40.5163 300.469 40.1754C300.698 39.8321 300.975 39.5717 301.3 39.3942C301.626 39.2166 301.994 39.1278 302.404 39.1278C302.811 39.1278 303.173 39.2095 303.491 39.3729C303.81 39.5339 304.071 39.7588 304.272 40.0476C304.473 40.3364 304.603 40.669 304.663 41.0455H303.796C303.716 40.7187 303.559 40.4477 303.327 40.2322C303.095 40.0168 302.788 39.9091 302.404 39.9091C301.841 39.9091 301.397 40.1541 301.072 40.6442C300.75 41.1342 300.588 41.822 300.586 42.7074H300.643C300.775 42.5062 300.933 42.3345 301.115 42.1925C301.3 42.0481 301.503 41.9368 301.726 41.8587C301.948 41.7805 302.184 41.7415 302.432 41.7415C302.849 41.7415 303.23 41.8456 303.576 42.054C303.922 42.2599 304.199 42.5452 304.407 42.9098C304.615 43.272 304.719 43.6875 304.719 44.1562C304.719 44.6061 304.619 45.018 304.418 45.392C304.216 45.7637 303.933 46.0597 303.569 46.2798C303.207 46.4976 302.78 46.6042 302.29 46.5994ZM302.29 45.8182C302.589 45.8182 302.856 45.7436 303.093 45.5945C303.332 45.4453 303.52 45.2453 303.658 44.9943C303.797 44.7434 303.867 44.464 303.867 44.1562C303.867 43.8556 303.8 43.5821 303.665 43.3359C303.532 43.0874 303.349 42.8897 303.114 42.7429C302.882 42.5961 302.617 42.5227 302.319 42.5227C302.094 42.5227 301.884 42.5677 301.69 42.6577C301.496 42.7453 301.326 42.866 301.179 43.0199C301.034 43.1738 300.921 43.3501 300.838 43.549C300.755 43.7455 300.714 43.9527 300.714 44.1705C300.714 44.4593 300.781 44.7292 300.916 44.9801C301.053 45.2311 301.24 45.4335 301.477 45.5874C301.716 45.7412 301.987 45.8182 302.29 45.8182ZM308.301 39.2273V46.5H307.42V40.1506H307.378L305.602 41.3295V40.4347L307.42 39.2273H308.301ZM312.476 46.5V41.0455H313.286V41.8977H313.357C313.471 41.6065 313.654 41.3804 313.907 41.2195C314.161 41.0561 314.465 40.9744 314.82 40.9744C315.18 40.9744 315.479 41.0561 315.718 41.2195C315.96 41.3804 316.148 41.6065 316.283 41.8977H316.34C316.48 41.616 316.689 41.3923 316.968 41.2266C317.248 41.0585 317.583 40.9744 317.973 40.9744C318.461 40.9744 318.86 41.1271 319.17 41.4325C319.48 41.7356 319.635 42.2079 319.635 42.8494V46.5H318.797V42.8494C318.797 42.447 318.687 42.1593 318.467 41.9865C318.247 41.8137 317.988 41.7273 317.689 41.7273C317.306 41.7273 317.009 41.8433 316.798 42.0753C316.587 42.3049 316.482 42.5961 316.482 42.9489V46.5H315.63V42.7642C315.63 42.4541 315.529 42.2043 315.328 42.0149C315.127 41.8232 314.867 41.7273 314.55 41.7273C314.332 41.7273 314.129 41.7853 313.939 41.9013C313.752 42.0173 313.601 42.1783 313.485 42.3842C313.371 42.5878 313.314 42.8234 313.314 43.0909V46.5H312.476ZM320.796 46.5V41.0455H321.634V46.5H320.796ZM321.222 40.1364C321.059 40.1364 320.918 40.0807 320.8 39.9695C320.684 39.8582 320.626 39.7244 320.626 39.5682C320.626 39.4119 320.684 39.2782 320.8 39.1669C320.918 39.0556 321.059 39 321.222 39C321.386 39 321.525 39.0556 321.641 39.1669C321.76 39.2782 321.819 39.4119 321.819 39.5682C321.819 39.7244 321.76 39.8582 321.641 39.9695C321.525 40.0807 321.386 40.1364 321.222 40.1364ZM323.636 43.2188V46.5H322.798V41.0455H323.607V41.8977H323.678C323.806 41.6207 324 41.3982 324.261 41.2301C324.521 41.0597 324.857 40.9744 325.269 40.9744C325.639 40.9744 325.962 41.0502 326.239 41.2017C326.516 41.3509 326.731 41.5781 326.885 41.8835C327.039 42.1866 327.116 42.5701 327.116 43.0341V46.5H326.278V43.0909C326.278 42.6624 326.166 42.3286 325.944 42.0895C325.721 41.848 325.416 41.7273 325.028 41.7273C324.76 41.7273 324.521 41.7853 324.31 41.9013C324.102 42.0173 323.938 42.1866 323.817 42.4091C323.696 42.6316 323.636 42.9015 323.636 43.2188Z" fill="#38383A"/>
<path d="M3.66477 69.7273H4.54545V74.9261C4.54545 75.3902 4.46023 75.7843 4.28977 76.1087C4.11932 76.433 3.87902 76.6792 3.56889 76.8473C3.25876 77.0154 2.89299 77.0994 2.47159 77.0994C2.07386 77.0994 1.71993 77.0272 1.4098 76.8828C1.09967 76.736 0.855824 76.5277 0.678267 76.2578C0.50071 75.9879 0.411932 75.6671 0.411932 75.2955H1.27841C1.27841 75.5014 1.32931 75.6813 1.43111 75.8352C1.53527 75.9867 1.67732 76.1051 1.85724 76.1903C2.03717 76.2756 2.24195 76.3182 2.47159 76.3182C2.72491 76.3182 2.94034 76.2649 3.1179 76.1584C3.29545 76.0518 3.4304 75.8956 3.52273 75.6896C3.61742 75.4813 3.66477 75.2268 3.66477 74.9261V69.7273ZM6.2371 77H5.3138L7.98426 69.7273H8.89335L11.5638 77H10.6405L8.46721 70.8778H8.4104L6.2371 77ZM6.57801 74.1591H10.2996V74.9403H6.57801V74.1591ZM18.0921 69.7273V77H17.2398L13.2768 71.2898H13.2057V77H12.3251V69.7273H13.1773L17.1546 75.4517H17.2256V69.7273H18.0921ZM24.3527 69.7273V77H23.472V70.6506H23.4294L21.6538 71.8295V70.9347L23.472 69.7273H24.3527ZM28.3881 69.6278C28.6864 69.6302 28.9847 69.687 29.283 69.7983C29.5813 69.9096 29.8535 70.0942 30.0997 70.3523C30.346 70.608 30.5436 70.9571 30.6928 71.3999C30.8419 71.8426 30.9165 72.3977 30.9165 73.0653C30.9165 73.7116 30.8549 74.2857 30.7318 74.7876C30.6111 75.2872 30.4359 75.7086 30.2063 76.0518C29.979 76.3951 29.702 76.6555 29.3753 76.8331C29.051 77.0107 28.684 77.0994 28.2745 77.0994C27.8673 77.0994 27.5039 77.0189 27.1843 76.858C26.867 76.6946 26.6066 76.4685 26.403 76.1797C26.2018 75.8885 26.0728 75.5511 26.0159 75.1676H26.8824C26.9605 75.5014 27.1156 75.7772 27.3476 75.995C27.582 76.2105 27.8909 76.3182 28.2745 76.3182C28.8355 76.3182 29.2782 76.0732 29.6026 75.5831C29.9293 75.093 30.0926 74.4006 30.0926 73.5057H30.0358C29.9032 73.7045 29.7458 73.8762 29.5635 74.0206C29.3812 74.165 29.1788 74.2763 28.9563 74.3544C28.7337 74.4325 28.497 74.4716 28.246 74.4716C27.8294 74.4716 27.447 74.3686 27.099 74.1626C26.7534 73.9543 26.4764 73.669 26.2681 73.3068C26.0621 72.9422 25.9591 72.5256 25.9591 72.0568C25.9591 71.6117 26.0585 71.2045 26.2574 70.8352C26.4586 70.4635 26.7404 70.1676 27.1026 69.9474C27.4672 69.7273 27.8957 69.6207 28.3881 69.6278ZM28.3881 70.4091C28.0898 70.4091 27.8211 70.4837 27.582 70.6328C27.3452 70.7796 27.157 70.9785 27.0174 71.2294C26.88 71.478 26.8114 71.7538 26.8114 72.0568C26.8114 72.3598 26.8777 72.6357 27.0103 72.8842C27.1452 73.1304 27.3287 73.3269 27.5607 73.4737C27.7951 73.6181 28.0614 73.6903 28.3597 73.6903C28.5846 73.6903 28.7941 73.6465 28.9882 73.5589C29.1824 73.469 29.3516 73.3471 29.496 73.1932C29.6428 73.0369 29.7576 72.8606 29.8405 72.6641C29.9234 72.4652 29.9648 72.258 29.9648 72.0426C29.9648 71.7585 29.8961 71.4922 29.7588 71.2436C29.6239 70.995 29.4369 70.7938 29.1978 70.6399C28.961 70.486 28.6911 70.4091 28.3881 70.4091Z" fill="#38383A"/>
<path d="M1.40909 94V82.3636H5.47727C6.28788 82.3636 6.95644 82.5038 7.48295 82.7841C8.00947 83.0606 8.40152 83.4337 8.65909 83.9034C8.91667 84.3693 9.04545 84.8864 9.04545 85.4545C9.04545 85.9545 8.95644 86.3674 8.77841 86.6932C8.60417 87.0189 8.37311 87.2765 8.08523 87.4659C7.80114 87.6553 7.49242 87.7955 7.15909 87.8864V88C7.51515 88.0227 7.87311 88.1477 8.23295 88.375C8.5928 88.6023 8.89394 88.928 9.13636 89.3523C9.37879 89.7765 9.5 90.2955 9.5 90.9091C9.5 91.4924 9.36742 92.017 9.10227 92.483C8.83712 92.9489 8.41856 93.3182 7.84659 93.5909C7.27462 93.8636 6.5303 94 5.61364 94H1.40909ZM2.81818 92.75H5.61364C6.53409 92.75 7.1875 92.572 7.57386 92.2159C7.96402 91.8561 8.15909 91.4205 8.15909 90.9091C8.15909 90.5152 8.05871 90.1515 7.85795 89.8182C7.6572 89.4811 7.37121 89.2121 7 89.0114C6.62879 88.8068 6.18939 88.7045 5.68182 88.7045H2.81818V92.75ZM2.81818 87.4773H5.43182C5.85606 87.4773 6.23864 87.3939 6.57955 87.2273C6.92424 87.0606 7.19697 86.8258 7.39773 86.5227C7.60227 86.2197 7.70455 85.8636 7.70455 85.4545C7.70455 84.9432 7.52652 84.5095 7.17045 84.1534C6.81439 83.7936 6.25 83.6136 5.47727 83.6136H2.81818V87.4773ZM13.8301 94.2045C13.2771 94.2045 12.7752 94.1004 12.3245 93.892C11.8737 93.6799 11.5157 93.375 11.2506 92.9773C10.9854 92.5758 10.8529 92.0909 10.8529 91.5227C10.8529 91.0227 10.9514 90.6174 11.1483 90.3068C11.3453 89.9924 11.6085 89.7462 11.9381 89.5682C12.2676 89.3902 12.6313 89.2576 13.029 89.1705C13.4305 89.0795 13.8339 89.0076 14.2392 88.9545C14.7695 88.8864 15.1995 88.8352 15.529 88.8011C15.8623 88.7633 16.1048 88.7008 16.2563 88.6136C16.4116 88.5265 16.4892 88.375 16.4892 88.1591V88.1136C16.4892 87.553 16.3358 87.1174 16.029 86.8068C15.726 86.4962 15.2657 86.3409 14.6483 86.3409C14.0082 86.3409 13.5063 86.4811 13.1426 86.7614C12.779 87.0417 12.5233 87.3409 12.3756 87.6591L11.1029 87.2045C11.3301 86.6742 11.6332 86.2614 12.012 85.9659C12.3945 85.6667 12.8112 85.4583 13.262 85.3409C13.7165 85.2197 14.1635 85.1591 14.6029 85.1591C14.8832 85.1591 15.2051 85.1932 15.5688 85.2614C15.9362 85.3258 16.2904 85.4602 16.6313 85.6648C16.976 85.8693 17.262 86.178 17.4892 86.5909C17.7165 87.0038 17.8301 87.5568 17.8301 88.25V94H16.4892V92.8182H16.421C16.3301 93.0076 16.1786 93.2102 15.9665 93.4261C15.7544 93.642 15.4722 93.8258 15.1199 93.9773C14.7676 94.1288 14.3377 94.2045 13.8301 94.2045ZM14.0347 93C14.565 93 15.012 92.8958 15.3756 92.6875C15.743 92.4792 16.0195 92.2102 16.2051 91.8807C16.3945 91.5511 16.4892 91.2045 16.4892 90.8409V89.6136C16.4324 89.6818 16.3074 89.7443 16.1142 89.8011C15.9248 89.8542 15.7051 89.9015 15.4551 89.9432C15.2089 89.9811 14.9684 90.0152 14.7335 90.0455C14.5025 90.072 14.315 90.0947 14.171 90.1136C13.8226 90.1591 13.4968 90.233 13.1938 90.3352C12.8945 90.4337 12.6521 90.5833 12.4665 90.7841C12.2847 90.9811 12.1938 91.25 12.1938 91.5909C12.1938 92.0568 12.3661 92.4091 12.7108 92.6477C13.0593 92.8826 13.5006 93 14.0347 93ZM26.0878 87.2273L24.8833 87.5682C24.8075 87.3674 24.6958 87.1723 24.5481 86.983C24.4041 86.7898 24.2072 86.6307 23.9572 86.5057C23.7072 86.3807 23.3871 86.3182 22.9969 86.3182C22.4628 86.3182 22.0178 86.4413 21.6617 86.6875C21.3094 86.9299 21.1333 87.2386 21.1333 87.6136C21.1333 87.947 21.2545 88.2102 21.4969 88.4034C21.7394 88.5966 22.1181 88.7576 22.6333 88.8864L23.9287 89.2045C24.709 89.3939 25.2905 89.6837 25.6731 90.0739C26.0556 90.4602 26.2469 90.9583 26.2469 91.5682C26.2469 92.0682 26.103 92.5152 25.8151 92.9091C25.531 93.303 25.1333 93.6136 24.6219 93.8409C24.1106 94.0682 23.5159 94.1818 22.8378 94.1818C21.9477 94.1818 21.2109 93.9886 20.6276 93.6023C20.0443 93.2159 19.675 92.6515 19.5197 91.9091L20.7924 91.5909C20.9136 92.0606 21.1428 92.4129 21.4799 92.6477C21.8208 92.8826 22.2659 93 22.8151 93C23.4401 93 23.9363 92.8674 24.3037 92.6023C24.675 92.3333 24.8606 92.0114 24.8606 91.6364C24.8606 91.3333 24.7545 91.0795 24.5424 90.875C24.3303 90.6667 24.0045 90.5114 23.5651 90.4091L22.1106 90.0682C21.3113 89.8788 20.7242 89.5852 20.3492 89.1875C19.978 88.786 19.7924 88.2841 19.7924 87.6818C19.7924 87.1894 19.9306 86.7538 20.2072 86.375C20.4875 85.9962 20.8681 85.6989 21.3492 85.483C21.834 85.267 22.3833 85.1591 22.9969 85.1591C23.8606 85.1591 24.5386 85.3485 25.031 85.7273C25.5272 86.1061 25.8795 86.6061 26.0878 87.2273ZM27.8938 94V85.2727H29.2347V94H27.8938ZM28.5756 83.8182C28.3143 83.8182 28.0889 83.7292 27.8995 83.5511C27.7139 83.3731 27.6211 83.1591 27.6211 82.9091C27.6211 82.6591 27.7139 82.4451 27.8995 82.267C28.0889 82.089 28.3143 82 28.5756 82C28.837 82 29.0605 82.089 29.2461 82.267C29.4355 82.4451 29.5302 82.6591 29.5302 82.9091C29.5302 83.1591 29.4355 83.3731 29.2461 83.5511C29.0605 83.7292 28.837 83.8182 28.5756 83.8182ZM34.8646 94.1818C34.0464 94.1818 33.3419 93.9886 32.751 93.6023C32.16 93.2159 31.7055 92.6837 31.3873 92.0057C31.0691 91.3277 30.91 90.553 30.91 89.6818C30.91 88.7955 31.0729 88.0133 31.3987 87.3352C31.7282 86.6534 32.1866 86.1212 32.7737 85.7386C33.3646 85.3523 34.054 85.1591 34.8419 85.1591C35.4555 85.1591 36.0085 85.2727 36.501 85.5C36.9934 85.7273 37.3968 86.0455 37.7112 86.4545C38.0256 86.8636 38.2207 87.3409 38.2964 87.8864H36.9555C36.8532 87.4886 36.626 87.1364 36.2737 86.8295C35.9252 86.5189 35.4555 86.3636 34.8646 86.3636C34.3419 86.3636 33.8835 86.5 33.4896 86.7727C33.0994 87.0417 32.7945 87.4223 32.5748 87.9148C32.3589 88.4034 32.251 88.9773 32.251 89.6364C32.251 90.3106 32.357 90.8977 32.5691 91.3977C32.785 91.8977 33.0881 92.286 33.4782 92.5625C33.8722 92.839 34.3343 92.9773 34.8646 92.9773C35.2131 92.9773 35.5294 92.9167 35.8135 92.7955C36.0975 92.6742 36.3381 92.5 36.535 92.2727C36.732 92.0455 36.8722 91.7727 36.9555 91.4545H38.2964C38.2207 91.9697 38.0332 92.4337 37.7339 92.8466C37.4385 93.2557 37.0464 93.5814 36.5578 93.8239C36.0729 94.0625 35.5085 94.1818 34.8646 94.1818ZM44.1953 94V82.3636H48.1271C49.0362 82.3636 49.7824 82.5189 50.3658 82.8295C50.9491 83.1364 51.3809 83.5587 51.6612 84.0966C51.9415 84.6345 52.0817 85.2462 52.0817 85.9318C52.0817 86.6174 51.9415 87.2254 51.6612 87.7557C51.3809 88.286 50.951 88.7027 50.3715 89.0057C49.7919 89.3049 49.0514 89.4545 48.1499 89.4545H44.9681V88.1818H48.1044C48.7256 88.1818 49.2256 88.0909 49.6044 87.9091C49.987 87.7273 50.2635 87.4697 50.434 87.1364C50.6082 86.7992 50.6953 86.3977 50.6953 85.9318C50.6953 85.4659 50.6082 85.0587 50.434 84.7102C50.2597 84.3617 49.9813 84.0928 49.5987 83.9034C49.2162 83.7102 48.7105 83.6136 48.0817 83.6136H45.6044V94H44.1953ZM49.6726 88.7727L52.5362 94H50.8999L48.0817 88.7727H49.6726ZM59.3763 90.4318V85.2727H60.7172V94H59.3763V92.5227H59.2854C59.0809 92.9659 58.7627 93.3428 58.3309 93.6534C57.899 93.9602 57.3536 94.1136 56.6945 94.1136C56.149 94.1136 55.6642 93.9943 55.24 93.7557C54.8157 93.5133 54.4824 93.1496 54.24 92.6648C53.9975 92.1761 53.8763 91.5606 53.8763 90.8182V85.2727H55.2172V90.7273C55.2172 91.3636 55.3953 91.8712 55.7513 92.25C56.1112 92.6288 56.5695 92.8182 57.1263 92.8182C57.4597 92.8182 57.7987 92.733 58.1434 92.5625C58.4919 92.392 58.7835 92.1307 59.0184 91.7784C59.257 91.4261 59.3763 90.9773 59.3763 90.4318ZM64.1425 88.75V94H62.8016V85.2727H64.0971V86.6364H64.2107C64.4153 86.1932 64.7259 85.8371 65.1425 85.5682C65.5592 85.2955 66.0971 85.1591 66.7562 85.1591C67.3471 85.1591 67.8641 85.2803 68.3073 85.5227C68.7505 85.7614 69.0952 86.125 69.3414 86.6136C69.5876 87.0985 69.7107 87.7121 69.7107 88.4545V94H68.3698V88.5455C68.3698 87.8598 68.1918 87.3258 67.8357 86.9432C67.4797 86.5568 66.991 86.3636 66.3698 86.3636C65.9418 86.3636 65.5592 86.4564 65.2221 86.642C64.8888 86.8277 64.6255 87.0985 64.4323 87.4545C64.2391 87.8106 64.1425 88.2424 64.1425 88.75Z" fill="black"/>
<path d="M254.21 84.5994C253.741 84.5994 253.324 84.5189 252.957 84.358C252.592 84.197 252.302 83.9732 252.087 83.6868C251.874 83.398 251.758 83.063 251.739 82.6818H252.634C252.652 82.9162 252.733 83.1186 252.875 83.2891C253.017 83.4571 253.203 83.5874 253.433 83.6797C253.662 83.772 253.917 83.8182 254.196 83.8182C254.509 83.8182 254.786 83.7637 255.027 83.6548C255.268 83.5459 255.458 83.3944 255.595 83.2003C255.732 83.0062 255.801 82.7812 255.801 82.5256C255.801 82.258 255.735 82.0225 255.602 81.8189C255.47 81.6129 255.276 81.4519 255.02 81.3359C254.764 81.2199 254.452 81.1619 254.082 81.1619H253.5V80.3807H254.082C254.371 80.3807 254.625 80.3286 254.842 80.2244C255.063 80.1203 255.234 79.9735 255.357 79.7841C255.483 79.5947 255.545 79.3722 255.545 79.1165C255.545 78.8703 255.491 78.656 255.382 78.4737C255.273 78.2914 255.119 78.1494 254.92 78.0476C254.724 77.9458 254.492 77.8949 254.224 77.8949C253.973 77.8949 253.737 77.9411 253.514 78.0334C253.294 78.1233 253.114 78.2547 252.974 78.4276C252.835 78.598 252.759 78.804 252.747 79.0455H251.895C251.909 78.6643 252.024 78.3305 252.239 78.044C252.455 77.7552 252.737 77.5303 253.085 77.3693C253.435 77.2083 253.82 77.1278 254.239 77.1278C254.688 77.1278 255.074 77.219 255.396 77.4013C255.718 77.5812 255.966 77.8191 256.138 78.1151C256.311 78.411 256.398 78.7306 256.398 79.0739C256.398 79.4834 256.29 79.8326 256.075 80.1214C255.862 80.4103 255.571 80.6103 255.205 80.7216V80.7784C255.664 80.8542 256.022 81.0495 256.281 81.3643C256.539 81.6768 256.668 82.0639 256.668 82.5256C256.668 82.9209 256.56 83.276 256.344 83.5909C256.131 83.9034 255.84 84.1496 255.471 84.3295C255.102 84.5095 254.681 84.5994 254.21 84.5994ZM258.149 84.5568C257.974 84.5568 257.823 84.4941 257.698 84.3686C257.572 84.2431 257.51 84.0928 257.51 83.9176C257.51 83.7424 257.572 83.5921 257.698 83.4666C257.823 83.3411 257.974 83.2784 258.149 83.2784C258.324 83.2784 258.474 83.3411 258.6 83.4666C258.725 83.5921 258.788 83.7424 258.788 83.9176C258.788 84.0336 258.758 84.1402 258.699 84.2372C258.642 84.3343 258.566 84.4124 258.468 84.4716C258.374 84.5284 258.267 84.5568 258.149 84.5568ZM262.09 84.5994C261.621 84.5994 261.204 84.5189 260.837 84.358C260.472 84.197 260.182 83.9732 259.967 83.6868C259.753 83.398 259.637 83.063 259.619 82.6818H260.513C260.532 82.9162 260.613 83.1186 260.755 83.2891C260.897 83.4571 261.083 83.5874 261.312 83.6797C261.542 83.772 261.797 83.8182 262.076 83.8182C262.388 83.8182 262.665 83.7637 262.907 83.6548C263.148 83.5459 263.338 83.3944 263.475 83.2003C263.612 83.0062 263.681 82.7812 263.681 82.5256C263.681 82.258 263.615 82.0225 263.482 81.8189C263.35 81.6129 263.155 81.4519 262.9 81.3359C262.644 81.2199 262.332 81.1619 261.962 81.1619H261.38V80.3807H261.962C262.251 80.3807 262.504 80.3286 262.722 80.2244C262.942 80.1203 263.114 79.9735 263.237 79.7841C263.363 79.5947 263.425 79.3722 263.425 79.1165C263.425 78.8703 263.371 78.656 263.262 78.4737C263.153 78.2914 262.999 78.1494 262.8 78.0476C262.604 77.9458 262.372 77.8949 262.104 77.8949C261.853 77.8949 261.617 77.9411 261.394 78.0334C261.174 78.1233 260.994 78.2547 260.854 78.4276C260.715 78.598 260.639 78.804 260.627 79.0455H259.775C259.789 78.6643 259.904 78.3305 260.119 78.044C260.335 77.7552 260.616 77.5303 260.964 77.3693C261.315 77.2083 261.7 77.1278 262.119 77.1278C262.568 77.1278 262.954 77.219 263.276 77.4013C263.598 77.5812 263.846 77.8191 264.018 78.1151C264.191 78.411 264.278 78.7306 264.278 79.0739C264.278 79.4834 264.17 79.8326 263.954 80.1214C263.741 80.4103 263.451 80.6103 263.084 80.7216V80.7784C263.544 80.8542 263.902 81.0495 264.16 81.3643C264.419 81.6768 264.548 82.0639 264.548 82.5256C264.548 82.9209 264.44 83.276 264.224 83.5909C264.011 83.9034 263.72 84.1496 263.351 84.3295C262.981 84.5095 262.561 84.5994 262.09 84.5994ZM268.865 82.5114L268.851 81.4744H269.021L271.407 79.0455H272.444L269.902 81.6165H269.831L268.865 82.5114ZM268.084 84.5V77.2273H268.922V84.5H268.084ZM271.549 84.5L269.419 81.8011L270.015 81.2188L272.615 84.5H271.549ZM273.151 84.5V79.0455H273.961V79.8977H274.032C274.146 79.6065 274.329 79.3804 274.583 79.2195C274.836 79.0561 275.14 78.9744 275.495 78.9744C275.855 78.9744 276.154 79.0561 276.394 79.2195C276.635 79.3804 276.823 79.6065 276.958 79.8977H277.015C277.155 79.616 277.364 79.3923 277.644 79.2266C277.923 79.0585 278.258 78.9744 278.649 78.9744C279.136 78.9744 279.535 79.1271 279.845 79.4325C280.155 79.7356 280.311 80.2079 280.311 80.8494V84.5H279.472V80.8494C279.472 80.447 279.362 80.1593 279.142 79.9865C278.922 79.8137 278.663 79.7273 278.364 79.7273C277.981 79.7273 277.684 79.8433 277.473 80.0753C277.262 80.3049 277.157 80.5961 277.157 80.9489V84.5H276.305V80.7642C276.305 80.4541 276.204 80.2043 276.003 80.0149C275.802 79.8232 275.543 79.7273 275.225 79.7273C275.007 79.7273 274.804 79.7853 274.614 79.9013C274.427 80.0173 274.276 80.1783 274.16 80.3842C274.046 80.5878 273.989 80.8234 273.989 81.0909V84.5H273.151ZM290.016 74.8835V86.8438H289.305V74.8835H290.016ZM301.559 77.2273V84.5H300.679V78.1506H300.636L298.861 79.3295V78.4347L300.679 77.2273H301.559ZM305.595 77.1278C305.893 77.1302 306.191 77.187 306.49 77.2983C306.788 77.4096 307.06 77.5942 307.306 77.8523C307.553 78.108 307.75 78.4571 307.899 78.8999C308.049 79.3426 308.123 79.8977 308.123 80.5653C308.123 81.2116 308.062 81.7857 307.939 82.2876C307.818 82.7872 307.643 83.2086 307.413 83.5518C307.186 83.8951 306.909 84.1555 306.582 84.3331C306.258 84.5107 305.891 84.5994 305.481 84.5994C305.074 84.5994 304.711 84.5189 304.391 84.358C304.074 84.1946 303.813 83.9685 303.61 83.6797C303.408 83.3885 303.279 83.0511 303.223 82.6676H304.089C304.167 83.0014 304.322 83.2772 304.554 83.495C304.789 83.7105 305.098 83.8182 305.481 83.8182C306.042 83.8182 306.485 83.5732 306.809 83.0831C307.136 82.593 307.299 81.9006 307.299 81.0057H307.243C307.11 81.2045 306.953 81.3762 306.77 81.5206C306.588 81.665 306.386 81.7763 306.163 81.8544C305.94 81.9325 305.704 81.9716 305.453 81.9716C305.036 81.9716 304.654 81.8686 304.306 81.6626C303.96 81.4543 303.683 81.169 303.475 80.8068C303.269 80.4422 303.166 80.0256 303.166 79.5568C303.166 79.1117 303.265 78.7045 303.464 78.3352C303.665 77.9635 303.947 77.6676 304.309 77.4474C304.674 77.2273 305.102 77.1207 305.595 77.1278ZM305.595 77.9091C305.296 77.9091 305.028 77.9837 304.789 78.1328C304.552 78.2796 304.364 78.4785 304.224 78.7294C304.087 78.978 304.018 79.2538 304.018 79.5568C304.018 79.8598 304.084 80.1357 304.217 80.3842C304.352 80.6304 304.535 80.8269 304.767 80.9737C305.002 81.1181 305.268 81.1903 305.566 81.1903C305.791 81.1903 306.001 81.1465 306.195 81.0589C306.389 80.969 306.558 80.8471 306.703 80.6932C306.85 80.5369 306.964 80.3606 307.047 80.1641C307.13 79.9652 307.171 79.758 307.171 79.5426C307.171 79.2585 307.103 78.9922 306.966 78.7436C306.831 78.495 306.644 78.2938 306.404 78.1399C306.168 77.986 305.898 77.9091 305.595 77.9091ZM311.603 84.5V79.0455H312.413V79.8977H312.484C312.598 79.6065 312.781 79.3804 313.034 79.2195C313.288 79.0561 313.592 78.9744 313.947 78.9744C314.307 78.9744 314.606 79.0561 314.845 79.2195C315.087 79.3804 315.275 79.6065 315.41 79.8977H315.467C315.607 79.616 315.816 79.3923 316.095 79.2266C316.375 79.0585 316.71 78.9744 317.1 78.9744C317.588 78.9744 317.987 79.1271 318.297 79.4325C318.607 79.7356 318.762 80.2079 318.762 80.8494V84.5H317.924V80.8494C317.924 80.447 317.814 80.1593 317.594 79.9865C317.374 79.8137 317.115 79.7273 316.816 79.7273C316.433 79.7273 316.136 79.8433 315.925 80.0753C315.714 80.3049 315.609 80.5961 315.609 80.9489V84.5H314.757V80.7642C314.757 80.4541 314.656 80.2043 314.455 80.0149C314.254 79.8232 313.994 79.7273 313.677 79.7273C313.459 79.7273 313.256 79.7853 313.066 79.9013C312.879 80.0173 312.728 80.1783 312.612 80.3842C312.498 80.5878 312.441 80.8234 312.441 81.0909V84.5H311.603ZM319.923 84.5V79.0455H320.761V84.5H319.923ZM320.349 78.1364C320.186 78.1364 320.045 78.0807 319.927 77.9695C319.811 77.8582 319.753 77.7244 319.753 77.5682C319.753 77.4119 319.811 77.2782 319.927 77.1669C320.045 77.0556 320.186 77 320.349 77C320.513 77 320.652 77.0556 320.768 77.1669C320.887 77.2782 320.946 77.4119 320.946 77.5682C320.946 77.7244 320.887 77.8582 320.768 77.9695C320.652 78.0807 320.513 78.1364 320.349 78.1364ZM322.763 81.2188V84.5H321.925V79.0455H322.734V79.8977H322.805C322.933 79.6207 323.127 79.3982 323.388 79.2301C323.648 79.0597 323.984 78.9744 324.396 78.9744C324.765 78.9744 325.089 79.0502 325.366 79.2017C325.643 79.3509 325.858 79.5781 326.012 79.8835C326.166 80.1866 326.243 80.5701 326.243 81.0341V84.5H325.405V81.0909C325.405 80.6624 325.293 80.3286 325.071 80.0895C324.848 79.848 324.543 79.7273 324.155 79.7273C323.887 79.7273 323.648 79.7853 323.437 79.9013C323.229 80.0173 323.064 80.1866 322.944 80.4091C322.823 80.6316 322.763 80.9015 322.763 81.2188Z" fill="#38383A"/>
</svg>
