<svg width="115" height="44" viewBox="0 0 115 44" fill="none" xmlns="http://www.w3.org/2000/svg">
<rect width="114.75" height="44" rx="22" fill="white"/>
<path d="M33.7469 18.2083C33.6566 17.8403 33.5142 17.5174 33.3198 17.2396C33.1253 16.9549 32.8823 16.7153 32.5906 16.5208C32.3059 16.3194 31.9726 16.1701 31.5906 16.0729C31.2156 15.9687 30.8024 15.9167 30.351 15.9167C29.3788 15.9167 28.549 16.1493 27.8615 16.6146C27.1809 17.0799 26.6601 17.75 26.299 18.625C25.9448 19.5 25.7677 20.5556 25.7677 21.7917C25.7677 23.0417 25.9378 24.1111 26.2781 25C26.6184 25.8889 27.1253 26.5694 27.799 27.0417C28.4726 27.5139 29.3094 27.75 30.3094 27.75C31.1913 27.75 31.924 27.6215 32.5073 27.3646C33.0976 27.1076 33.5385 26.7431 33.8302 26.2708C34.1219 25.7986 34.2677 25.2431 34.2677 24.6042L35.2677 24.7083H30.3927V20.5833H39.851V23.5417C39.851 25.4861 39.4378 27.1493 38.6115 28.5312C37.792 29.9062 36.6601 30.9618 35.2156 31.6979C33.7781 32.4271 32.1288 32.7917 30.2677 32.7917C28.1913 32.7917 26.3684 32.3507 24.799 31.4687C23.2295 30.5868 22.0038 29.3299 21.1219 27.6979C20.2469 26.066 19.8094 24.125 19.8094 21.875C19.8094 20.1111 20.0767 18.5486 20.6115 17.1875C21.1531 15.8264 21.9031 14.6771 22.8615 13.7396C23.8198 12.7951 24.9274 12.0833 26.1844 11.6042C27.4413 11.1181 28.7885 10.875 30.226 10.875C31.4899 10.875 32.6635 11.0556 33.7469 11.4167C34.8372 11.7708 35.799 12.2778 36.6323 12.9375C37.4726 13.5903 38.1497 14.3646 38.6635 15.2604C39.1774 16.1562 39.4899 17.1389 39.601 18.2083H33.7469ZM62.8442 21.8333C62.8442 24.2083 62.3824 26.2118 61.4588 27.8437C60.5352 29.4687 59.2887 30.7014 57.7192 31.5417C56.1498 32.375 54.3998 32.7917 52.4692 32.7917C50.5248 32.7917 48.7678 32.3715 47.1984 31.5312C45.6359 30.684 44.3928 29.4479 43.4692 27.8229C42.5526 26.191 42.0942 24.1944 42.0942 21.8333C42.0942 19.4583 42.5526 17.4583 43.4692 15.8333C44.3928 14.2014 45.6359 12.9687 47.1984 12.1354C48.7678 11.2951 50.5248 10.875 52.4692 10.875C54.3998 10.875 56.1498 11.2951 57.7192 12.1354C59.2887 12.9687 60.5352 14.2014 61.4588 15.8333C62.3824 17.4583 62.8442 19.4583 62.8442 21.8333ZM56.8859 21.8333C56.8859 20.5556 56.7158 19.4792 56.3755 18.6042C56.0421 17.7222 55.5456 17.0556 54.8859 16.6042C54.2331 16.1458 53.4276 15.9167 52.4692 15.9167C51.5109 15.9167 50.7019 16.1458 50.0421 16.6042C49.3894 17.0556 48.8928 17.7222 48.5526 18.6042C48.2192 19.4792 48.0526 20.5556 48.0526 21.8333C48.0526 23.1111 48.2192 24.191 48.5526 25.0729C48.8928 25.9479 49.3894 26.6146 50.0421 27.0729C50.7019 27.5243 51.5109 27.75 52.4692 27.75C53.4276 27.75 54.2331 27.5243 54.8859 27.0729C55.5456 26.6146 56.0421 25.9479 56.3755 25.0729C56.7158 24.191 56.8859 23.1111 56.8859 21.8333Z" fill="black"/>
<path d="M93.2083 12.375L86.2569 31.625C86.21 31.7274 86.1347 31.8142 86.0399 31.875C85.9451 31.9358 85.8348 31.9682 85.7222 31.9682C85.6096 31.9682 85.4993 31.9358 85.4045 31.875C85.3097 31.8142 85.2344 31.7274 85.1875 31.625L81.4444 24.1389L73.9583 20.3958C73.8559 20.3489 73.7692 20.2736 73.7083 20.1788C73.6475 20.084 73.6152 19.9737 73.6152 19.8611C73.6152 19.7485 73.6475 19.6382 73.7083 19.5434C73.7692 19.4486 73.8559 19.3733 73.9583 19.3264L93.2083 12.375Z" stroke="black" stroke-width="3.94872" stroke-linecap="round" stroke-linejoin="round"/>
</svg>
