<svg width="92" height="46" viewBox="0 0 92 46" fill="none" xmlns="http://www.w3.org/2000/svg">
<path d="M23.2985 20.4193C23.2169 20.1356 23.1022 19.8849 22.9545 19.6672C22.8068 19.4457 22.6261 19.2591 22.4123 19.1075C22.2024 18.952 21.9614 18.8335 21.6893 18.7519C21.4212 18.6702 21.1238 18.6294 20.7973 18.6294C20.1871 18.6294 19.6507 18.781 19.1882 19.0842C18.7295 19.3874 18.3719 19.8285 18.1154 20.4076C17.8589 20.9829 17.7306 21.6864 17.7306 22.5182C17.7306 23.35 17.8569 24.0574 18.1096 24.6404C18.3622 25.2234 18.7198 25.6685 19.1823 25.9755C19.6449 26.2787 20.191 26.4303 20.8206 26.4303C21.392 26.4303 21.8798 26.3292 22.284 26.1271C22.6921 25.9211 23.0031 25.6315 23.2169 25.2584C23.4345 24.8853 23.5434 24.4441 23.5434 23.9349L24.0564 24.0107H20.9781V22.1101H25.9746V23.6143C25.9746 24.6637 25.753 25.5655 25.3099 26.3195C24.8668 27.0697 24.2566 27.6488 23.4792 28.0569C22.7019 28.4611 21.8118 28.6632 20.809 28.6632C19.6896 28.6632 18.7062 28.4164 17.8589 27.9228C17.0116 27.4253 16.3508 26.7198 15.8766 25.8064C15.4063 24.8891 15.1712 23.8008 15.1712 22.5415C15.1712 21.5737 15.3111 20.7108 15.5909 19.9529C15.8747 19.1911 16.2711 18.5459 16.7803 18.0173C17.2895 17.4887 17.8822 17.0864 18.5585 16.8104C19.2348 16.5344 19.9675 16.3965 20.7565 16.3965C21.4328 16.3965 22.0625 16.4956 22.6455 16.6938C23.2285 16.8881 23.7455 17.1641 24.1963 17.5217C24.6511 17.8793 25.0223 18.3049 25.3099 18.7985C25.5975 19.2882 25.7822 19.8285 25.8638 20.4193H23.2985ZM27.5359 28.5V16.5597H32.2467C33.1524 16.5597 33.9239 16.7327 34.5613 17.0786C35.1988 17.4206 35.6846 17.8968 36.0189 18.507C36.357 19.1133 36.5261 19.813 36.5261 20.6059C36.5261 21.3988 36.3551 22.0984 36.0131 22.7048C35.671 23.3111 35.1754 23.7833 34.5264 24.1215C33.8811 24.4597 33.0999 24.6287 32.1826 24.6287H29.18V22.6056H31.7745C32.2603 22.6056 32.6607 22.5221 32.9755 22.3549C33.2942 22.1839 33.5313 21.9488 33.6868 21.6495C33.8462 21.3463 33.9258 20.9984 33.9258 20.6059C33.9258 20.2094 33.8462 19.8635 33.6868 19.5681C33.5313 19.2688 33.2942 19.0375 32.9755 18.8743C32.6568 18.7072 32.2526 18.6236 31.7628 18.6236H30.0604V28.5H27.5359ZM44.3083 19.9937C44.2617 19.5234 44.0615 19.158 43.7078 18.8976C43.3541 18.6372 42.8741 18.507 42.2677 18.507C41.8557 18.507 41.5079 18.5653 41.2241 18.6819C40.9404 18.7946 40.7227 18.952 40.5711 19.1542C40.4234 19.3563 40.3496 19.5856 40.3496 19.8421C40.3418 20.0559 40.3865 20.2425 40.4837 20.4018C40.5848 20.5612 40.7227 20.6992 40.8976 20.8158C41.0725 20.9285 41.2747 21.0276 41.504 21.1131C41.7333 21.1947 41.9782 21.2647 42.2386 21.323L43.3114 21.5795C43.8322 21.6961 44.3103 21.8516 44.7456 22.0459C45.1809 22.2403 45.5579 22.4793 45.8767 22.7631C46.1954 23.0468 46.4422 23.3811 46.6171 23.7659C46.7959 24.1507 46.8872 24.5918 46.8911 25.0893C46.8872 25.82 46.7007 26.4536 46.3314 26.99C45.966 27.5225 45.4374 27.9364 44.7456 28.2318C44.0576 28.5233 43.2278 28.6691 42.2561 28.6691C41.2922 28.6691 40.4526 28.5214 39.7374 28.226C39.0261 27.9306 38.4703 27.4933 38.07 26.9142C37.6735 26.3312 37.4656 25.6102 37.4461 24.7512H39.889C39.9162 25.1515 40.0309 25.4858 40.233 25.754C40.439 26.0183 40.713 26.2184 41.0551 26.3545C41.401 26.4866 41.7916 26.5527 42.2269 26.5527C42.6545 26.5527 43.0257 26.4905 43.3405 26.3661C43.6592 26.2418 43.906 26.0688 44.0809 25.8472C44.2558 25.6257 44.3433 25.3711 44.3433 25.0835C44.3433 24.8153 44.2636 24.5899 44.1043 24.4072C43.9488 24.2245 43.7195 24.069 43.4163 23.9408C43.117 23.8125 42.7497 23.6959 42.3144 23.591L41.0142 23.2645C40.0076 23.0196 39.2127 22.6367 38.6297 22.1159C38.0467 21.5951 37.7571 20.8935 37.761 20.0112C37.7571 19.2882 37.9495 18.6566 38.3382 18.1164C38.7307 17.5761 39.2691 17.1544 39.9531 16.8512C40.6372 16.548 41.4146 16.3965 42.2852 16.3965C43.1714 16.3965 43.9449 16.548 44.6057 16.8512C45.2703 17.1544 45.7873 17.5761 46.1565 18.1164C46.5258 18.6566 46.7162 19.2824 46.7279 19.9937H44.3083Z" fill="white"/>
<path d="M57.1516 17.1368L59.8084 14.48C60.0011 14.2874 60.2623 14.1792 60.5347 14.1792C60.8072 14.1792 61.0684 14.2874 61.2611 14.48L66.9999 20.2189C67.1925 20.4115 67.3007 20.6728 67.3007 20.9452C67.3007 21.2176 67.1925 21.4789 66.9999 21.6716L64.3432 24.3283C64.1505 24.5209 63.8893 24.6291 63.6168 24.6291C63.3444 24.6291 63.0831 24.5209 62.8905 24.3283L57.1516 18.5895C56.959 18.3968 56.8508 18.1356 56.8508 17.8631C56.8508 17.5907 56.959 17.3295 57.1516 17.1368Z" stroke="white" stroke-width="2.05473" stroke-linecap="round" stroke-linejoin="round"/>
<path d="M59.5074 20.9453L56.4253 24.0274L59.5074 27.1095L62.5895 24.0274" stroke="white" stroke-width="2.05473" stroke-linecap="round" stroke-linejoin="round"/>
<path d="M63.6169 16.8358L66.699 13.7537L69.7811 16.8358L66.699 19.9179" stroke="white" stroke-width="2.05473" stroke-linecap="round" stroke-linejoin="round"/>
<path d="M65.6716 23L67.2127 24.541" stroke="white" stroke-width="2.05473" stroke-linecap="round" stroke-linejoin="round"/>
<path d="M68.24 28.1368C68.9212 28.1368 69.5745 27.8662 70.0561 27.3846C70.5378 26.9029 70.8084 26.2496 70.8084 25.5684" stroke="white" stroke-width="2.05473" stroke-linecap="round" stroke-linejoin="round"/>
<path d="M68.7537 32.2463C70.3885 32.2463 71.9564 31.5968 73.1124 30.4408C74.2684 29.2848 74.9178 27.7169 74.9178 26.0821" stroke="white" stroke-width="2.05473" stroke-linecap="round" stroke-linejoin="round"/>
<rect x="1.84326" y="1.5" width="88.6567" height="43" rx="21.5" stroke="white" stroke-width="3"/>
</svg>
