<svg width="59" height="59" viewBox="0 0 59 59" fill="none" xmlns="http://www.w3.org/2000/svg">
<rect x="0.786263" y="0.325684" width="58.1069" height="58.1069" rx="10.5649" fill="white"/>
<path d="M17.0004 29.3791H13.3321L29.8397 12.8715L46.3473 29.3791H42.679" stroke="#FF9800" stroke-width="3.66836" stroke-linecap="round" stroke-linejoin="round"/>
<path d="M17.0004 29.3792V42.2184C17.0004 43.1913 17.3869 44.1244 18.0749 44.8123C18.7628 45.5003 19.6959 45.8868 20.6688 45.8868H39.0106C39.9835 45.8868 40.9166 45.5003 41.6045 44.8123C42.2925 44.1244 42.679 43.1913 42.679 42.2184V29.3792" stroke="#FF9800" stroke-width="3.66836" stroke-linecap="round" stroke-linejoin="round"/>
<path d="M24.3372 45.8868V34.8817C24.3372 33.9088 24.7236 32.9758 25.4116 32.2878C26.0995 31.5999 27.0326 31.2134 28.0055 31.2134H31.6739C32.6468 31.2134 33.5798 31.5999 34.2678 32.2878C34.9558 32.9758 35.3422 33.9088 35.3422 34.8817V45.8868" stroke="#FF9800" stroke-width="3.66836" stroke-linecap="round" stroke-linejoin="round"/>
</svg>
