<svg width="30" height="30" viewBox="0 0 30 30" fill="none" xmlns="http://www.w3.org/2000/svg">
<path d="M26.25 3.75L18.125 26.25C18.0702 26.3697 17.9821 26.4711 17.8713 26.5422C17.7605 26.6133 17.6317 26.6511 17.5 26.6511C17.3684 26.6511 17.2395 26.6133 17.1287 26.5422C17.0179 26.4711 16.9299 26.3697 16.875 26.25L12.5 17.5L3.75001 13.125C3.63033 13.0702 3.52892 12.9821 3.45782 12.8713C3.38672 12.7605 3.34892 12.6316 3.34892 12.5C3.34892 12.3684 3.38672 12.2395 3.45782 12.1287C3.52892 12.0179 3.63033 11.9298 3.75001 11.875L26.25 3.75Z" stroke="#FF9800" stroke-width="4" stroke-linecap="round" stroke-linejoin="round"/>
</svg>
