<svg width="136" height="157" viewBox="0 0 136 157" fill="none" xmlns="http://www.w3.org/2000/svg">
<path d="M73.5 27.5C76.5376 27.5 79 25.0376 79 22C79 18.9624 76.5376 16.5 73.5 16.5C70.4624 16.5 68 18.9624 68 22C68 25.0376 70.4624 27.5 73.5 27.5Z" stroke="white" stroke-width="10" stroke-linecap="round" stroke-linejoin="round"/>
<path d="M24 93.5L51.5 99L55.625 90.75" stroke="white" stroke-width="10" stroke-linecap="round" stroke-linejoin="round"/>
<path d="M84.5 115.5V93.5L62.5 77L68 44" stroke="white" stroke-width="10" stroke-linecap="round" stroke-linejoin="round"/>
<path d="M40.5 66V49.5L68 44L84.5 60.5L101 66" stroke="white" stroke-width="10" stroke-linecap="round" stroke-linejoin="round"/>
<path d="M8.38825 156L0.896772 129.818H6.94365L11.2775 148.01H11.4948L16.276 129.818H21.4536L26.2221 148.048H26.4522L30.786 129.818H36.8329L29.3414 156H23.9465L18.9607 138.882H18.7561L13.7831 156H8.38825ZM42.7753 156.371C41.5225 156.371 40.406 156.153 39.4259 155.719C38.4458 155.276 37.6702 154.624 37.0992 153.763C36.5367 152.893 36.2555 151.811 36.2555 150.516C36.2555 149.425 36.4557 148.509 36.8563 147.767C37.2569 147.026 37.8023 146.429 38.4927 145.977C39.183 145.526 39.9671 145.185 40.845 144.955C41.7313 144.724 42.6603 144.562 43.6319 144.469C44.7739 144.349 45.6944 144.239 46.3932 144.136C47.0921 144.026 47.5992 143.864 47.9146 143.651C48.2299 143.437 48.3876 143.122 48.3876 142.705V142.628C48.3876 141.818 48.1319 141.192 47.6205 140.749C47.1177 140.305 46.4018 140.084 45.4728 140.084C44.4927 140.084 43.7128 140.301 43.1333 140.736C42.5538 141.162 42.1702 141.699 41.9827 142.347L36.9458 141.938C37.2015 140.744 37.7043 139.713 38.4543 138.844C39.2043 137.966 40.1717 137.293 41.3563 136.824C42.5495 136.347 43.9302 136.108 45.4984 136.108C46.5893 136.108 47.6333 136.236 48.6305 136.491C49.6361 136.747 50.5268 137.143 51.3023 137.68C52.0864 138.217 52.7043 138.908 53.156 139.751C53.6077 140.587 53.8336 141.588 53.8336 142.756V156H48.6688V153.277H48.5154C48.2001 153.891 47.7782 154.432 47.2498 154.901C46.7214 155.361 46.0864 155.723 45.345 155.987C44.6035 156.243 43.7469 156.371 42.7753 156.371ZM44.335 152.612C45.1361 152.612 45.8435 152.455 46.4572 152.139C47.0708 151.815 47.5523 151.381 47.9018 150.835C48.2512 150.29 48.4259 149.672 48.4259 148.982V146.898C48.2555 147.009 48.0211 147.111 47.7228 147.205C47.433 147.29 47.1049 147.371 46.7384 147.447C46.3719 147.516 46.0055 147.58 45.639 147.639C45.2725 147.69 44.9401 147.737 44.6418 147.78C44.0026 147.874 43.4444 148.023 42.9671 148.227C42.4898 148.432 42.1191 148.709 41.8549 149.058C41.5907 149.399 41.4586 149.825 41.4586 150.337C41.4586 151.078 41.7271 151.645 42.264 152.037C42.8094 152.42 43.4998 152.612 44.335 152.612ZM63.0968 144.648V156H57.6507V136.364H62.8411V139.828H63.0712C63.5058 138.686 64.2345 137.783 65.2573 137.118C66.28 136.445 67.52 136.108 68.9774 136.108C70.3411 136.108 71.53 136.406 72.5442 137.003C73.5584 137.599 74.3468 138.452 74.9093 139.56C75.4718 140.659 75.753 141.972 75.753 143.497V156H70.307V144.469C70.3155 143.267 70.0087 142.33 69.3865 141.656C68.7644 140.974 67.9078 140.634 66.8169 140.634C66.084 140.634 65.4362 140.791 64.8737 141.107C64.3198 141.422 63.8851 141.882 63.5698 142.487C63.2629 143.084 63.1053 143.804 63.0968 144.648ZM86.8731 156.32C85.3816 156.32 84.0307 155.936 82.8205 155.169C81.6188 154.393 80.6643 153.256 79.9569 151.756C79.258 150.247 78.9086 148.398 78.9086 146.207C78.9086 143.957 79.2708 142.087 79.9952 140.595C80.7196 139.095 81.6827 137.974 82.8844 137.233C84.0946 136.483 85.4199 136.108 86.8603 136.108C87.9597 136.108 88.8759 136.295 89.6089 136.67C90.3503 137.037 90.9469 137.497 91.3986 138.051C91.8589 138.597 92.2083 139.134 92.4469 139.662H92.6131V129.818H98.0464V156H92.677V152.855H92.4469C92.1912 153.401 91.829 153.942 91.3603 154.479C90.9 155.007 90.2992 155.446 89.5577 155.795C88.8248 156.145 87.9299 156.32 86.8731 156.32ZM88.5989 151.986C89.4768 151.986 90.2182 151.747 90.8233 151.27C91.437 150.784 91.9057 150.107 92.2296 149.237C92.562 148.368 92.7282 147.349 92.7282 146.182C92.7282 145.014 92.5662 144 92.2424 143.139C91.9185 142.278 91.4498 141.614 90.8361 141.145C90.2225 140.676 89.4768 140.442 88.5989 140.442C87.704 140.442 86.9498 140.685 86.3361 141.17C85.7225 141.656 85.258 142.33 84.9427 143.19C84.6273 144.051 84.4696 145.048 84.4696 146.182C84.4696 147.324 84.6273 148.334 84.9427 149.212C85.2665 150.081 85.731 150.763 86.3361 151.257C86.9498 151.743 87.704 151.986 88.5989 151.986ZM111.065 156.384C109.045 156.384 107.306 155.974 105.849 155.156C104.4 154.33 103.284 153.162 102.499 151.653C101.715 150.136 101.323 148.342 101.323 146.271C101.323 144.251 101.715 142.479 102.499 140.953C103.284 139.428 104.387 138.239 105.811 137.386C107.242 136.534 108.921 136.108 110.848 136.108C112.143 136.108 113.349 136.317 114.465 136.734C115.59 137.143 116.571 137.761 117.406 138.588C118.249 139.415 118.906 140.455 119.374 141.707C119.843 142.952 120.078 144.409 120.078 146.08V147.575H103.497V144.2H114.951C114.951 143.416 114.781 142.722 114.44 142.116C114.099 141.511 113.626 141.038 113.021 140.697C112.424 140.348 111.73 140.173 110.937 140.173C110.11 140.173 109.377 140.365 108.738 140.749C108.107 141.124 107.613 141.631 107.255 142.27C106.897 142.901 106.714 143.604 106.705 144.379V147.588C106.705 148.56 106.884 149.399 107.242 150.107C107.609 150.814 108.124 151.359 108.789 151.743C109.454 152.126 110.242 152.318 111.154 152.318C111.759 152.318 112.313 152.233 112.816 152.062C113.319 151.892 113.749 151.636 114.107 151.295C114.465 150.955 114.738 150.537 114.926 150.043L119.963 150.375C119.707 151.585 119.183 152.642 118.39 153.545C117.606 154.44 116.592 155.139 115.348 155.642C114.112 156.136 112.684 156.384 111.065 156.384ZM123.224 156V136.364H128.503V139.79H128.708C129.066 138.571 129.667 137.651 130.511 137.028C131.354 136.398 132.326 136.082 133.425 136.082C133.698 136.082 133.992 136.099 134.307 136.134C134.623 136.168 134.9 136.214 135.138 136.274V141.107C134.883 141.03 134.529 140.962 134.077 140.902C133.626 140.842 133.212 140.812 132.837 140.812C132.036 140.812 131.32 140.987 130.69 141.337C130.067 141.678 129.573 142.155 129.207 142.768C128.849 143.382 128.67 144.089 128.67 144.891V156H123.224Z" fill="white"/>
</svg>
