<svg width="59" height="59" viewBox="0 0 59 59" fill="none" xmlns="http://www.w3.org/2000/svg">
<path d="M29.0534 27.5449C33.1054 27.5449 36.3902 24.2601 36.3902 20.2082C36.3902 16.1562 33.1054 12.8715 29.0534 12.8715C25.0015 12.8715 21.7167 16.1562 21.7167 20.2082C21.7167 24.2601 25.0015 27.5449 29.0534 27.5449Z" stroke="#FF9800" stroke-width="3.66836" stroke-linecap="round" stroke-linejoin="round"/>
<path d="M18.0483 45.8657V42.2044C18.0483 40.2622 18.8198 38.3997 20.1931 37.0264C21.5664 35.6531 23.429 34.8816 25.3711 34.8816H32.6939C34.636 34.8816 36.4985 35.6531 37.8718 37.0264C39.2451 38.3997 40.0166 40.2622 40.0166 42.2044V45.8657" stroke="#FF9800" stroke-width="3.66138" stroke-linecap="round" stroke-linejoin="round"/>
<path d="M37.0284 29.6261H39.0892L40.6349 33.1982L42.6957 26.054L44.2413 29.6261H46.3022" stroke="#FF9800" stroke-width="2.06084" stroke-linecap="round" stroke-linejoin="round"/>
</svg>
