<svg width="318" height="225" viewBox="0 0 318 225" fill="none" xmlns="http://www.w3.org/2000/svg">
<g clip-path="url(#clip0_10_452)">
<path d="M282.519 179.996C289.35 179.996 295.956 177.551 301.148 173.102C302.88 171.616 304.725 169.033 306.633 165.425C307.85 163.101 308.532 160.532 308.628 157.909C308.724 155.286 308.232 152.675 307.188 150.268C308.195 151.294 309.307 152.208 310.508 152.997L311.115 153.401L311.15 152.672C311.173 152.198 311.184 151.725 311.184 151.267C311.184 148.568 309.148 145.829 310.087 143.334C314.046 132.818 326.605 122.368 308.404 106.094C306.72 104.589 308.969 101.579 308.969 99.3012C308.969 76.9791 284.769 43.4941 268.569 58.8188C259.113 67.764 239.411 74.1185 230.213 86.5608L230.091 86.9294L230.45 87.075C232.288 87.8491 234.224 88.3651 236.202 88.6084C234.093 89.0396 231.94 89.2203 229.788 89.1469L229.455 89.1352L229.373 89.4603C228.573 92.6791 228.168 95.9839 228.169 99.3011L228.17 99.6597C228.178 102.179 227.655 104.672 226.637 106.976C225.619 109.28 224.127 111.342 222.26 113.03C219.311 115.725 216.954 119.006 215.341 122.664C213.727 126.322 212.891 130.278 212.887 134.277C212.887 139.01 216.096 145.221 218.788 149.599C219.47 150.714 220.396 151.66 221.495 152.366C222.594 153.071 223.838 153.518 225.134 153.673C226.362 153.828 227.608 153.711 228.786 153.33C229.963 152.949 231.043 152.313 231.948 151.467C230.673 154.035 229.013 156.391 227.024 158.453L226.657 158.833L227.113 159.099C231.496 161.66 236.479 163.009 241.552 163.007L241.849 163.006C249.552 163.006 256.863 165.997 261.909 171.212C264.588 173.978 267.79 176.179 271.33 177.688C274.869 179.196 278.673 179.981 282.519 179.996Z" fill="#E6E6E6"/>
<path d="M292.627 225C292.751 225 292.871 224.955 292.965 224.873C293.058 224.792 293.119 224.679 293.137 224.556C293.159 224.402 295.304 208.895 293.377 188.286C291.598 169.254 285.884 141.84 268.767 119.325C268.726 119.271 268.674 119.225 268.616 119.191C268.557 119.157 268.493 119.135 268.425 119.125C268.358 119.116 268.29 119.121 268.224 119.138C268.159 119.155 268.097 119.185 268.044 119.226C267.99 119.268 267.944 119.319 267.91 119.378C267.876 119.436 267.854 119.501 267.845 119.569C267.836 119.636 267.84 119.704 267.858 119.77C267.875 119.836 267.905 119.897 267.946 119.951C284.916 142.271 290.584 169.484 292.351 188.383C294.266 208.872 292.138 224.257 292.116 224.41C292.106 224.484 292.111 224.559 292.132 224.63C292.153 224.701 292.189 224.766 292.237 224.822C292.286 224.878 292.346 224.923 292.413 224.953C292.48 224.984 292.553 225 292.627 225Z" fill="#3F3D56"/>
<path d="M276.998 150.513C277.106 150.513 277.213 150.479 277.301 150.415C277.389 150.351 277.454 150.26 277.488 150.156C277.522 150.053 277.522 149.941 277.488 149.837C277.455 149.733 277.389 149.643 277.301 149.579C272.424 146.27 267.155 143.582 261.615 141.576C252.961 138.4 239.801 135.522 226.253 139.843C226.189 139.864 226.129 139.897 226.077 139.941C226.026 139.984 225.983 140.038 225.952 140.098C225.921 140.158 225.902 140.224 225.896 140.292C225.89 140.359 225.898 140.427 225.919 140.492C225.939 140.557 225.972 140.617 226.016 140.669C226.059 140.72 226.113 140.763 226.173 140.794C226.233 140.826 226.299 140.845 226.366 140.85C226.434 140.856 226.502 140.848 226.566 140.828C239.836 136.595 252.758 139.426 261.261 142.546C266.711 144.518 271.896 147.161 276.695 150.414C276.783 150.479 276.889 150.513 276.998 150.513Z" fill="#3F3D56"/>
<path d="M69.6317 179.996C76.4629 179.996 83.0696 177.551 88.2613 173.102C89.9932 171.616 91.8385 169.033 93.7459 165.425C94.9631 163.101 95.6449 160.532 95.7411 157.909C95.8372 155.286 95.3453 152.675 94.3015 150.268C95.3077 151.294 96.4205 152.208 97.621 152.997L98.2279 153.401L98.2629 152.672C98.2859 152.198 98.2976 151.725 98.2976 151.267C98.2976 148.568 96.2606 145.829 97.2001 143.334C101.16 132.818 113.718 122.368 95.517 106.094C93.8333 104.589 96.0825 101.579 96.0825 99.3012C96.0825 76.9791 64.6039 38.3611 55.6823 58.8188C44.6796 84.0483 25.7236 81.3497 17.326 86.5608L17.2041 86.9294L17.5631 87.075C19.401 87.8491 21.3368 88.3651 23.3156 88.6084C21.206 89.0396 19.0531 89.2203 16.9013 89.1469L16.5677 89.1353L16.4864 89.4603C15.686 92.6791 15.2815 95.9839 15.282 99.3011L15.2835 99.6597C15.2909 102.179 14.7684 104.672 13.7501 106.976C12.7318 109.28 11.2404 111.342 9.37334 113.03C6.42414 115.725 4.06752 119.006 2.45368 122.664C0.839844 126.322 0.00419617 130.278 7.62939e-06 134.277C7.62939e-06 139.01 3.20913 145.221 5.9013 149.599C6.5836 150.714 7.50899 151.66 8.60806 152.366C9.70714 153.071 10.9514 153.518 12.2474 153.673C13.475 153.828 14.7216 153.711 15.8989 153.33C17.0763 152.949 18.1557 152.313 19.0607 151.467C17.7865 154.035 16.1259 156.391 14.1373 158.453L13.7699 158.833L14.226 159.099C18.6088 161.66 23.5919 163.009 28.6654 163.007L28.9626 163.006C36.6653 163.006 43.9766 165.997 49.0219 171.212C51.7007 173.978 54.9036 176.179 58.4427 177.688C61.9818 179.196 65.7859 179.981 69.6317 179.996Z" fill="#E6E6E6"/>
<path d="M79.7403 225C79.8643 225 79.9841 224.955 80.0778 224.873C80.1714 224.792 80.2326 224.679 80.25 224.556C80.2719 224.402 82.4172 208.895 80.4905 188.286C78.7112 169.254 72.997 141.84 55.8797 119.325C55.8387 119.271 55.7874 119.225 55.7289 119.191C55.6704 119.157 55.6057 119.135 55.5385 119.125C55.4714 119.116 55.4031 119.121 55.3376 119.138C55.2721 119.155 55.2106 119.185 55.1567 119.226C55.1028 119.268 55.0575 119.319 55.0235 119.378C54.9894 119.436 54.9673 119.501 54.9582 119.569C54.9492 119.636 54.9535 119.704 54.9709 119.77C54.9883 119.836 55.0184 119.897 55.0596 119.951C72.0291 142.271 77.6971 169.484 79.4639 188.383C81.3795 208.872 79.251 224.257 79.2293 224.41C79.2189 224.484 79.2244 224.559 79.2453 224.63C79.2663 224.701 79.3022 224.766 79.3506 224.822C79.3991 224.878 79.4589 224.923 79.5262 224.953C79.5934 224.984 79.6664 225 79.7403 225Z" fill="#3F3D56"/>
<path d="M65.5253 151.576C65.6342 151.577 65.7403 151.542 65.8284 151.478C65.9166 151.414 65.9822 151.323 66.0159 151.22C66.0496 151.116 66.0496 151.004 66.016 150.9C65.9824 150.796 65.9168 150.706 65.8288 150.642C60.9513 147.333 55.6823 144.645 50.143 142.639C41.4888 139.464 28.329 136.585 14.7811 140.906C14.7166 140.927 14.6567 140.96 14.605 141.004C14.5533 141.048 14.5106 141.101 14.4795 141.161C14.4484 141.222 14.4295 141.287 14.4238 141.355C14.4181 141.423 14.4257 141.491 14.4462 141.555C14.4667 141.62 14.4998 141.68 14.5434 141.732C14.5871 141.784 14.6405 141.826 14.7006 141.858C14.7607 141.889 14.8264 141.908 14.8938 141.913C14.9613 141.919 15.0292 141.912 15.0937 141.891C28.364 137.658 41.2854 140.489 49.7885 143.61C55.2387 145.581 60.4233 148.224 65.2226 151.478C65.3105 151.542 65.4165 151.576 65.5253 151.576Z" fill="#3F3D56"/>
<path d="M89.1198 92.6803C89.1277 92.5714 89.101 92.4628 89.0436 92.3701C88.9862 92.2774 88.9009 92.2053 88.8001 92.1641C88.6992 92.123 88.5879 92.1149 88.4822 92.141C88.3765 92.1671 88.2817 92.2261 88.2115 92.3096C84.5674 96.9469 81.5127 102.02 79.1177 107.413C75.3344 115.835 71.5218 128.783 74.8468 142.637C74.8626 142.703 74.8912 142.765 74.931 142.82C74.9708 142.875 75.021 142.922 75.0787 142.957C75.1365 142.993 75.2006 143.016 75.2675 143.027C75.3344 143.038 75.4028 143.035 75.4686 143.019C75.5345 143.003 75.5965 142.974 75.6513 142.935C75.7061 142.895 75.7524 142.844 75.7878 142.786C75.8231 142.728 75.8467 142.664 75.8573 142.597C75.8678 142.53 75.865 142.462 75.8492 142.396C72.5926 128.825 76.3406 116.113 80.058 107.837C82.4123 102.531 85.4159 97.5389 88.9997 92.9757C89.07 92.8924 89.112 92.789 89.1198 92.6803Z" fill="#3F3D56"/>
<path d="M300.946 89.4905C300.954 89.3817 300.927 89.2731 300.87 89.1804C300.812 89.0876 300.727 89.0155 300.626 88.9744C300.525 88.9332 300.414 88.9251 300.308 88.9512C300.202 88.9774 300.108 89.0364 300.037 89.1198C296.393 93.7571 293.339 98.8306 290.944 104.223C287.16 112.646 283.348 125.593 286.673 139.447C286.689 139.513 286.717 139.576 286.757 139.631C286.797 139.685 286.847 139.732 286.905 139.767C286.962 139.803 287.027 139.827 287.094 139.837C287.16 139.848 287.229 139.845 287.295 139.829C287.36 139.813 287.422 139.785 287.477 139.745C287.532 139.705 287.578 139.654 287.614 139.597C287.649 139.539 287.673 139.474 287.683 139.407C287.694 139.34 287.691 139.272 287.675 139.206C284.419 125.636 288.167 112.923 291.884 104.648C294.238 99.3414 297.242 94.3492 300.826 89.7859C300.896 89.7027 300.938 89.5992 300.946 89.4905Z" fill="#3F3D56"/>
<path d="M158.653 37.2593C159.268 36.6273 160.025 36.1513 160.86 35.871C161.696 35.5907 162.586 35.5141 163.457 35.6476C164.328 35.7811 165.154 36.1208 165.868 36.6385C166.581 37.1562 167.161 37.8371 167.56 38.6245C175.948 44.4752 181.265 52.3145 183.272 62.2992L198.152 48.7681C197.978 47.6362 198.165 46.478 198.688 45.4596C199.211 44.4412 200.042 43.6149 201.063 43.0992C202.083 42.5836 203.24 42.405 204.368 42.5893C205.496 42.7735 206.537 43.3109 207.341 44.1246C208.145 44.9383 208.672 45.9863 208.845 47.1184C209.018 48.2505 208.829 49.4085 208.305 50.4263C207.781 51.4441 206.949 52.2695 205.928 52.784C204.907 53.2985 203.75 53.4757 202.622 53.2902C199.89 57.9374 187.22 78.4884 179.399 73.7833C172.826 69.8285 161.153 50.2336 157.723 43.7349C157.174 42.6959 156.968 41.509 157.136 40.3453C157.303 39.1816 157.834 38.101 158.653 37.2593Z" fill="#FFB6B6"/>
<path d="M158.177 46.233C157.43 44.2031 156.831 41.9657 157.479 39.9019C158.192 37.6321 160.381 36.0069 162.722 35.6116C165.064 35.2163 167.497 35.9238 169.51 37.1855C171.523 38.4471 173.16 40.2291 174.614 42.1098L174.224 41.4884C176.118 43.9745 178.011 46.4605 179.905 48.9466C175.099 52.2928 170.293 55.639 165.488 58.9851C162.355 55.1748 159.884 50.864 158.177 46.233Z" fill="#FF9800"/>
<path d="M178.903 217.479L185.786 217.478L189.061 190.868L178.902 190.869L178.903 217.479Z" fill="#FFB6B6"/>
<path d="M178.661 224.675L199.828 224.674V224.406C199.828 222.216 198.96 220.116 197.415 218.568C195.87 217.019 193.774 216.149 191.589 216.149H191.589L187.722 213.209L180.508 216.149L178.66 216.149L178.661 224.675Z" fill="#2F2E41"/>
<path d="M77.9315 119.507L75.0423 125.768L97.7646 139.919L102.029 130.678L77.9315 119.507Z" fill="#FFB6B6"/>
<path d="M71.5163 116.265L62.6301 135.52L62.873 135.632C64.8562 136.552 67.1226 136.644 69.1735 135.888C71.2245 135.133 72.8921 133.592 73.8096 131.605L73.8098 131.604L78.0954 129.321L78.4615 121.525L79.2372 119.844L71.5163 116.265Z" fill="#2F2E41"/>
<path d="M230.287 13.3635C228.873 12.9382 227.967 11.7946 228.262 10.809C228.557 9.82351 229.942 9.3693 231.356 9.79454C232.769 10.2198 233.676 11.3635 233.381 12.349C233.086 13.3345 231.7 13.7887 230.287 13.3635Z" fill="#E6E6E6"/>
<path d="M212.837 12.4909C211.424 12.0657 210.517 10.922 210.812 9.93649C211.108 8.95095 212.493 8.49674 213.906 8.92199C215.32 9.34723 216.226 10.4909 215.931 11.4764C215.636 12.462 214.251 12.9162 212.837 12.4909Z" fill="#3F3D56"/>
<path d="M232.934 28.0193C231.52 27.5941 230.614 26.4504 230.909 25.4649C231.204 24.4794 232.589 24.0252 234.003 24.4504C235.416 24.8756 236.323 26.0193 236.028 27.0048C235.733 27.9904 234.347 28.4446 232.934 28.0193Z" fill="#FF6584"/>
<path d="M238.438 34.1458C237.797 34.0456 237.393 33.2156 237.537 32.2919C237.681 31.3683 238.317 30.7007 238.958 30.8009C239.599 30.9011 240.003 31.7311 239.859 32.6547C239.715 33.5784 239.079 34.246 238.438 34.1458Z" fill="#E6E6E6"/>
<path d="M239.398 45.1703C238.757 45.0701 238.354 44.2401 238.497 43.3164C238.641 42.3928 239.277 41.7252 239.918 41.8254C240.56 41.9256 240.963 42.7556 240.819 43.6792C240.675 44.6029 240.039 45.2705 239.398 45.1703Z" fill="#3F3D56"/>
<path d="M222.459 23.5027C221.818 23.4025 221.414 22.5725 221.558 21.6489C221.702 20.7252 222.338 20.0577 222.979 20.1578C223.62 20.258 224.023 21.088 223.88 22.0117C223.736 22.9354 223.1 23.6029 222.459 23.5027Z" fill="#E6E6E6"/>
<path d="M231.386 20.5781C230.745 20.4779 230.342 19.6479 230.485 18.7243C230.629 17.8006 231.265 17.1331 231.906 17.2333C232.547 17.3335 232.951 18.1635 232.807 19.0871C232.663 20.0108 232.027 20.6783 231.386 20.5781Z" fill="#FF6584"/>
<path d="M220.952 11.1719C220.311 11.0717 219.907 10.2417 220.051 9.31803C220.195 8.39437 220.831 7.72682 221.472 7.82701C222.113 7.9272 222.517 8.7572 222.373 9.68086C222.229 10.6045 221.593 11.2721 220.952 11.1719Z" fill="#3F3D56"/>
<path d="M123.321 187.088C121.86 186.875 120.796 185.876 120.944 184.858C121.092 183.84 122.396 183.187 123.856 183.4C125.316 183.613 126.381 184.611 126.233 185.629C126.085 186.648 124.781 187.301 123.321 187.088Z" fill="#E6E6E6"/>
<path d="M140.709 185.387C139.249 185.174 138.185 184.176 138.333 183.158C138.48 182.14 139.784 181.487 141.245 181.7C142.705 181.913 143.769 182.911 143.621 183.929C143.474 184.947 142.17 185.6 140.709 185.387Z" fill="#3F3D56"/>
<path d="M118.559 172.979C117.099 172.766 116.035 171.768 116.182 170.749C116.33 169.731 117.634 169.078 119.094 169.291C120.555 169.504 121.619 170.502 121.471 171.521C121.323 172.539 120.02 173.192 118.559 172.979Z" fill="#FF6584"/>
<path d="M112.728 167.425C112.079 167.42 111.559 166.658 111.566 165.724C111.573 164.789 112.105 164.035 112.753 164.04C113.402 164.045 113.923 164.807 113.915 165.741C113.908 166.676 113.377 167.43 112.728 167.425Z" fill="#E6E6E6"/>
<path d="M110.166 156.661C109.517 156.656 108.996 155.894 109.003 154.959C109.011 154.025 109.542 153.271 110.191 153.276C110.84 153.281 111.36 154.042 111.353 154.977C111.346 155.912 110.814 156.666 110.166 156.661Z" fill="#3F3D56"/>
<path d="M130.091 175.605C129.442 175.6 128.922 174.839 128.929 173.904C128.936 172.969 129.468 172.215 130.117 172.22C130.765 172.225 131.286 172.987 131.279 173.922C131.272 174.856 130.74 175.61 130.091 175.605Z" fill="#E6E6E6"/>
<path d="M121.689 179.81C121.04 179.805 120.52 179.044 120.527 178.109C120.534 177.174 121.065 176.42 121.714 176.425C122.363 176.43 122.883 177.192 122.876 178.127C122.869 179.061 122.338 179.815 121.689 179.81Z" fill="#FF6584"/>
<path d="M133.385 187.582C132.736 187.577 132.216 186.815 132.223 185.88C132.23 184.946 132.762 184.192 133.411 184.197C134.06 184.202 134.58 184.963 134.573 185.898C134.566 186.833 134.034 187.587 133.385 187.582Z" fill="#3F3D56"/>
<path d="M168.078 97.202L172.261 102.337C172.166 103.727 172.603 104.522 173.902 104.351C173.902 104.351 173.708 106.897 175.3 106.067C176.892 105.237 176.502 107.542 176.502 107.542L177.691 109.001C177.691 109.001 177.728 111.484 178.902 110.487C180.075 109.49 180.451 112.389 180.451 112.389L181.944 114.221L197.164 132.901L188.632 201.558L178.66 200.93L176.23 140.741C175.61 139.081 174.669 138.212 173.23 138.567C172.586 138.708 172.209 138.32 171.972 137.655L170.825 136.824L155.82 125.949L135.999 159.994L86.7158 133.945L91.313 125.084L125.887 136.548L126.794 125.708C127.975 125.018 127.776 124.194 126.994 123.313L127.22 120.608C126.048 119.887 126.629 118.745 127.477 117.538C129.247 116.227 129.074 114.735 127.844 113.143C127.844 113.143 126.291 92.7811 133.82 89.9714C141.349 87.1617 168.078 97.202 168.078 97.202Z" fill="#2F2E41"/>
<path d="M153.298 30.3647L162.747 30.8082L167.698 37.8966C171.144 45.4965 172.091 53.998 170.4 62.1724L166.99 78.655L167.894 90.8775C170.314 92.8344 170.515 95.135 168.405 97.7937C171.003 106.778 148.894 102.735 128.444 99.5659C128.374 95.2852 129.481 90.9265 132.334 86.4523L129.583 50.7419L139.761 38.6054L147.55 33.4638L153.298 30.3647Z" fill="#FF9800"/>
<path d="M144.455 40.1593C145.211 40.6132 145.848 41.2412 146.313 41.9911C146.778 42.7411 147.058 43.5913 147.129 44.4714C147.201 45.3514 147.062 46.2358 146.724 47.0513C146.386 47.8667 145.859 48.5896 145.186 49.16C144.046 56.573 136.965 63.7142 125.83 69.9469L142.401 81.3338C143.46 80.9024 144.627 80.818 145.737 81.0928C146.846 81.3675 147.84 81.9874 148.576 82.8634C149.313 83.7395 149.753 84.8267 149.835 85.9691C149.916 87.1115 149.635 88.2504 149.03 89.2226C148.426 90.1947 147.53 90.9501 146.471 91.3804C145.412 91.8107 144.244 91.8937 143.135 91.6177C142.026 91.3416 141.033 90.7206 140.297 89.8438C139.562 88.9669 139.123 87.8792 139.043 86.7367C133.901 85.1458 111.024 77.5342 113.787 68.822C116.108 61.499 132.437 45.5918 137.954 40.7472C138.836 39.9721 139.941 39.4975 141.109 39.3918C142.278 39.2861 143.449 39.5549 144.455 40.1593Z" fill="#FFB6B6"/>
<path d="M162.477 73.3669C163.579 73.365 164.639 72.9473 165.447 72.1972C166.255 71.447 166.752 70.4193 166.838 69.3188L167.425 61.8209C167.516 60.6598 167.143 59.5101 166.388 58.6247C165.633 57.7393 164.558 57.1908 163.399 57.0997L148.867 55.9575C147.709 55.8665 146.562 56.2405 145.678 56.9971C144.795 57.7537 144.247 58.831 144.157 59.992L143.57 67.4899C143.479 68.6509 143.852 69.8006 144.607 70.686C145.362 71.5714 146.437 72.12 147.595 72.2111L162.128 73.3532C162.245 73.3624 162.361 73.367 162.477 73.3669Z" fill="#F2F2F2"/>
<path d="M160.386 28.5672C153.553 28.5672 148.014 23.0159 148.014 16.168C148.014 9.32018 153.553 3.76889 160.386 3.76889C167.218 3.76889 172.757 9.32018 172.757 16.168C172.757 23.0159 167.218 28.5672 160.386 28.5672Z" fill="#FFB6B6"/>
<path d="M147.531 8.27705C148.118 7.51434 148.789 6.81383 149.299 5.99817C149.791 5.21286 150.126 4.33135 150.68 3.58909C152.319 1.39375 155.366 0.944819 158.088 0.671408C159.885 0.490889 161.682 0.310366 163.48 0.129831C164.49 -0.0134746 165.513 -0.0320058 166.528 0.0746632C167.493 0.224906 168.411 0.597073 169.208 1.16201C170.006 1.72694 170.662 2.46931 171.126 3.33095C171.653 4.3296 172.004 5.57423 173.031 6.04001C173.515 6.19293 174.008 6.31572 174.507 6.40769C174.992 6.55849 175.479 6.94694 175.461 7.45566C175.428 8.39767 173.769 8.93688 174.174 9.78781C174.531 10.5393 175.962 10.0061 176.165 11.1405C176.193 11.3042 176.186 11.4718 176.145 11.6327C176.104 11.7936 176.03 11.9441 175.928 12.0746C175.466 12.667 174.709 12.821 173.999 12.9517L175.26 14.7585C171.178 16.4393 166.634 16.6161 162.435 15.2574C161.808 15.0493 161.139 15.0021 160.489 15.1204C159.84 15.2387 159.23 15.5186 158.716 15.9344C158.202 16.3502 157.801 16.8887 157.549 17.5004C157.296 18.1121 157.202 18.7775 157.273 19.4355L157.278 19.4869C157.306 19.6853 157.279 19.8874 157.201 20.0717C157.122 20.2561 156.996 20.4157 156.834 20.5337C156.195 20.9694 155.545 20.3582 155.255 19.7533C154.96 19.1381 154.764 18.3917 154.05 18.1761C153.759 18.1024 153.452 18.1255 153.174 18.2418C152.897 18.3581 152.665 18.5615 152.514 18.8212C151.958 19.6945 152.186 20.7367 152.506 21.6609C153.245 23.7935 154.445 25.7362 156.02 27.3503C153.332 27.1721 154.118 27.4421 151.431 27.2639L150.681 27.3809C148.882 26.2563 147.991 24.1166 147.517 22.0457C146.441 17.3483 144.596 12.0951 147.531 8.27705Z" fill="#2F2E41"/>
<path d="M137.042 39.1442C138.828 37.9296 140.852 36.8095 143.006 36.9441C145.376 37.0921 147.476 38.8316 148.421 41.0143C149.367 43.1969 149.266 45.734 148.528 47.9954C147.789 50.2569 146.457 52.2776 144.984 54.1444L145.493 53.6161C143.54 56.0554 141.587 58.4947 139.634 60.934C135.238 57.0627 130.843 53.1913 126.447 49.3199C129.385 45.3573 132.967 41.9175 137.042 39.1442Z" fill="#FF9800"/>
<path d="M160.729 224.023L160.723 223.776C160.612 219.634 159.601 215.565 157.762 211.853C155.923 208.142 153.3 204.876 150.075 202.283C148.254 200.843 146.259 199.639 144.138 198.698L143.936 198.608L143.902 198.827C143.491 201.442 142.84 204.112 142.537 205.297L140.506 197.353L140.28 197.288C139.245 196.983 138.143 196.996 137.115 197.325C136.088 197.654 135.182 198.284 134.515 199.134C133.819 199.984 133.393 201.023 133.291 202.118C133.189 203.212 133.417 204.313 133.945 205.277C134.419 206.161 134.884 207.083 135.334 207.975C136.881 211.041 138.48 214.211 140.811 216.673C142.593 218.52 144.765 219.944 147.167 220.842C149.569 221.74 152.141 222.089 154.694 221.864L160.729 224.023Z" fill="#F2F2F2"/>
<path d="M132.025 224.74L228.125 224.849C228.18 224.849 228.235 224.838 228.286 224.817C228.337 224.796 228.383 224.765 228.422 224.725C228.461 224.686 228.492 224.64 228.514 224.588C228.535 224.537 228.546 224.482 228.546 224.427C228.546 224.372 228.535 224.317 228.514 224.265C228.492 224.214 228.461 224.168 228.422 224.129C228.383 224.089 228.337 224.058 228.286 224.037C228.235 224.016 228.18 224.005 228.125 224.005L132.025 223.896C131.913 223.896 131.806 223.941 131.727 224.02C131.648 224.099 131.604 224.206 131.604 224.318C131.604 224.43 131.648 224.537 131.727 224.616C131.806 224.696 131.913 224.74 132.025 224.74Z" fill="#CACACA"/>
<path d="M42.2023 224.74L97.6342 224.849C97.6895 224.849 97.7443 224.838 97.7953 224.817C97.8464 224.796 97.8929 224.765 97.932 224.725C97.9711 224.686 98.0021 224.64 98.0232 224.588C98.0444 224.537 98.0553 224.482 98.0553 224.427C98.0553 224.372 98.0444 224.317 98.0232 224.265C98.0021 224.214 97.9711 224.168 97.932 224.129C97.8929 224.089 97.8464 224.058 97.7953 224.037C97.7443 224.016 97.6895 224.005 97.6342 224.005L42.2023 223.896C42.0906 223.896 41.9835 223.941 41.9046 224.02C41.8256 224.099 41.7812 224.206 41.7812 224.318C41.7812 224.43 41.8256 224.537 41.9046 224.616C41.9835 224.696 42.0906 224.74 42.2023 224.74Z" fill="#CACACA"/>
<path d="M262.515 224.74L314.411 224.849C314.466 224.849 314.521 224.838 314.572 224.817C314.623 224.796 314.67 224.765 314.709 224.725C314.748 224.686 314.779 224.64 314.8 224.588C314.821 224.537 314.832 224.482 314.832 224.427C314.832 224.372 314.821 224.317 314.8 224.265C314.779 224.214 314.748 224.168 314.709 224.129C314.67 224.089 314.623 224.058 314.572 224.037C314.521 224.016 314.466 224.005 314.411 224.005L262.515 223.896C262.46 223.896 262.405 223.907 262.354 223.928C262.303 223.949 262.256 223.98 262.217 224.019C262.178 224.058 262.147 224.105 262.125 224.156C262.104 224.208 262.093 224.263 262.093 224.318C262.093 224.374 262.104 224.429 262.125 224.48C262.147 224.531 262.178 224.578 262.217 224.617C262.256 224.656 262.303 224.687 262.354 224.708C262.405 224.729 262.46 224.74 262.515 224.74Z" fill="#CACACA"/>
<path d="M206.306 35.5373C206.51 35.5372 206.712 35.5796 206.898 35.6617C207.085 35.7437 207.253 35.8637 207.391 36.0141C207.529 36.1644 207.635 36.3418 207.701 36.5351C207.768 36.7284 207.793 36.9334 207.777 37.1371C206.269 44.2551 205.607 51.0427 206.117 57.3714C206.085 57.7406 205.916 58.0845 205.644 58.3357C205.372 58.5868 205.016 58.7271 204.647 58.729H195.127C194.757 58.7271 194.401 58.5868 194.129 58.3357C193.857 58.0845 193.689 57.7406 193.656 57.3714C194.425 50.9879 193.612 44.1721 191.997 37.1371C191.98 36.9334 192.006 36.7284 192.072 36.5351C192.139 36.3418 192.244 36.1644 192.382 36.0141C192.52 35.8637 192.688 35.7437 192.875 35.6617C193.062 35.5796 193.264 35.5372 193.468 35.5373H206.306Z" fill="#FF9800"/>
<path d="M191.235 38.2341L191.945 34.853C192.01 34.5455 192.178 34.2697 192.421 34.0717C192.665 33.8737 192.969 33.7657 193.282 33.7657H197.716C197.733 33.7067 197.761 33.6515 197.799 33.6029L198.292 32.9857C198.338 32.9276 198.397 32.8806 198.464 32.8484C198.531 32.8161 198.604 32.7993 198.679 32.7993H201.416C201.491 32.7993 201.564 32.8161 201.631 32.8484C201.698 32.8806 201.757 32.9276 201.803 32.9857L202.296 33.6029C202.334 33.6515 202.362 33.7067 202.379 33.7657H206.491C206.805 33.7657 207.109 33.8737 207.352 34.0717C207.596 34.2697 207.764 34.5455 207.829 34.853L208.539 38.2341C208.581 38.4335 208.578 38.6398 208.53 38.8379C208.482 39.036 208.391 39.2209 208.263 39.3791C208.135 39.5373 207.973 39.6649 207.789 39.7526C207.606 39.8402 207.405 39.8857 207.202 39.8857C202.557 41.3606 197.681 41.3606 192.572 39.8857C192.368 39.8857 192.168 39.8402 191.984 39.7526C191.801 39.665 191.639 39.5374 191.511 39.3791C191.383 39.2209 191.291 39.036 191.244 38.8379C191.196 38.6398 191.193 38.4335 191.235 38.2341Z" fill="#3F3D56"/>
</g>
<defs>
<clipPath id="clip0_10_452">
<rect width="318" height="225" fill="white" transform="matrix(-1 0 0 1 318 0)"/>
</clipPath>
</defs>
</svg>
